<?xml version="1.0" encoding="UTF-8"?>
<!DOCTYPE svg PUBLIC "-//W3C//DTD SVG 1.1//EN" "http://www.w3.org/Graphics/SVG/1.1/DTD/svg11.dtd">
<svg xmlns="http://www.w3.org/2000/svg" version="1.1" width="48px" height="48px" style="shape-rendering:geometricPrecision; text-rendering:geometricPrecision; image-rendering:optimizeQuality; fill-rule:evenodd; clip-rule:evenodd" xmlns:xlink="http://www.w3.org/1999/xlink">
<g><path style="opacity:1" fill="#de852a" d="M 33.5,8.5 C 32.2173,11.9819 30.2173,12.3152 27.5,9.5C 24.8333,12.1667 22.1667,12.1667 19.5,9.5C 16.7827,12.3152 14.7827,11.9819 13.5,8.5C 15.7129,4.72677 19.0462,3.06011 23.5,3.5C 27.9538,3.06011 31.2871,4.72677 33.5,8.5 Z"/></g>
<g><path style="opacity:0.988" fill="#bd6216" d="M 13.5,8.5 C 14.7827,11.9819 16.7827,12.3152 19.5,9.5C 22.1667,12.1667 24.8333,12.1667 27.5,9.5C 30.2173,12.3152 32.2173,11.9819 33.5,8.5C 35.1628,10.4385 35.8294,12.7718 35.5,15.5C 31.9504,14.446 29.6171,15.7794 28.5,19.5C 26.6954,20.2371 25.0287,21.2371 23.5,22.5C 21.9713,21.2371 20.3046,20.2371 18.5,19.5C 17.3829,15.7794 15.0496,14.446 11.5,15.5C 11.1706,12.7718 11.8372,10.4385 13.5,8.5 Z"/></g>
<g><path style="opacity:1" fill="#d8761d" d="M 18.5,19.5 C 18.5614,21.5922 19.5614,23.0922 21.5,24C 19.1367,24.5885 18.1367,26.0885 18.5,28.5C 16.1667,29.1667 13.8333,29.8333 11.5,30.5C 10.5,30.5 9.5,30.5 8.5,30.5C 8.33432,26.1539 8.50098,21.8206 9,17.5C 9.9947,16.9341 10.828,16.2674 11.5,15.5C 15.0496,14.446 17.3829,15.7794 18.5,19.5 Z"/></g>
<g><path style="opacity:1" fill="#d7751c" d="M 35.5,15.5 C 36.172,16.2674 37.0053,16.9341 38,17.5C 38.499,21.8206 38.6657,26.1539 38.5,30.5C 37.5,30.5 36.5,30.5 35.5,30.5C 33.1667,29.8333 30.8333,29.1667 28.5,28.5C 28.8633,26.0885 27.8633,24.5885 25.5,24C 27.4386,23.0922 28.4386,21.5922 28.5,19.5C 29.6171,15.7794 31.9504,14.446 35.5,15.5 Z"/></g>
<g><path style="opacity:1" fill="#9a461b" d="M 18.5,19.5 C 20.3046,20.2371 21.9713,21.2371 23.5,22.5C 25.0287,21.2371 26.6954,20.2371 28.5,19.5C 28.4386,21.5922 27.4386,23.0922 25.5,24C 27.8633,24.5885 28.8633,26.0885 28.5,28.5C 27.5266,28.9867 26.5266,29.4867 25.5,30C 29.5687,35.3402 28.902,35.8402 23.5,31.5C 18.098,35.8402 17.4313,35.3402 21.5,30C 20.4734,29.4867 19.4734,28.9867 18.5,28.5C 18.1367,26.0885 19.1367,24.5885 21.5,24C 19.5614,23.0922 18.5614,21.5922 18.5,19.5 Z"/></g>
<g><path style="opacity:1" fill="#c86816" d="M 18.5,28.5 C 19.4734,28.9867 20.4734,29.4867 21.5,30C 17.4313,35.3402 18.098,35.8402 23.5,31.5C 28.902,35.8402 29.5687,35.3402 25.5,30C 26.5266,29.4867 27.5266,28.9867 28.5,28.5C 30.8333,29.1667 33.1667,29.8333 35.5,30.5C 35.5,32.1667 35.5,33.8333 35.5,35.5C 34.1667,35.5 32.8333,35.5 31.5,35.5C 30.5,35.5 29.5,35.5 28.5,35.5C 25.1667,35.5 21.8333,35.5 18.5,35.5C 17.5,35.5 16.5,35.5 15.5,35.5C 14.1667,35.5 12.8333,35.5 11.5,35.5C 11.5,33.8333 11.5,32.1667 11.5,30.5C 13.8333,29.8333 16.1667,29.1667 18.5,28.5 Z"/></g>
<g><path style="opacity:0.979" fill="#41a3ed" d="M 11.5,35.5 C 12.8333,35.5 14.1667,35.5 15.5,35.5C 15.5,38.1667 15.5,40.8333 15.5,43.5C 13.1667,43.5 10.8333,43.5 8.5,43.5C 8.5,40.8333 8.5,38.1667 8.5,35.5C 9.5,35.5 10.5,35.5 11.5,35.5 Z"/></g>
<g><path style="opacity:1" fill="#42a4ed" d="M 18.5,35.5 C 21.8333,35.5 25.1667,35.5 28.5,35.5C 28.5,38.1667 28.5,40.8333 28.5,43.5C 25.1667,43.5 21.8333,43.5 18.5,43.5C 18.5,40.8333 18.5,38.1667 18.5,35.5 Z"/></g>
<g><path style="opacity:0.979" fill="#41a3ec" d="M 31.5,35.5 C 32.8333,35.5 34.1667,35.5 35.5,35.5C 36.5,35.5 37.5,35.5 38.5,35.5C 38.5,38.1667 38.5,40.8333 38.5,43.5C 36.1667,43.5 33.8333,43.5 31.5,43.5C 31.5,40.8333 31.5,38.1667 31.5,35.5 Z"/></g>
<g><path style="opacity:0.947" fill="#893616" d="M 15.5,35.5 C 16.5,35.5 17.5,35.5 18.5,35.5C 18.5,38.1667 18.5,40.8333 18.5,43.5C 17.5,46.1667 16.5,46.1667 15.5,43.5C 15.5,40.8333 15.5,38.1667 15.5,35.5 Z"/></g>
<g><path style="opacity:0.947" fill="#893616" d="M 28.5,35.5 C 29.5,35.5 30.5,35.5 31.5,35.5C 31.5,38.1667 31.5,40.8333 31.5,43.5C 30.5,46.1667 29.5,46.1667 28.5,43.5C 28.5,40.8333 28.5,38.1667 28.5,35.5 Z"/></g>
</svg>
