<svg xmlns="http://www.w3.org/2000/svg" width="512" height="512" viewBox="0 0 512 512" version="1.1">
	<path d="M 248.898 38.458 C 245.816 39.244, 239.066 41.759, 233.898 44.048 C 215.907 52.015, 213.484 52.953, 210.816 52.976 C 208.647 52.995, 208.072 53.521, 207.816 55.723 C 207.504 58.411, 207.359 58.462, 196.934 59.613 C 178.294 61.669, 158.136 67.979, 144.331 76.079 C 135.047 81.526, 122.144 95.085, 117.761 104 C 111.854 116.015, 101.130 151.419, 97.600 170.561 C 93.559 192.476, 91.609 225.770, 92.965 249.719 L 93.431 257.939 88.965 260.257 C 85.604 262.003, 83.882 263.803, 82 267.538 L 79.500 272.500 79.439 303.500 C 79.405 320.550, 79.763 336.975, 80.234 340 C 80.706 343.025, 81.443 358.775, 81.872 375 C 82.517 399.421, 82.947 405.182, 84.364 408.463 C 87.349 415.373, 91.466 418.503, 99.326 419.840 L 103.500 420.550 104.093 426.725 C 105.521 441.581, 110.564 443.488, 177.500 454.485 C 196.200 457.557, 226.350 462.509, 244.500 465.488 C 305.249 475.459, 315.269 476.615, 327 475.005 C 336.081 473.759, 374.917 461.566, 383.340 457.317 C 390.283 453.814, 396.240 447.919, 399.015 441.803 C 400.338 438.886, 401.547 436.317, 401.701 436.093 C 401.854 435.870, 403.109 436.905, 404.489 438.394 C 411.631 446.100, 427.634 445.872, 437.273 437.927 C 444.091 432.306, 459 406.197, 459 399.876 C 459 397.515, 455.669 390.698, 452.357 386.279 C 451.029 384.507, 448.638 380.151, 447.044 376.598 C 445.450 373.045, 440.660 363.919, 436.400 356.319 C 419.476 326.127, 405.927 295.150, 400.838 275.017 L 397.936 263.534 398.595 229.517 C 399.148 200.959, 398.984 193.185, 397.570 181.076 C 392.304 135.959, 379.088 100.922, 360.396 82.527 C 353.913 76.147, 345.469 70.365, 339.100 67.947 C 336.570 66.986, 329.064 65.496, 322.420 64.634 C 304.859 62.357, 304.840 62.342, 310.562 55.359 C 312.522 52.967, 313.837 50.546, 313.486 49.977 C 313.134 49.408, 308.855 46.938, 303.977 44.488 C 297.047 41.008, 294.056 40.044, 290.303 40.083 C 287.662 40.110, 283.925 39.624, 282 39.004 C 276.262 37.156, 255.354 36.811, 248.898 38.458 M 288.306 47.533 C 285.516 50.050, 285.514 50.064, 287.885 49.783 C 289.197 49.627, 290.940 48.487, 291.757 47.250 C 293.769 44.205, 291.815 44.365, 288.306 47.533 M 260.871 49.067 C 255.048 49.988, 246.335 53.776, 247.572 54.849 C 248.083 55.291, 252.550 56.204, 257.500 56.878 C 299.808 62.636, 324.258 83.505, 342.438 129.374 C 348.262 144.068, 353.436 168.150, 357.933 201.500 C 362.875 238.148, 364.163 260.497, 361.860 269.642 C 360.540 274.883, 362.279 285.469, 364.338 284.729 C 364.977 284.499, 371.054 282.810, 377.843 280.975 C 393.009 276.877, 392.918 277.009, 390.594 262.500 C 387.416 242.667, 386.808 231.058, 387.475 203 C 388.205 172.325, 387.814 168.008, 382.426 147.215 C 375.161 119.175, 366.167 101.213, 352.460 87.370 C 344.477 79.308, 342.197 77.650, 332.960 73.193 C 326.665 70.155, 319.315 67.481, 314.500 66.477 C 310.100 65.560, 303.575 63.976, 300 62.956 C 284.996 58.678, 269.893 55.808, 259.543 55.268 C 251.346 54.841, 249.205 54.468, 251.043 53.787 C 254.169 52.630, 272.375 54.171, 284.258 56.599 L 287.016 57.162 284.758 53.623 C 283.217 51.209, 281.547 49.929, 279.500 49.594 C 273.318 48.584, 265.350 48.359, 260.871 49.067 M 217.250 54.277 C 216.012 54.843, 215 55.659, 215 56.091 C 215 57.463, 218.925 56.639, 219.497 55.146 C 220.241 53.209, 219.886 53.072, 217.250 54.277 M 222.171 55.097 C 220.475 57.813, 221.721 59.102, 223.582 56.557 C 224.362 55.491, 225 54.254, 225 53.809 C 225 52.301, 223.487 52.990, 222.171 55.097 M 227.279 54.489 C 227.620 57.264, 231 57.796, 231 55.073 C 231 53.933, 230.523 53, 229.941 53 C 229.359 53, 229.160 53.450, 229.500 54 C 229.840 54.550, 229.679 55, 229.142 55 C 228.606 55, 227.912 54.438, 227.601 53.750 C 227.290 53.063, 227.145 53.395, 227.279 54.489 M 210 56.500 C 210 57.325, 210.675 58, 211.500 58 C 212.325 58, 213 57.325, 213 56.500 C 213 55.675, 212.325 55, 211.500 55 C 210.675 55, 210 55.675, 210 56.500 M 203.056 67.113 C 182.230 68.962, 165.515 73.541, 149.614 81.753 C 137.022 88.257, 128.660 96.583, 123.253 108 C 121.039 112.675, 118.980 117.625, 118.677 119 L 118.127 121.500 119.813 119.055 C 128.971 105.782, 148.898 95.385, 175.504 89.999 C 185.031 88.071, 188.632 87.843, 202.984 88.262 C 222.322 88.827, 233.329 90.656, 248.607 95.841 C 288.857 109.502, 309.474 137.461, 320.989 194 C 322.053 199.225, 324.787 215.200, 327.065 229.500 C 330.434 250.648, 331.091 256.924, 330.590 263.132 C 330.037 269.966, 330.288 271.657, 332.986 279.302 C 334.644 283.998, 336 288.037, 336 288.278 C 336 288.518, 330.956 289.035, 324.792 289.425 C 318.627 289.815, 312.890 290.582, 312.042 291.131 C 308.443 293.458, 336.961 290.505, 342 288.028 C 344.579 286.760, 345.527 262.479, 343.577 247.613 C 341.619 232.677, 338.789 210.072, 335.990 187 C 332.008 154.174, 326.376 133.179, 316.401 113.981 C 309.677 101.040, 304.026 93.669, 295.763 87.064 C 287.642 80.572, 271.505 72.456, 262 70.083 C 246.274 66.158, 225.569 65.115, 203.056 67.113 M 305.371 70.309 C 311.519 74.223, 317.767 79.384, 319.500 81.981 C 323.180 87.494, 327.391 86.772, 325.015 81.035 C 322.676 75.390, 312.786 69.004, 306.500 69.081 C 303.794 69.114, 303.683 69.234, 305.371 70.309 M 177.500 105.137 C 153.919 108.116, 134.211 117.362, 120.989 131.647 C 110.228 143.274, 106.729 153.305, 103.075 183 C 100.046 207.617, 98.895 229.625, 99.894 243.797 C 100.371 250.561, 100.998 256.331, 101.288 256.621 C 101.577 256.911, 109.618 256.673, 119.157 256.092 C 128.696 255.512, 164.532 254.512, 198.793 253.869 C 268.340 252.565, 274.427 252.853, 281.485 257.788 C 290.034 263.765, 292.089 269.650, 292.558 289.500 C 292.740 297.200, 293.175 309.125, 293.524 316 C 293.923 323.858, 293.750 330.294, 293.057 333.331 C 292.291 336.689, 292.260 339.891, 292.955 343.831 C 293.504 346.949, 294.610 363, 295.411 379.500 C 296.994 412.097, 296.641 417.842, 292.571 425.838 C 289.652 431.573, 286.833 434.271, 281 436.916 L 276.500 438.956 289.602 438.978 C 301.594 438.998, 302.990 438.807, 306.078 436.726 C 313.648 431.625, 316.706 422.387, 315.587 408 C 315.223 403.325, 314.532 390.725, 314.052 380 C 313.571 369.275, 312.626 358.925, 311.951 357 C 311.122 354.633, 310.660 344.759, 310.523 326.500 C 310.411 311.650, 309.584 288.025, 308.684 274 C 307.785 259.975, 306.574 239.275, 305.993 228 C 304.193 193.052, 299.595 168.072, 292.119 152.628 C 279.587 126.741, 257.616 111.871, 223.151 105.950 C 210.960 103.856, 190.525 103.492, 177.500 105.137 M 206 129.709 C 205.175 130.013, 203.715 130.945, 202.756 131.780 C 201.441 132.925, 197.134 133.474, 185.270 134.010 C 170.907 134.659, 169.207 134.554, 165.870 132.815 C 161.887 130.739, 157.993 131.100, 155.791 133.750 C 154.068 135.823, 153.329 182.877, 154.971 185.946 C 156.314 188.455, 160.027 188.617, 166.124 186.432 C 169.693 185.153, 174.411 184.919, 191.717 185.165 C 207.961 185.396, 213.234 185.167, 214.217 184.186 C 215.585 182.819, 215.668 180.064, 215.246 149.821 C 215.044 135.314, 214.718 131.861, 213.429 130.571 C 211.864 129.007, 208.858 128.659, 206 129.709 M 109.402 168.509 C 108.316 170.166, 107.477 174.664, 106.930 181.759 C 105.744 197.143, 105.806 222.769, 107.035 225.066 C 108.295 227.420, 113.581 227.682, 116.636 225.543 C 120.303 222.974, 121.196 216.669, 121.353 192.261 C 121.518 166.447, 121.409 166, 114.901 166 C 111.889 166, 110.687 166.549, 109.402 168.509 M 111.460 175.125 C 110.316 178.731, 115.118 180.516, 116.918 177.153 C 117.598 175.883, 117.547 174.947, 116.753 174.153 C 114.915 172.315, 112.194 172.814, 111.460 175.125 M 110.736 212.901 C 110.448 214.004, 110.839 215.715, 111.606 216.704 C 112.940 218.423, 113.065 218.415, 114.529 216.519 C 116.527 213.931, 116.014 211.577, 113.370 211.198 C 111.947 210.993, 111.090 211.548, 110.736 212.901 M 253.500 257.621 C 224.968 259.326, 120.975 263.466, 100.933 263.696 C 90.274 263.818, 86.705 267.819, 85.496 281 L 84.809 288.500 90.717 288.171 C 93.967 287.989, 106.723 288.774, 119.063 289.914 C 149.282 292.706, 150.123 292.767, 185 294.757 C 232.988 297.495, 260.764 296.807, 280.141 292.400 C 286.998 290.840, 287 290.839, 287 287.378 C 287 281.742, 283.990 268.786, 281.751 264.786 C 278.178 258.402, 270.981 256.577, 253.500 257.621 M 97.250 304.689 C 98.213 304.941, 99.787 304.941, 100.750 304.689 C 101.713 304.438, 100.925 304.232, 99 304.232 C 97.075 304.232, 96.287 304.438, 97.250 304.689 M 86.032 322.187 C 86.049 326.209, 86.715 334, 87.512 339.500 C 88.446 345.948, 88.983 358.203, 89.024 374 C 89.059 387.475, 89.466 400.461, 89.929 402.858 C 90.923 408.002, 93.631 411.986, 97.385 413.826 C 98.873 414.556, 110.983 416.250, 124.295 417.590 C 147.532 419.930, 200.361 426.681, 229.573 431.044 C 237.233 432.188, 248.450 433.363, 254.500 433.656 C 265.409 434.183, 265.538 434.163, 270.106 431.207 C 276.540 427.044, 279.243 421.163, 279.836 410.041 C 280.506 397.452, 278.025 349.491, 276.353 342.709 C 274.966 337.088, 275.001 336.747, 277.566 331.032 C 279.019 327.794, 279.963 324.749, 279.664 324.265 C 279.361 323.775, 276.093 323.720, 272.310 324.141 C 259.076 325.611, 231.165 324.997, 197.500 322.494 C 179.760 321.175, 131.122 318.034, 118.601 317.399 L 104.702 316.694 105.358 327.597 C 105.719 333.594, 106.275 340.975, 106.594 344 C 107.090 348.704, 106.868 349.824, 105.059 351.738 C 100.149 356.934, 93.478 355.361, 91.177 348.464 C 90.136 345.345, 90.064 341.729, 90.840 331.500 C 91.382 324.350, 91.977 317.825, 92.163 317 C 92.399 315.949, 91.528 315.406, 89.250 315.187 L 86 314.873 86.032 322.187 M 94.465 341.112 C 93.162 345.217, 98.851 347.436, 100.391 343.423 C 101.296 341.064, 99.929 339, 97.460 339 C 95.972 339, 94.893 339.760, 94.465 341.112 M 401 357.687 L 401 374.802 405.435 380.651 C 407.874 383.868, 411.989 388.525, 414.580 391 C 417.171 393.475, 419.901 396.948, 420.646 398.718 C 422.581 403.317, 422.317 413.802, 420.085 420.975 C 418.472 426.156, 418.394 427.214, 419.587 427.672 C 426.319 430.255, 436.296 418.067, 439.125 403.802 L 440.255 398.104 435.283 391.802 C 429.336 384.263, 421.017 371.821, 411.012 355.500 C 406.966 348.900, 403.058 342.841, 402.328 342.036 C 401.219 340.813, 401 343.390, 401 357.687 M 203.185 364.686 C 200.426 365.785, 200.068 370.080, 201.139 389.233 C 202.303 410.041, 203.078 413.699, 206.607 415.041 C 210.343 416.461, 254.487 419.145, 257.194 418.116 C 262.346 416.158, 262.524 415.263, 262.188 393.092 C 261.855 371.162, 261.308 368.353, 256.991 366.380 C 254.436 365.213, 205.714 363.679, 203.185 364.686" stroke="none" fill="black" fill-rule="evenodd"/>
</svg>