<svg width="70" height="70" xmlns="http://www.w3.org/2000/svg" version="1.1">
 <title>Cru</title>

 <g>
  <title>Layer 1</title>
  <path id="svg_2" d="m29.29983,7.34142l-4.31723,8.52336l-10.18866,5.01374c0.00131,0.24879 -11.56887,9.7749 -11.56887,9.7749c0,0 -1.38151,14.79054 -1.38282,14.54174c0.00131,0.24879 -1.38021,11.52971 2.24627,13.78589c15.36934,0.50137 32.12019,2.75756 32.11888,2.50876c0.00131,0.24879 17.09754,-1.50602 20.55001,-3.00824c2.93702,-1.25533 10.01728,-7.02113 10.01597,-7.26992c3.10971,-2.00739 0.86475,-11.03213 0.86345,-11.28092c0.00131,0.24879 -5.00668,-11.78419 -5.00799,-12.03298c0.00131,0.24879 -6.38819,-8.02388 -6.3895,-8.27267c0.00131,0.24879 -10.87811,0.49948 -10.87942,0.25069c0.00131,0.24879 -8.11509,-6.51976 -8.11639,-6.76855c0.00131,0.24879 -4.31592,-8.52526 -4.31723,-8.77405l-3.62647,3.00824z" opacity="100" stroke="#422C10" fill="#845335"/>
  <ellipse ry="2.75756" rx="3.36744" id="svg_7" cy="34.41373" cx="49.41943" stroke="#422C10" fill="#cccccc"/>
  <ellipse ry="2.75756" rx="3.36744" id="svg_4" cy="32.90961" cx="19.71689" stroke="#422C10" fill="#cccccc"/>
  <path id="svg_8" d="m22.39357,42.6864c-2.47521,11.28092 25.61556,11.78229 23.65842,-0.75206" opacity="100" stroke="#422C10" fill="none"/>
 </g>
</svg>