<svg width="370" height="530" xmlns="http://www.w3.org/2000/svg" version="1.1">
 <title>Inventory</title>

 <g>
  <title>Layer 1</title>
  <rect rx="15" stroke="#482816" stroke-width="12" id="svg_2" height="518" width="358" y="6" x="6" fill="#7b572d"/>
  <path stroke-width="0" opacity="0.25" id="svg_1" fill-rule="evenodd" fill="#422C10" d="m172.32218,74.41685c-2.21721,0.67634 -7.0732,2.84045 -10.79108,4.81009c-12.94283,6.85546 -14.68594,7.66259 -16.60532,7.68238c-1.56039,0.01636 -1.97405,0.46896 -2.15822,2.36374c-0.22445,2.31297 -0.32877,2.35686 -7.82857,3.34727c-13.40972,1.76914 -27.9115,7.19879 -37.84289,14.16869c-6.67896,4.68704 -15.96145,16.35431 -19.1146,24.02552c-4.24953,10.33868 -11.96443,40.80319 -14.50393,57.27454c-2.90712,18.85746 -4.30995,47.50634 -3.33445,68.11403l0.33524,7.07316l-3.21286,1.99459c-2.41792,1.50241 -3.65674,3.05127 -5.01066,6.26516l-1.79851,4.2697l-0.04388,26.67494c-0.02446,14.67121 0.23309,28.80462 0.57192,31.40758c0.33956,2.60296 0.86976,16.15555 1.17839,30.11686c0.46402,21.01383 0.77336,25.97106 1.79276,28.7943c2.14742,5.94593 5.10921,8.63924 10.76374,9.78971l3.00279,0.61095l0.4266,5.31348c1.02731,12.78332 4.65527,14.42426 52.8094,23.88698c13.45288,2.6434 35.14296,6.90451 48.20017,9.46788c43.70316,8.57987 50.91161,9.57459 59.35096,8.1892c6.53291,-1.07216 34.47176,-11.56401 40.53131,-15.2202c4.99483,-3.01426 9.28033,-8.0868 11.27669,-13.34951c0.95177,-2.51002 1.82153,-4.7206 1.93232,-4.91335c0.11007,-0.19189 1.01292,0.69871 2.0057,1.97997c5.13799,6.63088 16.65064,6.43468 23.58499,-0.40184c4.9049,-4.83677 15.63053,-27.3031 15.63053,-32.74219c0,-2.0316 -2.39634,-7.8975 -4.77901,-11.69997c-0.95536,-1.52478 -2.67546,-5.27304 -3.8222,-8.33032c-1.14674,-3.0573 -4.59269,-10.91004 -7.65735,-17.44972c-12.17522,-25.97967 -21.92244,-52.63482 -25.5835,-69.95889l-2.08772,-9.88091l0.47409,-29.271c0.39783,-24.57364 0.27985,-31.26303 -0.73739,-41.68261c-3.78839,-38.82236 -13.29605,-68.97107 -26.74318,-84.79963c-4.6639,-5.48987 -10.73856,-10.46518 -15.32046,-12.54583c-1.8201,-0.82692 -7.21995,-2.10905 -11.99969,-2.85077c-12.63348,-1.95931 -12.64715,-1.97222 -8.53072,-7.98098c1.41004,-2.05828 2.35605,-4.14149 2.10354,-4.63111c-0.25323,-0.48962 -3.33156,-2.615 -6.84083,-4.72318c-4.98548,-2.99447 -7.13723,-3.82397 -9.83715,-3.79041c-1.89995,0.02323 -4.58837,-0.39496 -5.97322,-0.92847c-4.12795,-1.59016 -19.16928,-1.88703 -23.81376,-0.46983m28.35033,7.80888c-2.00714,2.16584 -2.00858,2.17788 -0.30287,1.93608c0.94386,-0.13424 2.19778,-1.11519 2.78554,-2.1796c1.44744,-2.62016 0.04173,-2.48249 -2.48267,0.24352m-19.73689,1.31998c-4.1891,0.79251 -10.45728,4.052 -9.56737,4.97531c0.36761,0.38034 3.5812,1.16596 7.14226,1.74592c30.43661,4.95465 48.02607,22.91206 61.10487,62.38149c4.18982,12.64393 7.91202,33.36605 11.14719,62.06311c3.5553,31.53495 4.4819,50.76585 2.8251,58.63496c-0.94961,4.50979 0.30143,13.61885 1.78268,12.9821c0.4597,-0.19792 4.83153,-1.65126 9.71557,-3.23025c10.9105,-3.52626 10.84504,-3.41267 9.17314,-15.89741c-2.28627,-17.06594 -2.72367,-27.05527 -2.24383,-51.19867c0.52517,-26.39528 0.24388,-30.10998 -3.63228,-48.00198c-5.22648,-24.12791 -11.69681,-39.58389 -21.55771,-51.49553c-5.74301,-6.9372 -7.38325,-8.36388 -14.02841,-12.19905c-4.52865,-2.61415 -9.81629,-4.91506 -13.28022,-5.77899c-3.16539,-0.78906 -7.85951,-2.15207 -10.43138,-3.02975c-10.79396,-3.68114 -21.65914,-6.15072 -29.10499,-6.61539c-5.89697,-0.36743 -7.43721,-0.68838 -6.11495,-1.27438c2.24886,-0.99557 15.34636,0.33042 23.89506,2.41968l1.98412,0.48445l-1.62441,-3.04524c-1.1086,-2.0772 -2.31001,-3.17861 -3.78263,-3.46689c-4.44737,-0.86909 -10.17959,-1.06269 -13.4018,-0.45347m-31.38118,4.48311c-0.89062,0.48703 -1.61867,1.18919 -1.61867,1.56092c0,1.18058 2.82366,0.47155 3.23517,-0.81316c0.53524,-1.66675 0.27985,-1.78463 -1.61651,-0.74776m3.54019,0.7056c-1.22011,2.33707 -0.32374,3.44623 1.01508,1.25631c0.56113,-0.91727 1.02012,-1.98168 1.02012,-2.3646c0,-1.29761 -1.08846,-0.70474 -2.0352,1.10829m3.67472,-0.52318c0.24532,2.38784 2.67691,2.84561 2.67691,0.50252c0,-0.98095 -0.34315,-1.78378 -0.76185,-1.78378c-0.4187,0 -0.56186,0.38722 -0.31726,0.86048c0.2446,0.47326 0.12878,0.86048 -0.25755,0.86048c-0.3856,0 -0.88487,-0.48359 -1.1086,-1.0756c-0.22373,-0.59115 -0.32805,-0.30548 -0.23165,0.6359m-12.43061,1.73044c0,0.7099 0.48559,1.29072 1.07911,1.29072c0.59352,0 1.07911,-0.58082 1.07911,-1.29072c0,-0.7099 -0.48559,-1.29072 -1.07911,-1.29072c-0.59352,0 -1.07911,0.58082 -1.07911,1.29072m-4.99555,9.13229c-14.98234,1.59103 -27.0072,5.53118 -38.44647,12.59746c-9.05875,5.59657 -15.07443,12.76095 -18.96425,22.58506c-1.59276,4.02276 -3.07402,8.28213 -3.292,9.46529l-0.39567,2.1512l1.21292,-2.10388c6.58831,-11.42118 20.92391,-20.36761 40.06441,-25.00217c6.85377,-1.659 9.44436,-1.8552 19.76926,-1.49467c13.91187,0.48617 21.83036,2.06 32.82144,6.52158c28.95607,11.75505 43.78806,35.81326 52.07201,84.46404c0.76545,4.49602 2.7323,18.24221 4.37111,30.5471c2.42368,18.19747 2.89632,23.59786 2.5359,28.93973c-0.39783,5.88054 -0.21726,7.33562 1.72369,13.914c1.19277,4.04083 2.16829,7.51631 2.16829,7.72368c0,0.20651 -3.62868,0.65139 -8.0631,0.98698c-4.43513,0.33559 -8.56237,0.99557 -9.17243,1.46798c-2.58914,2.00233 17.92687,-0.53867 21.55195,-2.67008c1.85535,-1.09109 2.53734,-21.98446 1.1345,-34.77637c-1.4086,-12.85215 -3.44451,-32.30336 -5.45813,-52.15638c-2.86467,-28.24617 -6.91637,-46.312 -14.09243,-62.83152c-4.83728,-11.13549 -8.90265,-17.47812 -14.84709,-23.16159c-5.84229,-5.58624 -17.45134,-12.56991 -24.28929,-14.61183c-11.31337,-3.3774 -26.20866,-4.27487 -42.40464,-2.55562m73.60598,2.75011c4.42291,3.36792 8.91775,7.80888 10.16448,10.04355c2.64741,4.74383 5.67683,4.12257 3.96752,-0.81401c-1.68268,-4.85742 -8.79761,-10.35246 -13.3198,-10.2862c-1.94671,0.0284 -2.02657,0.13166 -0.8122,1.05668m-91.9911,29.96886c-16.9643,2.56337 -31.14235,10.51939 -40.65433,22.81138c-7.74152,10.00483 -10.25873,18.63632 -12.88743,44.18833c-2.17907,21.18249 -3.00711,40.11998 -2.28843,52.31472c0.34315,5.8203 0.79422,10.78528 1.00285,11.03483c0.20791,0.24955 5.99265,0.04475 12.85506,-0.45519c6.86241,-0.49908 32.64302,-1.35956 57.29058,-1.91284c50.0325,-1.12207 54.41152,-0.87425 59.48908,3.37223c6.1502,5.14309 7.62858,10.20704 7.96597,27.28761c0.13093,6.62572 0.44388,16.88695 0.69495,22.80277c0.28705,6.76167 0.16258,12.29973 -0.33596,14.91301c-0.55106,2.8895 -0.57336,5.64477 -0.07338,9.03505c0.39495,2.68299 1.19061,16.49458 1.76686,30.69253c1.13882,28.04912 0.88487,32.9926 -2.04311,39.87301c-2.09994,4.93487 -4.12795,7.25645 -8.32424,9.53242l-3.23732,1.75539l9.42565,0.01894c8.62711,0.0172 9.6314,-0.14715 11.85293,-1.93781c5.4459,-4.38932 7.64584,-12.33845 6.84083,-24.71821c-0.26186,-4.02276 -0.75898,-14.86483 -1.10429,-24.09348c-0.34604,-9.22867 -1.02587,-18.13465 -1.51147,-19.79109c-0.59639,-2.03676 -0.92875,-10.53316 -1.02731,-26.2447c-0.08058,-12.77815 -0.67552,-33.10704 -1.32299,-45.17529c-0.64674,-12.06825 -1.51795,-29.88024 -1.93592,-39.58217c-1.29493,-30.07213 -4.60275,-51.56695 -9.98103,-64.85624c-9.01558,-22.27529 -24.82165,-35.07067 -49.61596,-40.16558c-8.77027,-1.80186 -23.47132,-2.11506 -32.84158,-0.69957m20.50306,21.14377c-0.59352,0.26159 -1.64384,1.06356 -2.33375,1.78205c-0.94602,0.98524 -4.0445,1.45766 -12.57952,1.91887c-10.33282,0.55845 -11.55581,0.4681 -13.95647,-1.02828c-2.8654,-1.78637 -5.66675,-1.47573 -7.25089,0.80455c-1.23954,1.78378 -1.77117,42.27289 -0.58991,44.9137c0.96616,2.15894 3.63731,2.29835 8.02353,0.4182c2.56755,-1.10055 5.96171,-1.30191 18.41175,-1.09022c11.68602,0.19876 15.47945,0.00171 16.18662,-0.84241c0.98414,-1.17628 1.04385,-3.54691 0.74027,-29.57046c-0.14532,-12.483 -0.37985,-15.45426 -1.30716,-16.56427c-1.12587,-1.3458 -3.2884,-1.64525 -5.34446,-0.74173m-69.49314,33.3867c-0.78128,1.42581 -1.38486,5.29627 -1.77837,11.40139c-0.85321,13.23766 -0.80861,35.28837 0.07553,37.26489c0.90645,2.02557 4.70923,2.25101 6.90701,0.41045c2.63807,-2.21058 3.28049,-7.63591 3.39344,-28.63855c0.1187,-22.21249 0.04029,-22.59711 -4.6416,-22.59711c-2.16685,0 -3.03157,0.47241 -3.95601,2.15894m1.48053,5.69295c-0.823,3.1029 2.63159,4.63885 3.92652,1.74506c0.4892,-1.0928 0.45251,-1.89822 -0.1187,-2.58144c-1.32227,-1.58157 -3.27978,-1.15218 -3.80781,0.83639m-0.52085,32.50557c-0.20719,0.94912 0.0741,2.4214 0.62589,3.27242c0.95968,1.47918 1.04961,1.47228 2.10282,-0.15919c1.43737,-2.22693 1.06831,-4.2525 -0.83379,-4.57863c-1.02372,-0.1764 -1.64024,0.30116 -1.89492,1.4654m102.70521,38.48075c-20.52608,1.46712 -95.33921,5.02952 -109.75754,5.22743c-7.66814,0.10498 -10.2357,3.54776 -11.10546,14.88978l-0.49423,6.45362l4.25025,-0.2831c2.33807,-0.15661 11.51481,0.51886 20.39227,1.49983c21.73972,2.40246 22.34473,2.45496 47.43545,4.16731c34.52284,2.35599 54.50504,1.76398 68.44496,-2.02815c4.93297,-1.34235 4.9344,-1.34322 4.9344,-4.32134c0,-4.84968 -2.16541,-15.99807 -3.77617,-19.44001c-2.57044,-5.49332 -7.748,-7.0637 -20.32392,-6.16534m-112.40711,40.50116c0.69279,0.21683 1.82513,0.21683 2.51793,0c0.69279,-0.21599 0.1259,-0.39324 -1.25896,-0.39324c-1.38486,0 -1.95175,0.17726 -1.25896,0.39324m-8.07029,15.05672c0.01223,3.46086 0.49136,10.16487 1.06472,14.89752c0.67192,5.54838 1.05825,16.09359 1.08775,29.68662c0.02518,11.59499 0.31797,22.76921 0.65106,24.83178c0.71509,4.42631 2.66324,7.85448 5.36389,9.43776c1.07047,0.62816 9.78248,2.08581 19.35921,3.23886c16.71683,2.01353 54.7223,7.82264 75.73757,11.57692c5.51065,0.9844 13.58022,1.99546 17.93262,2.24758c7.84799,0.45347 7.94079,0.43627 11.22704,-2.10731c4.62866,-3.58219 6.57321,-8.64267 6.99981,-18.21296c0.482,-10.83261 -1.30284,-52.10218 -2.50569,-57.93797c-0.99782,-4.83677 -0.97264,-5.13019 0.87264,-10.04785c1.04529,-2.78623 1.72442,-5.40641 1.50931,-5.82288c-0.21798,-0.42163 -2.569,-0.46896 -5.29051,-0.10669c-9.52061,1.2649 -29.59994,0.73657 -53.81872,-1.41722c-12.76226,-1.13498 -47.7527,-3.83775 -56.76038,-4.38416l-9.99902,-0.60664l0.47193,9.38184c0.25971,5.16032 0.65969,11.51153 0.88919,14.11449c0.35682,4.04771 0.19712,5.01145 -1.10429,6.65841c-3.53228,4.47107 -8.33144,3.11752 -9.98679,-2.81721c-0.7489,-2.68384 -0.8007,-5.79535 -0.24244,-14.59721c0.38992,-6.15244 0.81797,-11.76709 0.95177,-12.47699c0.16978,-0.90437 -0.45682,-1.37162 -2.09562,-1.56005l-2.33807,-0.2702l0.02302,6.29356m6.06675,16.28462c-0.93738,3.53227 3.15532,5.44169 4.26319,1.98858c0.65106,-2.02988 -0.33237,-3.8059 -2.10858,-3.8059c-1.07047,0 -1.84672,0.65397 -2.15461,1.81735m220.52297,14.26249l0,14.72714l3.19056,5.03295c1.75463,2.76817 4.71499,6.77543 6.57897,8.90513c1.86398,2.1297 3.82795,5.11814 4.36392,6.64121c1.39205,3.95735 1.20213,12.97952 -0.40358,19.15174c-1.1604,4.45816 -1.21652,5.36854 -0.35827,5.76265c4.84304,2.22262 12.02055,-8.26493 14.05574,-20.53971l0.81293,-4.90302l-3.57688,-5.42275c-4.2783,-6.48718 -10.26304,-17.19329 -17.46069,-31.23721c-2.91071,-5.67918 -5.72215,-10.89284 -6.24731,-11.58553c-0.79783,-1.05236 -0.95536,1.16509 -0.95536,13.4674m-142.30921,6.02251c-1.98484,0.94567 -2.24238,4.64143 -1.47191,21.12225c0.83738,17.90491 1.39492,21.05254 3.93371,22.20732c2.6877,1.22188 34.44514,3.53143 36.39257,2.64598c3.70638,-1.68482 3.83443,-2.45496 3.59272,-21.5327c-0.23957,-18.87036 -0.63307,-21.28747 -3.73875,-22.98519c-1.83808,-1.00418 -36.88896,-2.32417 -38.70833,-1.45766"/>
 </g>
</svg>