<svg width="297" height="214" xmlns="http://www.w3.org/2000/svg" version="1.1">
 <title>Log</title>
 <g>
  <title>Layer 1</title>
  <g id="svg_30">
   <path transform="rotate(-6.99756, 147.407, 107.083)" d="m35.49174,196.16851c0,0 -0.85274,-0.1731 -2,-1c-1.814,-1.30745 -4,-2 -4,-2c-1,0 -1,0 -1,0c0,0 0.70711,-0.29289 0,-1c-0.70711,-0.70711 -2.21167,-0.71413 -5,-3c-2.18735,-1.7932 -4.1731,-3.85274 -5,-5c-1.30745,-1.814 -1,-2 -1,-3c0,0 -1,0 -1,0c0,0 -0.1731,-0.85274 -1,-2c-1.30745,-1.814 -3.34619,-4.70546 -5,-7c-1.30745,-1.814 -2,-4 -3,-6c-1,-2 -1.78985,-4.07843 -3,-7c-0.85571,-2.06586 -1,-4 -2,-6c-1,-2 -1.14429,-3.93414 -2,-6c-1.21015,-2.92157 -1.4588,-4.69344 -2,-6c-0.76537,-1.84776 0,-4 0,-6c0,-2 0,-4 0,-6c0,-3 0.14429,-4.93414 1,-7c1.21015,-2.92157 0.85195,-5.22836 2,-8c0.5412,-1.30656 1.29289,-3.29289 2,-4c0.70711,-0.70711 2,-1 3,-2c0,0 1,-1 2,-2c1,-1 1.69344,-1.4588 3,-2c0.92387,-0.38269 2,-1 4,-2c2,-1 3.82375,-2.48625 6,-3c1.9465,-0.4595 3.07613,-0.61731 4,-1c1.30656,-0.5412 3.07613,-0.61731 4,-1c1.30656,-0.5412 2,-1 3,-1c1,0 3,-1 4,-1c2,0 3,0 4,0c1,0 2.69344,-0.4588 4,-1c0.92387,-0.38268 2.07613,0.38268 3,0c1.30656,-0.5412 1,-1 2,-1c0,0 2,0 5,-1c3,-1 6.15224,-1.23463 8,-2c1.30656,-0.5412 3.02675,-1.77025 4,-2c2.17625,-0.51374 2.07613,-1.61732 3,-2c1.30656,-0.5412 2,-1 4,-2c2,-1 4.186,-1.69255 6,-3c1.14726,-0.8269 2,-1 4,-2c2,-1 3.15224,-2.23463 5,-3c1.30656,-0.5412 2,-2 2,-2c1,-1 1.29289,-1.29289 2,-2c0.70711,-0.70711 1,0 1,0c0,0 0.69344,-1.4588 2,-2c1.84776,-0.76537 3.85274,-1.1731 5,-2c1.814,-1.30745 4,-2 6,-3c2,-1 3.69344,-1.4588 5,-2c0.92387,-0.38268 2.15224,-0.23463 4,-1c1.30656,-0.5412 2.07613,-0.61732 3,-1c1.30656,-0.5412 1.69344,-1.4588 3,-2c0.92387,-0.38268 1.07613,0.38268 2,0c1.30656,-0.5412 2,-1 3,-1c1,0 2,-1 3,-1c1,0 1.82375,-0.48626 4,-1c0.97325,-0.22975 2,0 3,0c1,0 2,0 2,0c1,-1 1,-1 2,-1c1,0 1,0 2,0c0,0 0,0 0,0c0,-1 0,-1 0,-1c0,0 0,0 0,0c-1,-1 -1,-2 -1,-2c0,-1 0,-1 0,-1c0,0 0,0 0,0c-1,0 -0.77023,-0.02675 -1,-1c-0.51373,-2.17625 -1.4588,-2.69344 -2,-4c-0.38269,-0.92388 -1,-1 -1,-2c0,0 0,0 0,0c0,0 -0.61731,-1.07612 -1,-2c-0.5412,-1.30656 -2.4588,-2.69344 -3,-4c-0.38269,-0.92388 -1,-2 -1,-3c0,0 0,0 0,0c0,0 0,-1 0,-1c0,0 0,0 0,0c0,0 0,-1 0,-1c1,-1 1,-1 1,-1c0,0 0,0 0,-1c0,0 -0.30656,-0.45881 1,-1c0.92387,-0.38268 1,-1 2,-2c0,0 1,-1 1,-1c0,0 0.61731,-0.07612 1,-1c0.5412,-1.30656 2,-1 3,-1c0,0 1,-1 1,-1c0,0 1.07611,0.38268 2,0c1.30655,-0.54119 1,-1 2,-1c0,0 0,0 0,0c1,0 1,0 2,0c0,0 0,0 1,0c0,0 0,0 0,0c0,0 0,0 0,0c0,1 0,1 0,1c0,0 -0.70709,0.29289 0,1c0.70709,0.70711 0.29291,0.29289 1,1c0.70709,0.70711 1,0 1,0c0,0 0,0 0,0c1,0 1,1 2,1c0,0 0,0 0,0c0,0 0,0 0,0c0,0 0,1 0,1c0,0 0,0 0,0c0,0 0,0 0,0c0,1 0,1 0,1c0,0 0,0 1,1c0,0 1,1 1,1c0,1 0,1 0,1c1,0 1.29291,0.29289 2,1c0.70709,0.70711 0.29291,0.29289 1,1c0.70709,0.70711 0,1 0,1c0,0 1,0 1,0c1,1 1.07611,1.61732 2,2c1.30655,0.5412 1,1 1,1c0,1 0,1 0,1c1,1 2.07611,1.61732 3,2c1.30655,0.5412 1,1 1,1c0,0 0,1 0,1c0,0 0,0 0,0c0,0 0,0 0,1c0,0 0.69345,-0.4588 2,-1c3.69553,-1.53073 7.07843,-0.78985 10,-2c2.06586,-0.85571 3.29291,-0.29289 4,-1c0.70709,-0.70711 1.07611,-0.61732 2,-1c1.30655,-0.5412 1.07611,-0.61732 2,-1c1.30655,-0.5412 1.69345,-1.4588 3,-2c0.92389,-0.38268 2,-1 2,-1c1,-1 2.07611,-0.61732 3,-1c1.30655,-0.5412 1.69345,-1.45881 3,-2c0.92389,-0.38268 1,0 2,0c1,0 2,-1 3,-1c1,0 2,0 3,-1c0,0 1.29291,0.70711 2,0c0.70709,-0.70711 0,-1 0,-1c0,0 0.29291,-0.29289 1,-1c0.70709,-0.70711 2.4588,-0.69344 3,-2c0.38269,-0.92388 0.69345,-1.45881 2,-2c0.92389,-0.38268 1,-1 2,-1c0,0 -0.70709,-0.29289 0,-1c0.70709,-0.70711 1.29291,0.70711 2,0c0.70709,-0.70711 1,-1 2,-1c0,0 0,0 1,-1c0,0 0.29291,-0.29289 1,-1c0.70709,-0.70711 1,-1 1,-1c0,0 0,0 1,0c0,0 0,0 0,0c0,0 1,0 1,0c1,-1 1,-1 2,-1c0,0 0,0 1,-1c0,0 1,0 1,0c0,-1 1,-1 1,-1c0,0 0,0 1,0c1,0 3,0 4,0c2,0 3,0 5,0c1,0 3,0 4,0c2,0 4,0 5,0c1,0 2,0 4,0c2,0 3,0 5,0c1,0 2.07611,-0.38268 3,0c1.30655,0.54119 1.69345,1.45881 3,2c0.92389,0.38268 2.07611,0.61732 3,1c1.30655,0.54119 1,1 2,2c1,1 1.4588,0.69344 2,2c0.38269,0.92388 1,2 2,3c1,1 1,2 2,3c1,1 1,2 2,3c1,1 2,2 2,2c1,1 1,2 2,3c1,1 2.4588,1.69344 3,3c0.38269,0.92388 0.61731,2.07612 1,3c0.5412,1.30656 1.61731,1.07612 2,2c0.5412,1.30656 1,1 2,2c0,0 0.4588,0.69344 1,2c0.38269,0.92388 0.4588,0.69344 1,2c0.38269,0.92388 0.48627,1.82375 1,4c0.22977,0.97325 0.77023,2.02675 1,3c0.51373,2.17625 1,3 1,4c0,1 1,2 1,4c0,1 1,2 1,3c0,1 0,2 0,3c0,1 0.4588,0.69344 1,2c0.38269,0.92388 0,2 0,3c0,1 0,2 0,2c0,0 0,0 0,1c0,0 0,1 0,3c0,1 0,3 0,4c0,1 0,2 0,2c0,1 0,1 0,2c0,1 0,2 0,2c0,1 0,1 0,2c0,0 0,0 0,1c0,1 -1,2 -1,3c0,1 -0.07611,0.61731 -1,1c-1.30655,0.5412 -2.186,0.69255 -4,2c-1.14728,0.8269 -1.29291,1.29289 -2,2c-0.70709,0.70711 -1,0 -1,0c0,0 -2,0 -4,1c0,0 -2.07611,0.61731 -3,1c-1.30655,0.5412 -2.07611,1.61731 -3,2c-1.30655,0.5412 -2.07611,1.61731 -3,2c-1.30655,0.5412 -2,1 -3,2c-1,1 -2.29291,0.29289 -3,1c-0.70709,0.70711 -1,1 -1,1c0,0 -1,0 -1,0c-1,1 -1.82376,1.48625 -4,2c-0.97324,0.22975 -3.07611,0.61731 -4,1c-1.30655,0.5412 -3.07611,0.61731 -4,1c-1.30655,0.5412 -2.15225,1.23463 -4,2c-1.30655,0.5412 -3.07611,1.61731 -4,2c-1.30655,0.5412 -2.07611,0.61731 -3,1c-1.30655,0.5412 -2,1 -3,2c-1,1 -1.69345,1.4588 -3,2c-0.92389,0.38269 -2,1 -3,1c-1,0 -1.07611,0.61731 -2,1c-1.30655,0.5412 -1.69345,1.4588 -3,2c-0.92389,0.38269 -2.07611,0.61731 -3,1c-1.30655,0.5412 -1.69345,1.4588 -3,2c-0.92389,0.38269 -2,1 -2,1c-1,1 -1.69345,1.4588 -3,2c-0.92389,0.38269 -1,0 -1,0c-1,0 -1,0 -1,0c0,0 0,0 0,0c-2,1 -2.69345,1.4588 -4,2c-0.92389,0.38269 -1,1 -2,1c0,0 0,0 0,0c-1,1 -2.07611,1.61731 -3,2c-1.30655,0.5412 -2,1 -3,2c0,0 0,0 0,0c0,0 0.30655,0.4588 -1,1c-0.92389,0.38269 -2.82376,1.48625 -5,2c-0.97324,0.22975 -2,1 -2,1c0,0 -1,0 -1,0c-2,1 -3,1 -3,1c0,0 -1,0 -1,0c0,0 0.30655,0.4588 -1,1c-1.84775,0.76537 -3,0 -4,0c0,0 0,0 -1,0c0,0 0,0 -1,0c0,0 0,0 0,0c0,0 0,0 0,0c0,0 0,0 0,0c-1,0 -1,-1 -1,-1c0,0 0,0 0,0c1,0 1,0 0,0c0,0 0,0 0,0c0,0 0,0 0,0c0,0 -1,0 -1,0c0,0 0,0 0,0c0,0 0,0 0,0c-1,0 -2,0 -3,0c0,0 -1,0 -1,0c0,0 0,0 0,0c0,0 0,0 0,0c-1,1 -1.69345,1.4588 -3,2c-0.92389,0.38269 -1,0 -2,1c0,0 0,0 0,0c0,0 0,0 0,0c0,0 -1,1 -2,1c-1,0 -1,1 -2,1c0,0 0,0 0,0c0,0 0,0 -1,0c-1,0 -2,1 -3,1c0,0 0,0 0,0c0,0 0,0 0,0c-1,0 -1,1 -2,1c0,0 -1,0 -2,1c0,0 0,0 0,0c0,0 0,0 0,0c0,0 -1,0 -2,1c0,0 0,1 0,1c0,0 0,0 0,0c0,0 0,0 0,0c0,0 0,0 0,1c0,0 0,0 0,1c0,0 0,0 0,0c0,1 0,1 -1,1c0,0 0,1 0,2c0,1 0,2 0,2c0,0 0,0 -1,0c0,0 0,0 0,0c-1,0 -2.186,-0.30745 -4,1c-1.14728,0.8269 -3,2 -4,2c-1,0 -1,0 -1,0c-1,0 -0.69345,0.4588 -2,1c-1.84775,0.76537 -3,1 -5,1c0,0 0,1 0,1c-1,0 -1,0 -1,0c0,0 0.17624,0.48625 -2,1c-0.97325,0.22975 -3,1 -4,1c0,0 0,1 0,1c-1,0 -1,0 -1,0c-1,0 -2.69344,1.4588 -4,2c-1.84776,0.76537 -2,1 -2,1c-1,0 -1,0 -1,0c0,0 0.30656,0.4588 -1,1c-1.84776,0.76537 -3,1 -3,1c-1,0 -1,0 -1,0c0,0 -0.07613,-0.38269 -1,0c-1.30656,0.5412 -1.69344,1.4588 -3,2c-1.84776,0.76537 -2,0 -2,0c0,1 -1,1 -1,1c0,0 -1.07843,-0.21014 -4,1c-2.06586,0.85571 -3,2 -4,2c0,0 0,0 0,0c0,0 -1.186,-0.30745 -3,1c-1.14726,0.8269 -2,1 -3,1c0,0 0,0 0,0c0,0 0,1 0,1c0,0 -1.02675,-0.22975 -2,0c-2.17625,0.51375 -4,2 -5,2c0,0 0,0 -1,0c0,0 0,0 0,0c-1,0 -3.04132,0.84723 -7,2c-3.03616,0.88414 -5.07613,0.61731 -6,1c-1.30656,0.5412 -1.02675,0.77025 -2,1c-2.17625,0.51375 -4.07613,0.61731 -5,1c-1.30656,0.5412 -2,1 -3,1c-2,0 -3,1 -3,1c-1,0 -1,0 -1,0c-2,0 -4,1 -5,1c-2,0 -3,1 -3,1c0,0 -1,0 -3,0c-2,0 -4,0 -5,0c-1,0 -2,0 -2,0c0,0 -1,0 -2,0c-1,0 -1,0 -1,0c0,0 -1,0 -1,0c-1,0 -2,0 -2,0c0,0 -1,0 -1,0c0,0 0,0 0,0c-1,-1 -1,-1 -1,-1c0,0 0,0 0,0c-1,-1 -1,-1 -1,-2c0,0 -1,0 -1,-1c0,0 -1,0 -1,0c0,0 0,0 0,0c0,0 0,0 -1,-1c0,0 -1,0 -2,0c0,0 -1,0 -1,0c0,0 0,-1 0,-1c-1,0 -2,0 -3,0c0,0 -1,-1 -1,-1c0,0 0,0 0,0c0,0 -1,-1 -1,-1c0,0 0,-1 -1,-1c0,0 0,0 -1,0c0,0 0,0 -1,0c0,0 -0.29289,0.70711 -1,0c-0.70711,-0.70711 0,-1 -1,-1c0,0 0,-1 0,-1c0,0 0,0 0,0l0,0" id="svg_6" stroke-width="4" stroke="#422C10" fill="#845335"/>
   <ellipse transform="rotate(-38.7077, 52.9917, 158.669)" ry="51.15896" rx="41.62396" id="svg_29" cy="158.66851" cx="52.99174" stroke-width="4" fill="#997141"/>
   <path d="m20.49174,144.16851c0,0 0,0 0,0c0,0 0,0 0,1c0,0 0,0 0,1c0,1 0,2 0,2c0,0 0,1 0,1c0,0 0,0 0,0c0,1 -1,2 -1,4c0,1 0,2 0,3c0,1 0,2 0,2c0,1 0,2 0,3c0,1 0,3 0,3c0,1 0,1 0,2c0,1 0.4588,1.69345 1,3c0.38268,0.92389 0,2 1,3c0,0 0.29289,1.29291 1,2c0.70711,0.70709 1,1 1,1c0,1 0.29289,1.29291 1,2c0.70711,0.70709 1.07612,0.61731 2,1c1.30656,0.5412 2,2 2,2c1,1 1.29289,1.29291 2,2c0.70711,0.70709 1.29289,0.29291 2,1c0.70711,0.70709 1,1 2,2c0,0 1,1 1,1c1,1 1.07612,0.61731 2,1c1.30656,0.5412 0.69344,1.4588 2,2c0.92388,0.38269 1.69344,1.4588 3,2c0.92388,0.38269 2,1 3,1c1,0 2,1 3,1c1,0 2,0 3,0c2,0 3,0 4,0c1,0 2.02675,0.22977 3,0c2.17625,-0.51373 2.69344,-2.4588 4,-3c0.92388,-0.38269 1.85273,-1.1731 3,-2c1.814,-1.30746 3,-2 4,-4c1,-2 2.1731,-2.85272 3,-4c1.30745,-1.814 1.29289,-2.29291 2,-3c1.41422,-1.41422 0.48625,-3.82376 1,-6c0.68925,-2.91974 0,-5 0,-8c0,-3 1.14806,-5.22836 0,-8c-0.5412,-1.30655 -1.1731,-2.85272 -2,-4c-1.30745,-1.814 -0.69255,-3.186 -2,-5c-0.8269,-1.14728 -1,-2 -2,-3c-1,-1 -1.77025,-2.02676 -2,-3c-0.51374,-2.17624 -2,-3 -3,-4c-1,-1 -2.85273,-2.1731 -4,-3c-1.814,-1.30746 -3.0535,-1.5405 -5,-2c-2.17625,-0.51373 -3.82375,-1.48627 -6,-2c-1.9465,-0.4595 -3,0 -5,0c-1,0 -2,0 -3,0c0,0 -1,0 -2,0c-1,0 -2,0 -2,0c-1,1 -1,1 -1,1c0,0 0,0 0,1c0,0 0,0 0,0c0,1 0,2 0,2l0,0l0,0l0,0" id="svg_12" stroke-width="4" stroke="#422C10" fill="none"/>
   <path d="m35.49174,154.16851c0,0 0,0 0,1c0,1 0,2 0,2c0,1 0,2 0,2c0,1 0,1 0,1c0,1 1,1 1,3c0,1 1,1 1,2c0,1 0,1 0,1c0,0 1.4588,-0.30655 2,1c0.38268,0.92389 0.29289,3.29291 1,4c0.70711,0.70709 1,1 1,1c0,0 0.29289,-0.70709 1,0c0.70711,0.70709 0.29289,1.29291 1,2c0.70711,0.70709 1,1 2,1c0,0 1,0 2,0c2,0 3,0 4,0c1,0 2,0 2,0c1,0 2,-1 4,-3c1,-1 1.23463,-2.15225 2,-4c0.5412,-1.30655 2,-2 2,-4c0,0 0,-1 0,-2c0,-1 0,-3 0,-6c0,-2 0.70711,-3.29291 0,-4c-0.70711,-0.70709 -1,-1 -2,-2c-1,-1 -0.69344,-2.4588 -2,-3c-0.92388,-0.38269 -1.02675,-0.77023 -2,-1c-2.17625,-0.51373 -2.82375,-1.48627 -5,-2c-0.97325,-0.22977 -2,0 -3,0c0,0 -1,0 -2,0c0,0 0,0 -1,1c0,0 -1,1 -1,1c0,0 0,1 0,1c0,0 0,1 0,1c0,0 0,0 0,0c0,1 0,1 0,1c0,1 1,1 1,1c0,0 -0.70711,0.29291 0,1c0.70711,0.70709 1,1 1,1c1,1 1,1 1,2c0,0 0,0 0,0c1,0 1,0 1,0l0,0l0,0l1,0" id="svg_13" stroke-width="4" stroke="#422C10" fill="none"/>
   <path d="m70.49174,206.16851c0,0 1,0 2,-1c1,-1 1.85274,-2.1731 3,-3c1.814,-1.30746 3.186,-1.69254 5,-3c1.14726,-0.8269 2,-2 3,-3c1,-1 2,-2 3,-3c1,-1 2,-2 3,-3c1,-1 1.61731,-2.07611 2,-3c0.5412,-1.30655 1.4588,-1.69345 2,-3c0.38269,-0.92389 1,-3 1,-4c0,-1 1,-2 1,-2c0,-1 0,-1 0,-3c0,-2 1,-4 1,-6c0,-2 0,-4 0,-5c0,-1 0,-3 0,-5c0,-1 0,-2 0,-4c0,-1 0,-2 0,-4c0,-1 0.38269,-3.07611 0,-4c-0.5412,-1.30655 -1,-3 -1,-4c0,-1 0,-2 0,-2c-1,-1 -1,-1 -1,-1c-1,-1 -1,-3 -2,-4c-1,-1 -1.4588,-1.69345 -2,-3c-0.38269,-0.92389 -1.4588,-1.69345 -2,-3c-0.38269,-0.92389 -0.09789,-1.82443 -2,-3c-0.85065,-0.52573 -1,-1 -2,-2c-1,-1 -1,-1 -2,-1c0,0 0.70711,-0.29291 0,-1c-0.70711,-0.70709 -1.29289,-0.29291 -2,-1c-0.70711,-0.70709 -2,-1 -2,-1c-1,0 -1,0 -1,0c-1,0 -1,-1 -2,-1c-1,0 -2,0 -3,-1c0,0 0,0 0,0c-1,0 -1,0 -1,0c0,0 -1,0 -1,0c-1,0 -1,0 -2,0c0,0 0,0 0,0l0,0l0,0" id="svg_14" stroke-width="4" stroke="#422C10" fill="none"/>
   <path d="m153.49174,46.16851c0,0 -1,0 -1,0c-1,0 -2,-1 -2,-1c-1,0 -1,0 -1,-1c0,0 0,0 0,0c0,0 -0.29289,0.70711 -1,0c-0.70711,-0.70711 -1,-1 -1,-1c-1,-1 -1,-1 -1,-1c0,0 0,0 0,0c-1,-1 -2,-2 -2,-2c-1,0 -1,-1 -1,-1c0,0 0,0 0,-1c0,0 -1,0 -1,0c0,0 0,0 0,0l0,0l0,0" id="svg_16" stroke-width="4" stroke="#422C10" fill="none"/>
   <path d="m66.49174,208.16851c0,0 0,1 0,1c-1,0 -1,0 -1,0c0,0 0,0 -1,0c-1,0 -1,0 -1,0c-1,0 -1,1 -1,1c0,0 1,0 1,0c0,-1 1,-1 1,-1c0,0 1,0 2,-1c0,0 1,-1 2,-2c1,-1 2,-1 3,-2c0,0 1.07613,0.38269 2,0c1.30656,-0.5412 1,-1 2,-1c0,0 1,-1 1,-1c1,-1 2,-1 3,-2c0,0 0.29289,0.70709 1,0c0.70711,-0.70709 0,-1 0,-1c1,0 1,0 1,0c0,0 0,-1 0,-1c1,0 1,0 1,0c0,-1 0,-1 1,-2c0,0 0,0 0,0c0,-1 0,-1 0,-1c0,0 0,0 0,0c1,0 2,-1 2,-1c0,0 0,0 0,0c1,-1 1,-1 1,-1c0,-1 0,-1 1,-1c0,0 0,0 0,0c0,0 0.29289,-0.29291 1,-1c0.70711,-0.70709 0,-1 0,-1c0,0 0,0 1,-1c0,0 -0.70711,-0.29291 0,-1c0.70711,-0.70709 1,0 1,0c0,0 0.29289,-0.29291 1,-1c0.70711,-0.70709 0,-1 1,-1c0,0 0,0 0,-1c0,0 1,-1 1,-1c1,0 1,-1 1,-1l0,0" id="svg_17" stroke-width="4" stroke="#422C10" fill="none"/>
   <path d="m127.49174,168.16851c0,0 1,0 2,0c1,0 1,0 1,0c1,-1 1.82375,-1.48627 4,-2c0.97325,-0.22977 2.69344,-1.4588 4,-2c0.92387,-0.38269 2,-1 2,-1c1,-1 0.69344,-1.4588 2,-2c0.92387,-0.38269 1,-1 1,-1c0,0 0,-1 0,-1c1,0 0.61731,-1.07611 1,-2c0.5412,-1.30655 1,-2 1,-3c0,0 0.29289,0.70709 1,0c0.70711,-0.70709 -0.70711,-1.29291 0,-2c0.70711,-0.70709 1,-1 1,-1c0,0 -0.70711,-0.29291 0,-1c0.70711,-0.70709 0.29289,-0.29291 1,-1c0.70711,-0.70709 1,-1 1,-1c0,0 1,0 1,0c0,0 0,-1 0,-1c0,0 0,0 0,0c0,0 0,0 0,-1c0,0 1,0 1,0c0,0 0,0 0,0c1,-1 1,-1 1,-1c1,-1 1,-1 1,-1c0,0 0.29289,-1.29291 1,-2c0.70711,-0.70709 0.29289,-1.29291 1,-2c0.70711,-0.70709 1,0 1,-1c0,0 0.61731,-0.07611 1,-1c0.5412,-1.30655 2,-1 2,-1c0,-1 1,-1 1,-1c1,-1 1.4588,-0.69345 2,-2c0.38269,-0.92389 1,-2 1,-2c1,-1 1.29289,-1.29291 2,-2c0.70711,-0.70709 1.4588,0.30655 2,-1c0.38269,-0.92389 1,-1 2,-2c0,0 1.07613,-0.61731 2,-1c1.30656,-0.5412 2,-1 2,-1c1,-1 2.07613,-0.61731 3,-1c1.30656,-0.5412 3.07613,-0.61731 4,-1c1.30656,-0.5412 3.07613,-0.61731 4,-1c1.30656,-0.5412 3,-1 4,-1c1,0 2,0 3,0c1,0 2,0 2,0c1,0 2,0 2,0c1,0 2,0 3,0c0,0 1,0 1,0c0,0 1,0 1,0c1,0 2,0 3,0c1,0 2,0 3,0c0,0 1.29291,0.70709 2,0c0.70709,-0.70709 1.29291,-0.29291 2,-1c0.70709,-0.70709 1.07611,-0.61731 2,-1c1.30655,-0.5412 2.29291,-1.29291 3,-2c0.70709,-0.70709 0.69345,-2.4588 2,-3c0.92389,-0.38269 2,-1 3,-2c1,-1 2.07611,-1.61731 3,-2c1.30655,-0.5412 2.186,-0.69254 4,-2c1.14728,-0.8269 2.07611,-0.61731 3,-1c1.30655,-0.5412 2,-1 3,-2c0,0 1,-1 2,-1l0,0" id="svg_18" stroke-width="4" stroke="#422C10" fill="none"/>
   <path d="m272.49174,61.16851c0,0 0,0 -1,0c-1,0 -2,1 -3,1c-1,0 -2.07611,0.61731 -3,1c-1.30655,0.5412 -2.15225,1.23463 -4,2c-1.30655,0.5412 -1.85272,2.1731 -3,3c-1.814,1.30745 -3,1 -4,2c-1,1 -2.69345,2.4588 -4,3c-0.92389,0.38269 -2,1 -3,2c0,0 -1.29291,0.29289 -2,1c-0.70709,0.70711 0,1 0,1c0,0 -1,0 -1,0c0,0 0,1 -1,2c-1,1 -3.4588,1.69344 -4,3c-0.38269,0.92387 0,1 0,1c-1,0 -1,0 -1,0c0,0 0,0 0,0c-2,1 -3.70547,2.34619 -6,4c-1.814,1.30745 -3.4588,0.69344 -4,2c-0.38269,0.92387 0,1 0,1c0,0 -1,0 -1,0c0,0 0,0 0,0c-2,1 -3.186,1.69255 -5,3c-2.29453,1.65381 -3,2 -3,3c0,0 -1,1 -1,1c0,0 0,0 0,0c-1,0 -1.82376,1.48625 -4,2c-0.97324,0.22975 -1,1 -1,1c-1,0 -1,0 -1,0l1,0" id="svg_19" stroke-width="4" stroke="#422C10" fill="none"/>
   <path d="m117.49174,127.23111c0.8871,0 0.96322,0.4387 2.66129,0c3.06124,-0.79088 2.86475,-1.00823 6.20968,-2.27084c2.92505,-1.10412 5.48758,-2.03811 7.09677,-3.02779c1.01773,-0.62592 2.38934,-1.86118 3.54839,-2.27084c0.81957,-0.28968 1.50224,-1.10423 2.66129,-1.51389c0.81957,-0.28968 0.61514,-1.10423 1.77419,-1.51389c0.81957,-0.28968 1.43471,-0.81456 1.77419,-1.51389c0.4801,-0.98899 1.77419,-1.51389 2.66129,-2.27084c0.8871,-0.75695 2.18119,-1.28185 2.66129,-2.27084c0.33948,-0.69933 0.61514,-1.86118 1.77419,-2.27084c0.81957,-0.28968 0.8871,-0.75695 1.77419,-1.51389c0.8871,-0.75695 1.77419,-1.51389 2.66129,-2.27084c0.8871,-0.75695 1.14692,-0.22172 1.77419,-0.75695c0.62727,-0.53523 -0.33948,-0.05761 0,-0.75695c0.4801,-0.98899 1.77419,-1.51389 2.66129,-2.27084c0.8871,-0.75695 1.50224,-1.86118 2.66129,-2.27084c0.81957,-0.28968 1.77419,-0.75695 2.66129,-1.51389c0.8871,-0.75695 1.50224,-1.10423 2.66129,-1.51389c0.81957,-0.28968 1.77419,-0.75695 1.77419,-0.75695c0,0 0.8871,0 1.77419,-0.75695l0.8871,0l0,-0.75695l0.8871,0" id="svg_20" stroke-width="4" stroke="#422C10" fill="none"/>
   <path d="m183.49174,104.16851c0,-1 1,-1 2,-2c1,-1 0.69255,-1.186 2,-3c0.8269,-1.14726 2.14935,-1.47427 3,-2c1.90211,-1.17557 2.14935,-2.47427 3,-3c1.9021,-1.17557 2.4588,-2.69344 3,-4c0.76538,-1.84776 0.69254,-3.186 2,-5c0.8269,-1.14726 1.77023,-2.02675 2,-3c0.51373,-2.17625 1,-3 2,-4c1,-1 2,-3 3,-4c1,-1 2.4588,-2.69344 3,-4c0.38269,-0.92387 1,-1 2,-2c1,-1 1,-1 2,-2c1,-1 2.85272,-2.1731 4,-3c1.814,-1.30745 3.85272,-2.1731 5,-3c1.814,-1.30745 3.15225,-1.23463 5,-2c1.30655,-0.5412 3,-2 5,-3c0,0 2.07611,-0.61731 3,-1c1.30655,-0.5412 2.4588,-0.69344 3,-2c0.38269,-0.92387 1.07611,-0.61731 2,-1c1.30655,-0.5412 1,-1 2,-1c0,0 0,0 0,0l0,0l1,0l0,-1" id="svg_21" stroke-width="4" stroke="#422C10" fill="none"/>
   <path d="m269.49174,47.16851c0,0 0,0 -1,0c-1,0 -2.07611,-0.38269 -3,0c-1.30655,0.5412 -3,2 -3,2c-1,0 -1.07611,0.61731 -2,1c-1.30655,0.5412 -2.4588,0.69344 -3,2c-0.38269,0.92387 -1,1 -1,2c0,0 -1,0 -1,0c-2,1 -2.82376,2.48625 -5,3c-0.97324,0.22975 -1,1 -1,1c0,0 0,0 0,1l0,0" id="svg_22" stroke-width="4" stroke="#422C10" fill="none"/>
   <path d="m242.49174,23.16851c0,0 0,0 -1,0c-1,0 -2,0 -2,0c-2,0 -2,0 -3,0c0,0 -1.02676,0.77025 -2,1c-2.17624,0.51375 -4,2 -6,3c-2,1 -4.186,1.69255 -6,3c-1.14728,0.8269 -3.07611,1.61731 -4,2c-1.30655,0.5412 -2.69345,2.4588 -4,3c-0.92389,0.38269 -3,1 -5,2c-2,1 -5.07611,1.61731 -6,2c-1.30655,0.5412 -3.07611,1.61731 -4,2c-1.30655,0.5412 -3.07611,1.61731 -4,2c-1.30656,0.5412 -2.07613,1.61731 -3,2c-1.30656,0.5412 -1.69344,1.4588 -3,2c-0.92387,0.38269 -2,1 -3,2c0,0 -1.07613,0.61731 -2,1c-1.30656,0.5412 -1.02675,1.77025 -2,2c-2.17625,0.51375 -2.186,1.69255 -4,3c-1.14726,0.8269 -1,1 -1,1c0,1 -1,1 -1,1c0,0 0,0 0,0c-1,1 -1.41885,2.41885 -3,4c-1.58115,1.58115 -2,1 -3,2c0,0 0,0 0,0c0,0 -1.07613,0.61731 -2,1c-1.30656,0.5412 -3.4588,1.69344 -4,3c-0.38269,0.92387 -1,1 -1,1c0,1 0,1 0,1c0,0 0.30656,0.4588 -1,1c-1.84776,0.76537 -2.61731,1.07613 -3,2c-0.5412,1.30656 -2,1 -2,2l0,0" id="svg_23" stroke-width="4" stroke="#422C10" fill="none"/>
   <path d="m164.49174,160.16851c0,0 0,-1 0,-1c0,0 0,-1 0,-1c0,0 0,-1 0,-1c0,0 0,-1 0,-2c0,-1 0,-1 0,-2c0,0 0,0 0,0c0,0 0,0 0,-1c0,0 0,-1 0,-1c0,-1 0,-1 0,-2c0,0 0,0 0,-1c0,0 0,0 0,0c0,0 0,-1 0,-1c0,-1 1,-1 1,-2c0,0 0.29289,-0.29291 1,-1c0.70711,-0.70709 1,-1 1,-1c1,0 1,0 1,0c0,0 1,-1 1,-1c1,0 1,0 1,0c1,-1 1,-1 2,-1c0,0 1,-1 1,-1c0,0 1,0 1,0c1,0 1.29289,-0.29291 2,-1c0.70711,-0.70709 2,0 3,0c1,0 1,0 2,0c0,0 0,-1 1,-1c0,0 1,0 1,0c0,0 0,0 1,0c0,0 1,0 1,0c1,0 1,0 1,0c1,0 1,0 1,0c0,0 0,0 0,0c1,0 1,0 1,0c0,0 0,0 0,0c1,0 1,0 1,0c0,0 0,0 0,0c1,0 1,0 1,0c0,0 -0.70711,0.29291 0,1c0.70711,0.70709 1,0 1,0c0,0 0,0 0,1c0,0 1,0 1,0c0,0 0,0 0,0c0,1 0,1 0,1c0,0 0,0 0,0c0,0 0.29289,-0.70709 1,0c0.70711,0.70709 0,1 0,1c0,0 0,0 0,0c1,0 1,0 1,0c0,0 0,0 0,0c0,0 0,0 0,0l0,0" id="svg_24" stroke-width="4" stroke="#422C10" fill="none"/>
   <path d="m79.49174,102.16851c1,0 1,0 2,0c2,0 2,0 4,0c2,0 3,0 5,0c2,0 3.07613,-0.38269 4,0c1.30656,0.5412 1.29289,1.29291 2,2c0.70711,0.70709 2,1 2,1c0,0 0,0 1,0c0,0 1,0 1,0c1,0 1,0 2,0c1,0 1,0 2,0c0,0 1,0 1,0c0,0 0,0 1,0c0,0 0,0 1,0c1,0 3.15224,-0.23462 5,-1c1.30656,-0.5412 1.82375,-1.48627 4,-2c0.97325,-0.22977 2,-1 3,-1c1,0 2.07613,-0.61731 3,-1c1.30656,-0.5412 1.07613,-0.61731 2,-1c1.30656,-0.5412 1,-2 2,-2c0,0 1,-1 1,-2c0,0 0.61731,-0.07613 1,-1c0.5412,-1.30656 1.4588,-0.69344 2,-2c0.38269,-0.92387 1,-2 1,-2c1,-1 1,-2 1,-2c0,0 0.29289,0.70711 1,0c0.70711,-0.70711 1.29289,-1.29289 2,-2c0.70711,-0.70711 0,-1 0,-1c0,0 0,-1 1,-1c0,0 1,-1 1,-1c0,0 -0.70711,-0.29289 0,-1c0.70711,-0.70711 1,0 2,-1c0,0 0,0 1,0l0,0" id="svg_25" stroke-width="4" stroke="#422C10" fill="none"/>
   <path d="m96.49174,170.16851c0,0 1,-1 1,-1c1,0 1,-1 2,-1c0,0 0,0 1,-1c0,0 0.29289,0.70709 1,0c0.70711,-0.70709 0.29289,-0.29291 1,-1c0.70711,-0.70709 1,-1 1,-2c0,0 0.29289,0.70709 1,0c0.70711,-0.70709 0.29289,-0.29291 1,-1c0.70711,-0.70709 0,-1 1,-1c2.92387,-2.38269 4,-3 4,-4c0,0 0,0 1,0c0,0 1.29289,-0.29291 2,-1c0.70711,-0.70709 1,-1 1,-1c1,-1 1,-1 1,-1c0,0 0,0 0,0c0,0 1,0 1,0l-1,0l0,0" id="svg_26" stroke-width="4" stroke="#422C10" fill="none"/>
   <path id="svg_28" d="m106.49174,163.16851" opacity="NaN" stroke-width="4" stroke="#422C10" fill="none"/>
  </g>
 </g>

</svg>