<svg width="70" height="70" xmlns="http://www.w3.org/2000/svg" version="1.1">
 <title>Log</title>

 <g>
  <title>Layer 1</title>
  <g id="svg_1">
   <path fill="#845335" stroke="#422C10" id="svg_6" d="m11.25817,60.9942c0,0 -0.20337,-0.01847 -0.49394,-0.20365c-0.45944,-0.29279 -0.98788,-0.4073 -0.98788,-0.4073c-0.23269,0.03313 -0.23269,0.03313 -0.23269,0.03313c0,0 0.15617,-0.10248 -0.02856,-0.26991c-0.18473,-0.16743 -0.53503,-0.11948 -1.24913,-0.64407c-0.56019,-0.41153 -1.08107,-0.90163 -1.30625,-1.18389c-0.35604,-0.44629 -0.28981,-0.50668 -0.31837,-0.77659c0,0 -0.23269,0.03313 -0.23269,0.03313c0,0 -0.06463,-0.22442 -0.28981,-0.50668c-0.35604,-0.44629 -0.91301,-1.15918 -1.36337,-1.7237c-0.35604,-0.44629 -0.57962,-1.01337 -0.86943,-1.52005c-0.28981,-0.50668 -0.53296,-1.0415 -0.89799,-1.78995c-0.25812,-0.52924 -0.34693,-1.04649 -0.63674,-1.55318c-0.28981,-0.50668 -0.37863,-1.02394 -0.63674,-1.55318c-0.36503,-0.74846 -0.47349,-1.21846 -0.63674,-1.55318c-0.23087,-0.47337 -0.11424,-1.07962 -0.17136,-1.61943c-0.05712,-0.53981 -0.11424,-1.07962 -0.17136,-1.61943c-0.08568,-0.80972 -0.10735,-1.33653 0.03277,-1.92247c0.19815,-0.82864 0.04891,-1.43939 0.23689,-2.2255c0.08862,-0.37058 0.20679,-0.9316 0.35114,-1.14588c0.14434,-0.21428 0.43682,-0.33616 0.64095,-0.6392c0,0 0.20413,-0.30303 0.40826,-0.60607c0.20413,-0.30303 0.35238,-0.44984 0.64095,-0.6392c0.20404,-0.1339 0.43682,-0.33616 0.87364,-0.67233c0.43682,-0.33616 0.81874,-0.79773 1.31045,-1.00849c0.43981,-0.18851 0.69815,-0.26852 0.9022,-0.40242c0.28857,-0.18936 0.69815,-0.26852 0.9022,-0.40242c0.28857,-0.18936 0.43682,-0.33616 0.66951,-0.36929c0.23269,-0.03313 0.66951,-0.36929 0.9022,-0.40242c0.46538,-0.06626 0.69807,-0.09939 0.93076,-0.13251c0.23269,-0.03313 0.61363,-0.21306 0.9022,-0.40242c0.20404,-0.13389 0.49402,0.03451 0.69807,-0.09939c0.28857,-0.18936 0.20413,-0.30303 0.43682,-0.33616c0,0 0.46538,-0.06626 1.13489,-0.43555c0.66951,-0.36929 1.3963,-0.53705 1.80439,-0.80484c0.28857,-0.18936 0.65373,-0.57807 0.87364,-0.67233c0.49172,-0.21076 0.4369,-0.5053 0.64095,-0.6392c0.28857,-0.18936 0.43682,-0.33616 0.87364,-0.67233c0.43682,-0.33616 0.9257,-0.5955 1.31045,-1.00849c0.24334,-0.26119 0.43682,-0.33616 0.87364,-0.67233c0.43682,-0.33616 0.66967,-0.70757 1.07776,-0.97536c0.28857,-0.18936 0.40826,-0.60607 0.40826,-0.60607c0.20413,-0.30303 0.26392,-0.39179 0.40826,-0.60607c0.14434,-0.21428 0.23269,-0.03313 0.23269,-0.03313c0,0 0.11969,-0.41671 0.40826,-0.60607c0.40809,-0.26779 0.86299,-0.44426 1.10632,-0.70545c0.38476,-0.41298 0.87364,-0.67233 1.31045,-1.00849c0.43682,-0.33616 0.81776,-0.5161 1.10632,-0.70545c0.20404,-0.13389 0.4941,-0.13463 0.9022,-0.40242c0.28857,-0.18936 0.46546,-0.2354 0.66951,-0.36929c0.28857,-0.18936 0.35238,-0.44984 0.64095,-0.6392c0.20404,-0.13389 0.26133,0.06764 0.46538,-0.06626c0.28857,-0.18936 0.43682,-0.33616 0.66951,-0.36929c0.23269,-0.03313 0.43682,-0.33616 0.66951,-0.36929c0.23269,-0.03313 0.41048,-0.19166 0.9022,-0.40242c0.2199,-0.09425 0.46538,-0.06626 0.69807,-0.09939c0.23269,-0.03313 0.46538,-0.06626 0.46538,-0.06626c0.20413,-0.30303 0.20413,-0.30303 0.43682,-0.33616c0.23269,-0.03313 0.23269,-0.03313 0.46538,-0.06626c0,0 0,0 0,0c-0.02856,-0.26991 -0.02856,-0.26991 -0.02856,-0.26991c0,0 0,0 0,0c-0.26125,-0.23678 -0.28981,-0.50668 -0.28981,-0.50668c-0.02856,-0.26991 -0.02856,-0.26991 -0.02856,-0.26991c0,0 0,0 0,0c-0.23269,0.03313 -0.17999,0.0183 -0.26125,-0.23678c-0.18169,-0.57036 -0.41637,-0.67865 -0.57962,-1.01337c-0.11543,-0.23668 -0.26125,-0.23678 -0.28981,-0.50668c0,0 0,0 0,0c0,0 -0.17438,-0.27 -0.28981,-0.50668c-0.16325,-0.33472 -0.64906,-0.64552 -0.81231,-0.98024c-0.11543,-0.23668 -0.28981,-0.50668 -0.31837,-0.77659c0,0 0,0 0,0c0,0 -0.02856,-0.26991 -0.02856,-0.26991c0,0 0,0 0,0c0,0 -0.02856,-0.26991 -0.02856,-0.26991c0.20413,-0.30303 0.20413,-0.30303 0.20413,-0.30303c0,0 0,0 -0.02856,-0.26991c0,0 -0.08444,-0.11368 0.20413,-0.30303c0.20404,-0.13389 0.20413,-0.30303 0.40826,-0.60607c0,0 0.20413,-0.30303 0.20413,-0.30303c0,0 0.14147,-0.041 0.20413,-0.30303c0.08862,-0.37058 0.43682,-0.33616 0.66951,-0.36929c0,0 0.20413,-0.30303 0.20413,-0.30303c0,0 0.26133,0.06764 0.46538,-0.06626c0.28856,-0.18935 0.20413,-0.30303 0.43682,-0.33616c0,0 0,0 0,0c0.23269,-0.03313 0.23269,-0.03313 0.46538,-0.06626c0,0 0,0 0.23269,-0.03313c0,0 0,0 0,0c0,0 0,0 0,0c0.02856,0.26991 0.02856,0.26991 0.02856,0.26991c0,0 -0.15617,0.10248 0.02856,0.26991c0.18473,0.16743 0.07652,0.06935 0.26125,0.23678c0.18473,0.16743 0.23269,-0.03313 0.23269,-0.03313c0,0 0,0 0,0c0.23269,-0.03313 0.26125,0.23678 0.49394,0.20365c0,0 0,0 0,0c0,0 0,0 0,0c0,0 0.02856,0.26991 0.02856,0.26991c0,0 0,0 0,0c0,0 0,0 0,0c0.02856,0.26991 0.02856,0.26991 0.02856,0.26991c0,0 0,0 0.26125,0.23678c0,0 0.26125,0.23678 0.26125,0.23678c0.02856,0.26991 0.02856,0.26991 0.02856,0.26991c0.23269,-0.03313 0.30921,0.03622 0.49394,0.20365c0.18473,0.16743 0.07652,0.06935 0.26125,0.23678c0.18473,0.16743 0.02856,0.26991 0.02856,0.26991c0,0 0.23269,-0.03313 0.23269,-0.03313c0.26125,0.23678 0.29659,0.40087 0.5225,0.47355c0.31948,0.10279 0.26125,0.23678 0.26125,0.23678c0.02856,0.26991 0.02856,0.26991 0.02856,0.26991c0.26125,0.23678 0.52928,0.36775 0.75519,0.44043c0.31948,0.10279 0.26125,0.23678 0.26125,0.23678c0,0 0.02856,0.26991 0.02856,0.26991c0,0 0,0 0,0c0,0 0,0 0.02856,0.26991c0,0 0.14825,-0.14681 0.43682,-0.33616c0.81619,-0.53558 1.62452,-0.44768 2.26977,-0.8711c0.45626,-0.2994 0.75786,-0.18814 0.9022,-0.40242c0.14434,-0.21428 0.23277,-0.20227 0.43682,-0.33616c0.28856,-0.18936 0.23277,-0.20227 0.43682,-0.33616c0.28856,-0.18936 0.35238,-0.44984 0.64095,-0.6392c0.20405,-0.13389 0.43682,-0.33616 0.43682,-0.33616c0.20413,-0.30303 0.46546,-0.2354 0.66951,-0.36929c0.28856,-0.18936 0.35238,-0.44984 0.64095,-0.6392c0.20405,-0.13389 0.23269,-0.03313 0.46538,-0.06626c0.23269,-0.03313 0.43682,-0.33616 0.66951,-0.36929c0.23269,-0.03313 0.46538,-0.06626 0.66951,-0.36929c0,0 0.32104,0.14802 0.46538,-0.06626c0.14434,-0.21428 -0.02856,-0.26991 -0.02856,-0.26991c0,0 0.05979,-0.08876 0.20413,-0.30303c0.14434,-0.21428 0.55233,-0.26862 0.64095,-0.6392c0.06266,-0.26204 0.11969,-0.41671 0.40826,-0.60607c0.20405,-0.13389 0.20413,-0.30303 0.43682,-0.33616c0,0 -0.1729,-0.05563 -0.02856,-0.26991c0.14434,-0.21428 0.32104,0.14802 0.46538,-0.06626c0.14434,-0.21428 0.20413,-0.30303 0.43682,-0.33616c0,0 0,0 0.20413,-0.30303c0,0 0.05979,-0.08876 0.20413,-0.30303c0.14434,-0.21428 0.20413,-0.30303 0.20413,-0.30303c0,0 0,0 0.23269,-0.03313c0,0 0,0 0,0c0,0 0.23269,-0.03313 0.23269,-0.03313c0.20413,-0.30303 0.20413,-0.30303 0.43682,-0.33616c0,0 0,0 0.20413,-0.30303c0,0 0.23269,-0.03313 0.23269,-0.03313c-0.02856,-0.26991 0.20413,-0.30303 0.20413,-0.30303c0,0 0,0 0.23269,-0.03313c0.23269,-0.03313 0.69807,-0.09939 0.93076,-0.13251c0.46538,-0.06626 0.69807,-0.09939 1.16345,-0.16564c0.23269,-0.03313 0.69807,-0.09939 0.93076,-0.13251c0.46538,-0.06626 0.93076,-0.13251 1.16345,-0.16564c0.23269,-0.03313 0.46538,-0.06626 0.93076,-0.13251c0.46538,-0.06626 0.69807,-0.09939 1.16345,-0.16564c0.23269,-0.03313 0.47216,-0.17207 0.69807,-0.09939c0.31948,0.10279 0.43571,0.33764 0.75519,0.44043c0.22591,0.07268 0.50072,0.09784 0.72663,0.17052c0.31948,0.10279 0.26125,0.23678 0.5225,0.47355c0.26125,0.23678 0.35925,0.13884 0.5225,0.47355c0.11543,0.23668 0.28981,0.50668 0.55106,0.74346c0.26125,0.23678 0.28981,0.50668 0.55106,0.74346c0.26125,0.23678 0.28981,0.50668 0.55106,0.74346c0.26125,0.23678 0.5225,0.47355 0.5225,0.47355c0.26125,0.23678 0.28981,0.50668 0.55106,0.74346c0.26125,0.23678 0.6205,0.37561 0.78375,0.71033c0.11543,0.23668 0.20294,0.53991 0.31837,0.77659c0.16325,0.33472 0.40707,0.23687 0.5225,0.47355c0.16325,0.33472 0.26125,0.23678 0.5225,0.47355c0,0 0.12656,0.17196 0.28981,0.50668c0.11543,0.23668 0.12656,0.17196 0.28981,0.50668c0.11543,0.23668 0.16524,0.47613 0.34693,1.04649c0.08126,0.25507 0.23711,0.52151 0.31837,0.77659c0.18169,0.57036 0.31837,0.77659 0.34693,1.04649c0.02856,0.26991 0.28981,0.50668 0.34693,1.04649c0.02856,0.26991 0.28981,0.50668 0.31837,0.77659c0.02856,0.26991 0.05712,0.53981 0.08568,0.80972c0.02856,0.26991 0.12656,0.17196 0.28981,0.50668c0.11543,0.23668 0.05712,0.53981 0.08568,0.80972c0.02856,0.26991 0.05712,0.53981 0.05712,0.53981c0,0 0,0 0.02856,0.26991c0,0 0.02856,0.26991 0.08568,0.80972c0.02856,0.26991 0.08568,0.80972 0.11424,1.07962c0.02856,0.26991 0.05712,0.53981 0.05712,0.53981c0.02856,0.26991 0.02856,0.26991 0.05712,0.53981c0.02856,0.26991 0.05712,0.53981 0.05712,0.53981c0.02856,0.26991 0.02856,0.26991 0.05712,0.53981c0,0 0,0 0.02856,0.26991c0.02856,0.26991 -0.17557,0.57294 -0.14701,0.84285c0.02856,0.26991 -0.00008,0.16914 -0.20413,0.30303c-0.28856,0.18936 -0.48888,0.25934 -0.87364,0.67233c-0.24334,0.26119 -0.26392,0.39179 -0.40826,0.60607c-0.14434,0.21428 -0.23269,0.03313 -0.23269,0.03313c0,0 -0.46538,0.06626 -0.9022,0.40242c0,0 -0.46546,0.23539 -0.66951,0.36929c-0.28856,0.18936 -0.4369,0.5053 -0.64095,0.6392c-0.28856,0.18936 -0.4369,0.5053 -0.64095,0.6392c-0.28856,0.18936 -0.43682,0.33616 -0.64095,0.6392c-0.20413,0.30303 -0.52517,0.15501 -0.66951,0.36929c-0.14434,0.21428 -0.20413,0.30303 -0.20413,0.30303c0,0 -0.23269,0.03313 -0.23269,0.03313c-0.20413,0.30303 -0.38192,0.46157 -0.87364,0.67233c-0.2199,0.09425 -0.69815,0.26852 -0.9022,0.40242c-0.28856,0.18936 -0.69815,0.26852 -0.9022,0.40242c-0.28856,0.18936 -0.46554,0.40453 -0.87364,0.67233c-0.28856,0.18936 -0.66959,0.53843 -0.87364,0.67233c-0.28856,0.18936 -0.46546,0.23539 -0.66951,0.36929c-0.28856,0.18936 -0.43682,0.33616 -0.64095,0.6392c-0.20413,0.30303 -0.35238,0.44984 -0.64095,0.6392c-0.20405,0.1339 -0.43682,0.33616 -0.66951,0.36929c-0.23269,0.03313 -0.23277,0.20227 -0.43682,0.33616c-0.28856,0.18936 -0.35238,0.44984 -0.64095,0.6392c-0.20405,0.1339 -0.46546,0.23539 -0.66951,0.36929c-0.28856,0.18936 -0.35238,0.44984 -0.64095,0.6392c-0.20405,0.1339 -0.43682,0.33616 -0.43682,0.33616c-0.20413,0.30303 -0.35238,0.44984 -0.64095,0.6392c-0.20405,0.1339 -0.23269,0.03313 -0.23269,0.03313c-0.23269,0.03313 -0.23269,0.03313 -0.23269,0.03313c0,0 0,0 0,0c-0.43682,0.33616 -0.58507,0.48297 -0.87364,0.67233c-0.20405,0.1339 -0.20413,0.30303 -0.43682,0.33616c0,0 0,0 0,0c-0.20413,0.30303 -0.4369,0.5053 -0.64095,0.6392c-0.28856,0.18936 -0.43682,0.33616 -0.64095,0.6392c0,0 0,0 0,0c0,0 0.08443,0.11368 -0.20413,0.30303c-0.20405,0.1339 -0.61461,0.49469 -1.10632,0.70545c-0.2199,0.09425 -0.43682,0.33616 -0.43682,0.33616c0,0 -0.23269,0.03313 -0.23269,0.03313c-0.43682,0.33616 -0.66951,0.36929 -0.66951,0.36929c0,0 -0.23269,0.03313 -0.23269,0.03313c0,0 0.08443,0.11368 -0.20413,0.30303c-0.40809,0.26779 -0.69807,0.09939 -0.93076,0.13251c0,0 0,0 -0.23269,0.03313c0,0 0,0 -0.23269,0.03313c0,0 0,0 0,0c0,0 0,0 0,0c0,0 0,0 0,0c-0.23269,0.03313 -0.26125,-0.23678 -0.26125,-0.23678c0,0 0,0 0,0c0.23269,-0.03313 0.23269,-0.03313 0,0c0,0 0,0 0,0c0,0 0,0 0,0c0,0 -0.23269,0.03313 -0.23269,0.03313c0,0 0,0 0,0c0,0 0,0 0,0c-0.23269,0.03313 -0.46538,0.06626 -0.69807,0.09939c0,0 -0.23269,0.03313 -0.23269,0.03313c0,0 0,0 0,0c0,0 0,0 0,0c-0.20413,0.30303 -0.35238,0.44984 -0.64095,0.6392c-0.20405,0.1339 -0.23269,0.03313 -0.43682,0.33616c0,0 0,0 0,0c0,0 0,0 0,0c0,0 -0.20413,0.30303 -0.43682,0.33616c-0.23269,0.03313 -0.20413,0.30303 -0.43682,0.33616c0,0 0,0 0,0c0,0 0,0 -0.23269,0.03313c-0.23269,0.03313 -0.43682,0.33616 -0.66951,0.36929c0,0 0,0 0,0c0,0 0,0 0,0c-0.23269,0.03313 -0.20413,0.30303 -0.43682,0.33616c0,0 -0.23269,0.03313 -0.43682,0.33616c0,0 0,0 0,0c0,0 0,0 0,0c0,0 -0.23269,0.03313 -0.43682,0.33616c0,0 0.02856,0.26991 0.02856,0.26991c0,0 0,0 0,0c0,0 0,0 0,0c0,0 0,0 0.02856,0.26991c0,0 0,0 0.02856,0.26991c0,0 0,0 0,0c0.02856,0.26991 0.02856,0.26991 -0.20413,0.30303c0,0 0.02856,0.26991 0.05712,0.53981c0.02856,0.26991 0.05712,0.53981 0.05712,0.53981c0,0 0,0 -0.23269,0.03313c0,0 0,0 0,0c-0.23269,0.03313 -0.51744,-0.01056 -0.9022,0.40242c-0.24334,0.26119 -0.64095,0.6392 -0.87364,0.67233c-0.23269,0.03313 -0.23269,0.03313 -0.23269,0.03313c-0.23269,0.03313 -0.14825,0.14681 -0.43682,0.33616c-0.40809,0.26779 -0.66951,0.36929 -1.13489,0.43555c0,0 0.02856,0.26991 0.02856,0.26991c-0.23269,0.03313 -0.23269,0.03313 -0.23269,0.03313c0,0 0.0549,0.1254 -0.43682,0.33616c-0.2199,0.09425 -0.66951,0.36929 -0.9022,0.40242c0,0 0.02856,0.26991 0.02856,0.26991c-0.23269,0.03313 -0.23269,0.03313 -0.23269,0.03313c-0.23269,0.03313 -0.58507,0.48297 -0.87364,0.67233c-0.40809,0.26779 -0.43682,0.33616 -0.43682,0.33616c-0.23269,0.03313 -0.23269,0.03313 -0.23269,0.03313c0,0 0.08444,0.11368 -0.20413,0.30303c-0.40809,0.26779 -0.66951,0.36929 -0.66951,0.36929c-0.23269,0.03313 -0.23269,0.03313 -0.23269,0.03313c0,0 -0.02864,-0.10077 -0.23269,0.03313c-0.28857,0.18936 -0.35238,0.44984 -0.64095,0.6392c-0.40809,0.26779 -0.46538,0.06626 -0.46538,0.06626c0.02856,0.26991 -0.20413,0.30303 -0.20413,0.30303c0,0 -0.25694,-0.02099 -0.9022,0.40242c-0.45626,0.2994 -0.64095,0.6392 -0.87364,0.67233c0,0 0,0 0,0c0,0 -0.28475,-0.04369 -0.66951,0.36929c-0.24334,0.26119 -0.43682,0.33616 -0.66951,0.36929c0,0 0,0 0,0c0,0 0.02856,0.26991 0.02856,0.26991c0,0 -0.24548,-0.028 -0.46538,0.06626c-0.49172,0.21076 -0.87364,0.67233 -1.10632,0.70545c0,0 0,0 -0.23269,0.03313c0,0 0,0 0,0c-0.23269,0.03313 -0.68348,0.32943 -1.5717,0.77171c-0.68123,0.33922 -1.16353,0.33478 -1.36757,0.46868c-0.28857,0.18936 -0.21691,0.24191 -0.43682,0.33616c-0.49172,0.21076 -0.93084,0.30165 -1.13489,0.43555c-0.28857,0.18936 -0.43682,0.33616 -0.66951,0.36929c-0.46538,0.06626 -0.66951,0.36929 -0.66951,0.36929c-0.23269,0.03313 -0.23269,0.03313 -0.23269,0.03313c-0.46538,0.06626 -0.9022,0.40242 -1.13489,0.43555c-0.46538,0.06626 -0.66951,0.36929 -0.66951,0.36929c0,0 -0.23269,0.03313 -0.69807,0.09939c-0.46538,0.06626 -0.93076,0.13251 -1.16345,0.16564c-0.23269,0.03313 -0.46538,0.06626 -0.46538,0.06626c0,0 -0.23269,0.03313 -0.46538,0.06626c-0.23269,0.03313 -0.23269,0.03313 -0.23269,0.03313c0,0 -0.23269,0.03313 -0.23269,0.03313c-0.23269,0.03313 -0.46538,0.06626 -0.46538,0.06626c0,0 -0.23269,0.03313 -0.23269,0.03313c0,0 0,0 0,0c-0.26125,-0.23678 -0.26125,-0.23678 -0.26125,-0.23678c0,0 0,0 0,0c-0.26125,-0.23678 -0.26125,-0.23678 -0.28981,-0.50668c0,0 -0.23269,0.03313 -0.26125,-0.23678c0,0 -0.23269,0.03313 -0.23269,0.03313c0,0 0,0 0,0c0,0 0,0 -0.26125,-0.23678c0,0 -0.23269,0.03313 -0.46538,0.06626c0,0 -0.23269,0.03313 -0.23269,0.03313c0,0 -0.02856,-0.26991 -0.02856,-0.26991c-0.23269,0.03313 -0.46538,0.06626 -0.69807,0.09939c0,0 -0.26125,-0.23678 -0.26125,-0.23678c0,0 0,0 0,0c0,0 -0.26125,-0.23678 -0.26125,-0.23678c0,0 -0.02856,-0.26991 -0.26125,-0.23678c0,0 0,0 -0.23269,0.03313c0,0 0,0 -0.23269,0.03313c0,0 -0.04796,0.20056 -0.23269,0.03313c-0.18473,-0.16743 -0.02856,-0.26991 -0.26125,-0.23678c0,0 -0.02856,-0.26991 -0.02856,-0.26991c0,0 0,0 0,0l0,0"/>
   <ellipse fill="#997141" stroke-width="4" cx="39.53316" cy="209.18259" id="svg_29" rx="41.62396" ry="51.15896" transform="matrix(0.182941, -0.170051, 0.146604, 0.2122, -25.2782, 9.60369)"/>
   <path fill="none" stroke="#422C10" id="svg_12" d="m5.00187,43.32664c0,0 0,0 0,0c0,0 0,0 0,0.27193c0,0 0,0 0,0.27193c0,0.27193 0,0.54386 0,0.54386c0,0 0,0.27193 0,0.27193c0,0 0,0 0,0c0,0.27193 -0.23444,0.54386 -0.23444,1.08772c0,0.27193 0,0.54386 0,0.81579c0,0.27193 0,0.54386 0,0.54386c0,0.27193 0,0.54386 0,0.81579c0,0.27193 0,0.81579 0,0.81579c0,0.27193 0,0.27193 0,0.54386c0,0.27193 0.10756,0.4605 0.23444,0.81579c0.08971,0.25123 0,0.54386 0.23444,0.81579c0,0 0.06866,0.35158 0.23444,0.54386c0.16577,0.19228 0.23444,0.27193 0.23444,0.27193c0,0.27193 0.06866,0.35158 0.23444,0.54386c0.16577,0.19228 0.25228,0.16787 0.46887,0.27193c0.3063,0.14717 0.46887,0.54386 0.46887,0.54386c0.23444,0.27193 0.3031,0.35158 0.46887,0.54386c0.16577,0.19228 0.3031,0.07965 0.46887,0.27193c0.16577,0.19228 0.23444,0.27193 0.46887,0.54386c0,0 0.23444,0.27193 0.23444,0.27193c0.23444,0.27193 0.25228,0.16787 0.46887,0.27193c0.3063,0.14717 0.16257,0.39669 0.46887,0.54386c0.21659,0.10407 0.397,0.39669 0.70331,0.54386c0.21659,0.10407 0.46887,0.27193 0.70331,0.27193c0.23444,0 0.46887,0.27193 0.70331,0.27193c0.23444,0 0.46887,0 0.70331,0c0.46887,0 0.70331,0 0.93774,0c0.23444,0 0.47514,0.06248 0.70331,0c0.51019,-0.1397 0.63144,-0.66862 0.93774,-0.81579c0.21659,-0.10407 0.43435,-0.319 0.70331,-0.54386c0.42527,-0.35554 0.70331,-0.54386 0.93774,-1.08772c0.23444,-0.54386 0.50945,-0.77574 0.70331,-1.08772c0.30651,-0.49328 0.3031,-0.62351 0.46887,-0.81579c0.33154,-0.38457 0.11399,-1.0398 0.23444,-1.63159c0.16158,-0.79397 0,-1.35966 0,-2.17545c0,-0.81579 0.26915,-1.42175 0,-2.17545c-0.12688,-0.35529 -0.27502,-0.77574 -0.46887,-1.08772c-0.30651,-0.49328 -0.16236,-0.86637 -0.46887,-1.35966c-0.19385,-0.31198 -0.23444,-0.54386 -0.46887,-0.81579c-0.23444,-0.27193 -0.41501,-0.55114 -0.46887,-0.81579c-0.12044,-0.59179 -0.46887,-0.81579 -0.70331,-1.08772c-0.23444,-0.27193 -0.66878,-0.59093 -0.93774,-0.81579c-0.42527,-0.35554 -0.71585,-0.41891 -1.17218,-0.54386c-0.51019,-0.1397 -0.89642,-0.40416 -1.40661,-0.54386c-0.45633,-0.12495 -0.70331,0 -1.17218,0c-0.23444,0 -0.46887,0 -0.70331,0c0,0 -0.23444,0 -0.46887,0c-0.23444,0 -0.46887,0 -0.46887,0c-0.23444,0.27193 -0.23444,0.27193 -0.23444,0.27193c0,0 0,0 0,0.27193c0,0 0,0 0,0c0,0.27193 0,0.54386 0,0.54386l0,0l0,0l0,0"/>
   <path fill="none" stroke="#422C10" id="svg_13" d="m8.5184,46.04595c0,0 0,0 0,0.27193c0,0.27193 0,0.54386 0,0.54386c0,0.27193 0,0.54386 0,0.54386c0,0.27193 0,0.27193 0,0.27193c0,0.27193 0.23444,0.27193 0.23444,0.81579c0,0.27193 0.23444,0.27193 0.23444,0.54386c0,0.27193 0,0.27193 0,0.27193c0,0 0.34199,-0.08336 0.46887,0.27193c0.08971,0.25123 0.06866,0.89544 0.23444,1.08772c0.16577,0.19228 0.23444,0.27193 0.23444,0.27193c0,0 0.06866,-0.19228 0.23444,0c0.16577,0.19228 0.06866,0.35158 0.23444,0.54386c0.16577,0.19228 0.23444,0.27193 0.46887,0.27193c0,0 0.23444,0 0.46887,0c0.46887,0 0.70331,0 0.93774,0c0.23444,0 0.46887,0 0.46887,0c0.23444,0 0.46887,-0.27193 0.93774,-0.81579c0.23444,-0.27193 0.28944,-0.58526 0.46887,-1.08772c0.12688,-0.35529 0.46887,-0.54386 0.46887,-1.08772c0,0 0,-0.27193 0,-0.54386c0,-0.27193 0,-0.81579 0,-1.63159c0,-0.54386 0.16577,-0.89544 0,-1.08772c-0.16577,-0.19228 -0.23444,-0.27193 -0.46887,-0.54386c-0.23444,-0.27193 -0.16257,-0.66862 -0.46887,-0.81579c-0.21659,-0.10407 -0.24071,-0.20945 -0.46887,-0.27193c-0.51019,-0.1397 -0.66199,-0.40416 -1.17218,-0.54386c-0.22816,-0.06248 -0.46887,0 -0.70331,0c0,0 -0.23444,0 -0.46887,0c0,0 0,0 -0.23444,0.27193c0,0 -0.23444,0.27193 -0.23444,0.27193c0,0 0,0.27193 0,0.27193c0,0 0,0.27193 0,0.27193c0,0 0,0 0,0c0,0.27193 0,0.27193 0,0.27193c0,0.27193 0.23444,0.27193 0.23444,0.27193c0,0 -0.16577,0.07965 0,0.27193c0.16577,0.19228 0.23444,0.27193 0.23444,0.27193c0.23444,0.27193 0.23444,0.27193 0.23444,0.54386c0,0 0,0 0,0c0.23444,0 0.23444,0 0.23444,0l0,0l0,0l0.23444,0"/>
   <path fill="none" stroke="#422C10" id="svg_14" d="m16.72364,60.18637c0,0 0.23444,0 0.46887,-0.27193c0.23444,-0.27193 0.43435,-0.59093 0.70331,-0.81579c0.42527,-0.35554 0.74691,-0.46025 1.17218,-0.81579c0.26896,-0.22486 0.46887,-0.54386 0.70331,-0.81579c0.23444,-0.27193 0.46887,-0.54386 0.70331,-0.81579c0.23444,-0.27193 0.46887,-0.54386 0.70331,-0.81579c0.23444,-0.27193 0.37915,-0.56456 0.46887,-0.81579c0.12688,-0.35529 0.34199,-0.4605 0.46887,-0.81579c0.08972,-0.25123 0.23444,-0.81579 0.23444,-1.08772c0,-0.27193 0.23444,-0.54386 0.23444,-0.54386c0,-0.27193 0,-0.27193 0,-0.81579c0,-0.54386 0.23444,-1.08772 0.23444,-1.63159c0,-0.54386 0,-1.08772 0,-1.35966c0,-0.27193 0,-0.81579 0,-1.35966c0,-0.27193 0,-0.54386 0,-1.08772c0,-0.27193 0,-0.54386 0,-1.08772c0,-0.27193 0.08972,-0.83649 0,-1.08772c-0.12688,-0.35529 -0.23444,-0.81579 -0.23444,-1.08772c0,-0.27193 0,-0.54386 0,-0.54386c-0.23444,-0.27193 -0.23444,-0.27193 -0.23444,-0.27193c-0.23444,-0.27193 -0.23444,-0.81579 -0.46887,-1.08772c-0.23444,-0.27193 -0.34199,-0.4605 -0.46887,-0.81579c-0.08972,-0.25123 -0.34199,-0.4605 -0.46887,-0.81579c-0.08972,-0.25123 -0.02295,-0.49612 -0.46887,-0.81579c-0.19942,-0.14296 -0.23444,-0.27193 -0.46887,-0.54386c-0.23444,-0.27193 -0.23444,-0.27193 -0.46887,-0.27193c0,0 0.16577,-0.07965 0,-0.27193c-0.16577,-0.19228 -0.3031,-0.07965 -0.46887,-0.27193c-0.16577,-0.19228 -0.46887,-0.27193 -0.46887,-0.27193c-0.23444,0 -0.23444,0 -0.23444,0c-0.23444,0 -0.23444,-0.27193 -0.46887,-0.27193c-0.23444,0 -0.46887,0 -0.70331,-0.27193c0,0 0,0 0,0c-0.23444,0 -0.23444,0 -0.23444,0c0,0 -0.23444,0 -0.23444,0c-0.23444,0 -0.23444,0 -0.46887,0c0,0 0,0 0,0l0,0l0,0"/>
   <path fill="none" stroke="#422C10" id="svg_16" d="m36.18178,16.67739c0,0 -0.23444,0 -0.23444,0c-0.23444,0 -0.46887,-0.27193 -0.46887,-0.27193c-0.23444,0 -0.23444,0 -0.23444,-0.27193c0,0 0,0 0,0c0,0 -0.06866,0.19229 -0.23444,0c-0.16577,-0.19229 -0.23444,-0.27193 -0.23444,-0.27193c-0.23444,-0.27193 -0.23444,-0.27193 -0.23444,-0.27193c0,0 0,0 0,0c-0.23444,-0.27193 -0.46887,-0.54386 -0.46887,-0.54386c-0.23444,0 -0.23444,-0.27193 -0.23444,-0.27193c0,0 0,0 0,-0.27193c0,0 -0.23444,0 -0.23444,0c0,0 0,0 0,0l0,0l0,0"/>
   <path fill="none" stroke="#422C10" id="svg_17" d="m15.7859,60.73023c0,0 0,0.27193 0,0.27193c-0.23444,0 -0.23444,0 -0.23444,0c0,0 0,0 -0.23444,0c-0.23444,0 -0.23444,0 -0.23444,0c-0.23444,0 -0.23444,0.27193 -0.23444,0.27193c0,0 0.23444,0 0.23444,0c0,-0.27193 0.23444,-0.27193 0.23444,-0.27193c0,0 0.23444,0 0.46887,-0.27193c0,0 0.23444,-0.27193 0.46887,-0.54386c0.23444,-0.27193 0.46887,-0.27193 0.70331,-0.54386c0,0 0.25228,0.10407 0.46887,0c0.3063,-0.14717 0.23444,-0.27193 0.46887,-0.27193c0,0 0.23444,-0.27193 0.23444,-0.27193c0.23444,-0.27193 0.46887,-0.27193 0.70331,-0.54386c0,0 0.06866,0.19228 0.23444,0c0.16577,-0.19228 0,-0.27193 0,-0.27193c0.23444,0 0.23444,0 0.23444,0c0,0 0,-0.27193 0,-0.27193c0.23444,0 0.23444,0 0.23444,0c0,-0.27193 0,-0.27193 0.23444,-0.54386c0,0 0,0 0,0c0,-0.27193 0,-0.27193 0,-0.27193c0,0 0,0 0,0c0.23444,0 0.46887,-0.27193 0.46887,-0.27193c0,0 0,0 0,0c0.23444,-0.27193 0.23444,-0.27193 0.23444,-0.27193c0,-0.27193 0,-0.27193 0.23444,-0.27193c0,0 0,0 0,0c0,0 0.06866,-0.07965 0.23444,-0.27193c0.16577,-0.19228 0,-0.27193 0,-0.27193c0,0 0,0 0.23444,-0.27193c0,0 -0.16577,-0.07965 0,-0.27193c0.16577,-0.19228 0.23444,0 0.23444,0c0,0 0.06866,-0.07965 0.23444,-0.27193c0.16577,-0.19228 0,-0.27193 0.23444,-0.27193c0,0 0,0 0,-0.27193c0,0 0.23444,-0.27193 0.23444,-0.27193c0.23444,0 0.23444,-0.27193 0.23444,-0.27193l0,0"/>
   <path fill="none" stroke="#422C10" id="svg_18" d="m30.08646,49.85299c0,0 0.23444,0 0.46887,0c0.23444,0 0.23444,0 0.23444,0c0.23444,-0.27193 0.42755,-0.40416 0.93774,-0.54386c0.22816,-0.06248 0.63144,-0.39669 0.93774,-0.54386c0.21659,-0.10407 0.46887,-0.27193 0.46887,-0.27193c0.23444,-0.27193 0.16257,-0.39669 0.46887,-0.54386c0.21659,-0.10407 0.23444,-0.27193 0.23444,-0.27193c0,0 0,-0.27193 0,-0.27193c0.23444,0 0.14472,-0.29263 0.23444,-0.54386c0.12688,-0.35529 0.23444,-0.54386 0.23444,-0.81579c0,0 0.06866,0.19228 0.23444,0c0.16577,-0.19228 -0.16577,-0.35158 0,-0.54386c0.16577,-0.19228 0.23444,-0.27193 0.23444,-0.27193c0,0 -0.16577,-0.07965 0,-0.27193c0.16577,-0.19228 0.06866,-0.07965 0.23444,-0.27193c0.16577,-0.19228 0.23444,-0.27193 0.23444,-0.27193c0,0 0.23444,0 0.23444,0c0,0 0,-0.27193 0,-0.27193c0,0 0,0 0,0c0,0 0,0 0,-0.27193c0,0 0.23444,0 0.23444,0c0,0 0,0 0,0c0.23444,-0.27193 0.23444,-0.27193 0.23444,-0.27193c0.23444,-0.27193 0.23444,-0.27193 0.23444,-0.27193c0,0 0.06866,-0.35158 0.23444,-0.54386c0.16577,-0.19228 0.06866,-0.35158 0.23444,-0.54386c0.16577,-0.19228 0.23444,0 0.23444,-0.27193c0,0 0.14472,-0.0207 0.23444,-0.27193c0.12688,-0.35529 0.46887,-0.27193 0.46887,-0.27193c0,-0.27193 0.23444,-0.27193 0.23444,-0.27193c0.23444,-0.27193 0.34199,-0.18857 0.46887,-0.54386c0.08972,-0.25123 0.23444,-0.54386 0.23444,-0.54386c0.23444,-0.27193 0.3031,-0.35158 0.46887,-0.54386c0.16577,-0.19228 0.34199,0.08336 0.46887,-0.27193c0.08972,-0.25123 0.23444,-0.27193 0.46887,-0.54386c0,0 0.25228,-0.16787 0.46887,-0.27193c0.3063,-0.14717 0.46887,-0.27193 0.46887,-0.27193c0.23444,-0.27193 0.48672,-0.16787 0.70331,-0.27193c0.3063,-0.14717 0.72115,-0.16787 0.93774,-0.27193c0.3063,-0.14717 0.72115,-0.16787 0.93774,-0.27193c0.3063,-0.14717 0.70331,-0.27193 0.93774,-0.27193c0.23444,0 0.46887,0 0.70331,0c0.23444,0 0.46887,0 0.46887,0c0.23444,0 0.46887,0 0.46887,0c0.23444,0 0.46887,0 0.70331,0c0,0 0.23444,0 0.23444,0c0,0 0.23444,0 0.23444,0c0.23444,0 0.46887,0 0.70331,0c0.23444,0 0.46887,0 0.70331,0c0,0 0.3031,0.19228 0.46887,0c0.16577,-0.19228 0.3031,-0.07965 0.46887,-0.27193c0.16577,-0.19228 0.25228,-0.16787 0.46887,-0.27193c0.3063,-0.14717 0.53754,-0.35158 0.70331,-0.54386c0.16577,-0.19228 0.16257,-0.66862 0.46887,-0.81579c0.21659,-0.10407 0.46887,-0.27193 0.70331,-0.54386c0.23444,-0.27193 0.48671,-0.4398 0.70331,-0.54386c0.3063,-0.14717 0.51248,-0.18832 0.93774,-0.54386c0.26896,-0.22486 0.48671,-0.16787 0.70331,-0.27193c0.3063,-0.14717 0.46887,-0.27193 0.70331,-0.54386c0,0 0.23444,-0.27193 0.46887,-0.27193l0,0"/>
   <path fill="none" stroke="#422C10" id="svg_19" d="m64.07959,20.75636c0,0 0,0 -0.23444,0c-0.23444,0 -0.46887,0.27193 -0.70331,0.27193c-0.23444,0 -0.48671,0.16787 -0.70331,0.27193c-0.3063,0.14717 -0.50456,0.33573 -0.93774,0.54386c-0.3063,0.14717 -0.43434,0.59093 -0.70331,0.81579c-0.42527,0.35554 -0.70331,0.27193 -0.93774,0.54386c-0.23444,0.27193 -0.63144,0.66862 -0.93774,0.81579c-0.21659,0.10407 -0.46887,0.27193 -0.70331,0.54386c0,0 -0.3031,0.07965 -0.46887,0.27193c-0.16577,0.19229 0,0.27193 0,0.27193c0,0 -0.23444,0 -0.23444,0c0,0 0,0.27193 -0.23444,0.54386c-0.23444,0.27193 -0.81087,0.4605 -0.93774,0.81579c-0.08972,0.25123 0,0.27193 0,0.27193c-0.23444,0 -0.23444,0 -0.23444,0c0,0 0,0 0,0c-0.46887,0.27193 -0.86869,0.638 -1.40661,1.08772c-0.42527,0.35554 -0.81087,0.18857 -0.93774,0.54386c-0.08972,0.25123 0,0.27193 0,0.27193c0,0 -0.23444,0 -0.23444,0c0,0 0,0 0,0c-0.46887,0.27193 -0.74691,0.46026 -1.17218,0.81579c-0.53792,0.44972 -0.70331,0.54386 -0.70331,0.81579c0,0 -0.23444,0.27193 -0.23444,0.27193c0,0 0,0 0,0c-0.23444,0 -0.42755,0.40416 -0.93774,0.54386c-0.22816,0.06248 -0.23444,0.27193 -0.23444,0.27193c-0.23444,0 -0.23444,0 -0.23444,0l0.23444,0"/>
   <path fill="none" stroke="#422C10" id="svg_20" d="m27.7421,38.72083c0.20797,0 0.22581,0.1193 0.6239,0c0.71766,-0.21506 0.6716,-0.27417 1.45577,-0.61751c0.68574,-0.30024 1.28648,-0.55423 1.66373,-0.82335c0.23859,-0.17021 0.56015,-0.50611 0.83187,-0.61751c0.19214,-0.07877 0.35218,-0.30027 0.6239,-0.41167c0.19214,-0.07877 0.14421,-0.30027 0.41593,-0.41167c0.19214,-0.07877 0.33635,-0.2215 0.41593,-0.41167c0.11255,-0.26894 0.41593,-0.41167 0.6239,-0.61751c0.20797,-0.20584 0.51135,-0.34857 0.6239,-0.61751c0.07959,-0.19017 0.14421,-0.50611 0.41593,-0.61751c0.19214,-0.07877 0.20797,-0.20584 0.41593,-0.41167c0.20797,-0.20584 0.41593,-0.41167 0.6239,-0.61751c0.20797,-0.20584 0.26888,-0.06029 0.41593,-0.20584c0.14705,-0.14555 -0.07959,-0.01567 0,-0.20584c0.11255,-0.26894 0.41593,-0.41167 0.6239,-0.61751c0.20797,-0.20584 0.35218,-0.50611 0.6239,-0.61751c0.19214,-0.07877 0.41593,-0.20584 0.6239,-0.41167c0.20797,-0.20584 0.35218,-0.30027 0.6239,-0.41167c0.19214,-0.07877 0.41593,-0.20584 0.41593,-0.20584c0,0 0.20797,0 0.41593,-0.20584l0.20797,0l0,-0.20584l0.20797,0"/>
   <path fill="none" stroke="#422C10" id="svg_21" d="m43.21484,32.4494c0,-0.27193 0.23444,-0.27193 0.46887,-0.54386c0.23444,-0.27193 0.16236,-0.32251 0.46887,-0.81579c0.19385,-0.31198 0.50388,-0.4009 0.70331,-0.54386c0.44592,-0.31967 0.50388,-0.67283 0.70331,-0.81579c0.44592,-0.31967 0.57643,-0.73243 0.70331,-1.08772c0.17943,-0.50246 0.16236,-0.86637 0.46887,-1.35966c0.19385,-0.31198 0.415,-0.55114 0.46887,-0.81579c0.12044,-0.59179 0.23444,-0.81579 0.46887,-1.08772c0.23444,-0.27193 0.46887,-0.81579 0.70331,-1.08772c0.23444,-0.27193 0.57643,-0.73243 0.70331,-1.08772c0.08972,-0.25123 0.23444,-0.27193 0.46887,-0.54386c0.23444,-0.27193 0.23444,-0.27193 0.46887,-0.54386c0.23444,-0.27193 0.66878,-0.59093 0.93774,-0.81579c0.42527,-0.35554 0.90321,-0.59093 1.17218,-0.81579c0.42527,-0.35554 0.739,-0.33573 1.17218,-0.54386c0.3063,-0.14717 0.70331,-0.54386 1.17218,-0.81579c0,0 0.48671,-0.16787 0.70331,-0.27193c0.3063,-0.14717 0.57643,-0.18857 0.70331,-0.54386c0.08972,-0.25123 0.25228,-0.16787 0.46887,-0.27193c0.3063,-0.14717 0.23444,-0.27193 0.46887,-0.27193c0,0 0,0 0,0l0,0l0.23444,0l0,-0.27193"/>
   <path fill="none" stroke="#422C10" id="svg_22" d="m63.37628,16.94932c0,0 0,0 -0.23444,0c-0.23444,0 -0.48671,-0.10407 -0.70331,0c-0.3063,0.14717 -0.70331,0.54386 -0.70331,0.54386c-0.23444,0 -0.25228,0.16787 -0.46887,0.27193c-0.3063,0.14717 -0.57643,0.18857 -0.70331,0.54386c-0.08972,0.25123 -0.23444,0.27193 -0.23444,0.54386c0,0 -0.23444,0 -0.23444,0c-0.46887,0.27193 -0.66199,0.67609 -1.17218,0.81579c-0.22816,0.06248 -0.23444,0.27193 -0.23444,0.27193c0,0 0,0 0,0.27193l0,0"/>
   <path fill="none" stroke="#422C10" id="svg_23" d="m57.04652,10.42298c0,0 0,0 -0.23444,0c-0.23444,0 -0.46887,0 -0.46887,0c-0.46887,0 -0.46887,0 -0.70331,0c0,0 -0.24071,0.20945 -0.46887,0.27193c-0.51019,0.1397 -0.93774,0.54386 -1.40661,0.81579c-0.46887,0.27193 -0.98135,0.46026 -1.40661,0.81579c-0.26896,0.22486 -0.72115,0.4398 -0.93774,0.54386c-0.3063,0.14717 -0.63144,0.66862 -0.93774,0.81579c-0.21659,0.10407 -0.70331,0.27193 -1.17218,0.54386c-0.46887,0.27193 -1.19002,0.4398 -1.40661,0.54386c-0.3063,0.14717 -0.72115,0.4398 -0.93774,0.54386c-0.3063,0.14717 -0.72115,0.4398 -0.93774,0.54386c-0.3063,0.14717 -0.48672,0.4398 -0.70331,0.54386c-0.3063,0.14717 -0.397,0.39669 -0.70331,0.54386c-0.21659,0.10407 -0.46887,0.27193 -0.70331,0.54386c0,0 -0.25228,0.16787 -0.46887,0.27193c-0.3063,0.14717 -0.24071,0.48139 -0.46887,0.54386c-0.51019,0.1397 -0.51248,0.46026 -0.93774,0.81579c-0.26896,0.22486 -0.23444,0.27193 -0.23444,0.27193c0,0.27193 -0.23444,0.27193 -0.23444,0.27193c0,0 0,0 0,0c-0.23444,0.27193 -0.33263,0.65776 -0.70331,1.08772c-0.37068,0.42996 -0.46887,0.27193 -0.70331,0.54386c0,0 0,0 0,0c0,0 -0.25228,0.16787 -0.46887,0.27193c-0.3063,0.14717 -0.81087,0.4605 -0.93774,0.81579c-0.08972,0.25123 -0.23444,0.27193 -0.23444,0.27193c0,0.27193 0,0.27193 0,0.27193c0,0 0.07187,0.12476 -0.23444,0.27193c-0.43318,0.20813 -0.61359,0.29263 -0.70331,0.54386c-0.12688,0.35529 -0.46887,0.27193 -0.46887,0.54386l0,0"/>
   <path fill="none" stroke="#422C10" id="svg_24" d="m38.76057,47.67754c0,0 0,-0.27193 0,-0.27193c0,0 0,-0.27193 0,-0.27193c0,0 0,-0.27193 0,-0.27193c0,0 0,-0.27193 0,-0.54386c0,-0.27193 0,-0.27193 0,-0.54386c0,0 0,0 0,0c0,0 0,0 0,-0.27193c0,0 0,-0.27193 0,-0.27193c0,-0.27193 0,-0.27193 0,-0.54386c0,0 0,0 0,-0.27193c0,0 0,0 0,0c0,0 0,-0.27193 0,-0.27193c0,-0.27193 0.23444,-0.27193 0.23444,-0.54386c0,0 0.06866,-0.07965 0.23444,-0.27193c0.16577,-0.19228 0.23444,-0.27193 0.23444,-0.27193c0.23444,0 0.23444,0 0.23444,0c0,0 0.23444,-0.27193 0.23444,-0.27193c0.23444,0 0.23444,0 0.23444,0c0.23444,-0.27193 0.23444,-0.27193 0.46887,-0.27193c0,0 0.23444,-0.27193 0.23444,-0.27193c0,0 0.23444,0 0.23444,0c0.23444,0 0.3031,-0.07965 0.46887,-0.27193c0.16577,-0.19228 0.46887,0 0.70331,0c0.23444,0 0.23444,0 0.46887,0c0,0 0,-0.27193 0.23444,-0.27193c0,0 0.23444,0 0.23444,0c0,0 0,0 0.23444,0c0,0 0.23444,0 0.23444,0c0.23444,0 0.23444,0 0.23444,0c0.23444,0 0.23444,0 0.23444,0c0,0 0,0 0,0c0.23444,0 0.23444,0 0.23444,0c0,0 0,0 0,0c0.23444,0 0.23444,0 0.23444,0c0,0 0,0 0,0c0.23444,0 0.23444,0 0.23444,0c0,0 -0.16577,0.07965 0,0.27193c0.16577,0.19228 0.23444,0 0.23444,0c0,0 0,0 0,0.27193c0,0 0.23444,0 0.23444,0c0,0 0,0 0,0c0,0.27193 0,0.27193 0,0.27193c0,0 0,0 0,0c0,0 0.06866,-0.19228 0.23444,0c0.16577,0.19228 0,0.27193 0,0.27193c0,0 0,0 0,0c0.23444,0 0.23444,0 0.23444,0c0,0 0,0 0,0c0,0 0,0 0,0l0,0"/>
   <path fill="none" stroke="#422C10" id="svg_25" d="m18.83356,31.90553c0.23444,0 0.23444,0 0.46887,0c0.46887,0 0.46887,0 0.93774,0c0.46887,0 0.70331,0 1.17218,0c0.46887,0 0.72115,-0.10407 0.93774,0c0.3063,0.14717 0.3031,0.35158 0.46887,0.54386c0.16577,0.19228 0.46887,0.27193 0.46887,0.27193c0,0 0,0 0.23444,0c0,0 0.23444,0 0.23444,0c0.23444,0 0.23444,0 0.46887,0c0.23444,0 0.23444,0 0.46887,0c0,0 0.23444,0 0.23444,0c0,0 0,0 0.23444,0c0,0 0,0 0.23444,0c0.23444,0 0.739,-0.0638 1.17218,-0.27193c0.3063,-0.14717 0.42755,-0.40416 0.93774,-0.54386c0.22816,-0.06248 0.46887,-0.27193 0.70331,-0.27193c0.23444,0 0.48672,-0.16787 0.70331,-0.27193c0.3063,-0.14717 0.25228,-0.16787 0.46887,-0.27193c0.3063,-0.14717 0.23444,-0.54386 0.46887,-0.54386c0,0 0.23444,-0.27193 0.23444,-0.54386c0,0 0.14472,-0.0207 0.23444,-0.27193c0.12688,-0.35529 0.34199,-0.18857 0.46887,-0.54386c0.08972,-0.25123 0.23444,-0.54386 0.23444,-0.54386c0.23444,-0.27193 0.23444,-0.54386 0.23444,-0.54386c0,0 0.06866,0.19229 0.23444,0c0.16577,-0.19229 0.3031,-0.35158 0.46887,-0.54386c0.16577,-0.19229 0,-0.27193 0,-0.27193c0,0 0,-0.27193 0.23444,-0.27193c0,0 0.23444,-0.27193 0.23444,-0.27193c0,0 -0.16577,-0.07965 0,-0.27193c0.16577,-0.19229 0.23444,0 0.46887,-0.27193c0,0 0,0 0.23444,0l0,0"/>
   <path fill="none" stroke="#422C10" id="svg_26" d="m22.81896,50.39685c0,0 0.23444,-0.27193 0.23444,-0.27193c0.23444,0 0.23444,-0.27193 0.46887,-0.27193c0,0 0,0 0.23444,-0.27193c0,0 0.06866,0.19228 0.23444,0c0.16577,-0.19228 0.06866,-0.07965 0.23444,-0.27193c0.16577,-0.19228 0.23444,-0.27193 0.23444,-0.54386c0,0 0.06866,0.19228 0.23444,0c0.16577,-0.19228 0.06866,-0.07965 0.23444,-0.27193c0.16577,-0.19228 0,-0.27193 0.23444,-0.27193c0.68546,-0.64793 0.93774,-0.81579 0.93774,-1.08772c0,0 0,0 0.23444,0c0,0 0.3031,-0.07965 0.46887,-0.27193c0.16577,-0.19228 0.23444,-0.27193 0.23444,-0.27193c0.23444,-0.27193 0.23444,-0.27193 0.23444,-0.27193c0,0 0,0 0,0c0,0 0.23444,0 0.23444,0l-0.23444,0l0,0"/>
   <path fill="none" stroke="#422C10" stroke-width="4" opacity="100" d="m25.16332,48.49333" id="svg_28"/>
  </g>
 </g>
</svg>