<svg width="70" height="70" xmlns="http://www.w3.org/2000/svg" version="1.1">
 <title>Money</title>

 <g>
  <title>Layer 1</title>
  <g id="svg_19">
   <path fill="#c3f7d2" stroke="#c3f7d2" stroke-opacity="0" id="svg_46" d="m22.82179,60.54828c-0.00636,0.07142 -0.00636,0.07142 -0.01907,0.21426c-0.00636,0.07142 -0.01907,0.21426 -0.03178,0.35711c-0.00636,0.07142 -0.01907,0.21426 -0.02543,0.28569c-0.01272,0.14285 -0.02543,0.28569 -0.0445,0.49995c-0.01272,0.14286 -0.02543,0.2857 -0.03178,0.35712c-0.00636,0.07142 -0.01272,0.14285 -0.01907,0.21426c-0.00636,0.07142 -0.01272,0.14285 -0.01907,0.21426c-0.01272,0.14285 -0.01417,0.36428 0.00748,0.57602c0.01614,0.15782 0.03292,0.29033 0.02656,0.36176c-0.00636,0.07142 0.04229,0.08774 0.10396,0.15213c0.09752,0.10181 0.12554,0.10299 0.1623,0.15677c0.03676,0.05379 0.05198,0.07607 0.05198,0.07607c0,0 0.05198,0.07607 0.05198,0.07607c0.05198,0.07607 0.07434,0.12774 0.09761,0.22356c0.01645,0.06776 -0.01272,0.14285 0.03927,0.21891c0,0 0,0 -0.00636,0.07142c-0.00636,0.07142 0.05198,0.07607 0.04562,0.14748c0,0 -0.00636,0.07142 0.05198,0.07607c0,0 -0.04311,0.01763 -0.00636,0.07142c0.03676,0.05379 0.03118,0.10742 0.10396,0.15213c0.05146,0.03163 0.03754,0.03599 0.11032,0.08071c0.05147,0.03163 0.11668,0.00929 0.11668,0.00929c0.05834,0.00464 0.05834,0.00464 0.05834,0.00464c0.05198,0.07607 0.11032,0.08071 0.11032,0.08071c0,0 0.05834,0.00464 0.05198,0.07607c0,0 0.01522,0.02227 0.05198,0.07607c0.03676,0.05379 0.03119,0.10742 0.10396,0.15213c0.05146,0.03163 0.05198,0.07607 0.05198,0.07607c0,0 0.02158,-0.04915 0.05834,0.00464c0.03676,0.05379 -0.00636,0.07142 -0.00636,0.07142c0,0 -0.05834,-0.00464 -0.05834,-0.00464c0,0 -0.00636,0.07142 -0.00636,0.07142c0,0 -0.00636,0.07142 -0.0647,0.06678c0,0 -0.00636,0.07142 -0.00636,0.07142c0,0 0,0 0,0c0,0 0.02158,-0.04915 0.05834,0.00464c0.03676,0.05379 -0.00636,0.07142 -0.00636,0.07142c0,0 0.05834,0.00464 0.11668,0.00929c0,0 0,0 0,0c0.05834,0.00464 0.05834,0.00464 0.05834,0.00464c0.05834,0.00464 0.05834,0.00464 0.05834,0.00464c0.05834,0.00464 0.05834,0.00464 0.05834,0.00464c0,0 0.05834,0.00464 0.05834,0.00464c0,0 0,0 0.05834,0.00464c0.05834,0.00464 0.10171,-0.0249 0.18137,-0.05749c0.05633,-0.02304 0.06034,0.03233 0.11668,0.00929c0.07966,-0.03259 0.11584,-0.09768 0.24607,-0.12427c0.05825,-0.01189 0.07729,-0.01491 0.12304,-0.06214c0.04574,-0.04722 0.05834,0.00464 0.11668,0.00929c0,0 0,0 0,0c0,0 0.05844,0.02117 0.11668,0.00929c0.13023,-0.02659 0.29805,-0.0482 0.47307,-0.03427c0.23336,0.01858 0.2917,0.02322 0.35004,0.02787c0,0 0.05834,0.00464 0.05834,0.00464c0,0 0,0 0,0c0,0 0.00636,-0.07142 0.0647,-0.06678c0.11668,0.00929 0.17502,0.01393 0.23971,-0.05285c0,0 0.0647,-0.06678 0.0647,-0.06678c0,0 0,0 0.05834,0.00464c0,0 0.11668,0.00929 0.17502,0.01393c0,0 0,0 0.05834,0.00464c0,0 0,0 0.05834,0.00464c0.11668,0.00929 0.23689,-0.00418 0.35003,0.02787c0.17888,0.05068 0.2062,0.12135 0.27898,0.16606c0.05147,0.03163 0.05834,0.00464 0.05834,0.00464c0,0 0.05834,0.00464 0.05834,0.00464c0.0647,-0.06678 0.31086,-0.17451 0.36911,-0.18641c0.13023,-0.02659 0.23971,-0.05285 0.29805,-0.0482c0.05834,0.00464 0.10171,-0.0249 0.18138,-0.05749c0.11266,-0.04609 0.23679,-0.06345 0.36275,-0.11498c0.17813,-0.07287 0.29086,-0.08375 0.42109,-0.11034c0.11648,-0.02378 0.18138,-0.05749 0.35639,-0.04356c0.05834,0.00464 0.10171,-0.0249 0.18137,-0.05749c0.05633,-0.02304 0.17502,0.01393 0.17502,0.01393c0.05834,0.00464 0.17703,0.04162 0.23336,0.01858c0.07966,-0.03259 0.12304,-0.06214 0.18137,-0.05749c0,0 0,0 0.05834,0.00464c0,0 0.11584,-0.09768 0.24607,-0.12427c0.11647,-0.02378 0.23252,-0.0884 0.36275,-0.11498c0.05824,-0.01189 0.18137,-0.05749 0.24607,-0.12428c0.0647,-0.06678 0.18547,-0.30596 0.26514,-0.33853c0.05633,-0.02304 0.18137,-0.05749 0.23971,-0.05285c0.05834,0.00464 0.12304,-0.06214 0.18138,-0.05749c0.05834,0.00464 0.12304,-0.06214 0.12304,-0.06214c0.05834,0.00464 0.05834,0.00464 0.05834,0.00464c0.00636,-0.07142 0.00636,-0.07142 0.01272,-0.14285c0.00636,-0.07142 -0.00054,-0.13042 -0.09125,-0.29498c-0.11564,-0.20976 -0.24807,-0.45939 -0.46785,-0.6846c-0.15848,-0.1624 -0.42421,-0.41633 -0.7659,-0.63641c-0.43519,-0.2803 -1.16008,-0.67097 -1.43419,-1.04924c-0.19006,-0.26228 -0.31697,-0.706 -0.50075,-0.97493c-0.18379,-0.26894 -0.41906,-0.48569 -0.64922,-0.62712c-0.3255,-0.2 -0.78513,-0.3707 -1.18699,-0.52606c-0.56292,-0.21764 -1.20605,-0.3118 -1.67277,-0.34894c-0.40837,-0.03251 -0.70007,-0.05573 -0.75841,-0.06037l-0.05834,-0.00464"/>
   <path fill="#c3f7d2" stroke="#c3f7d2" id="svg_45" d="m63.9476,20.95248c0.05834,0.00464 0.03754,0.03599 0.11032,0.08071c0.05146,0.03162 0.05198,0.07607 0.05198,0.07607c0.11032,0.08071 0.1623,0.15678 0.21429,0.23285c0.05198,0.07607 0.08952,0.11205 0.1623,0.15677c0.05146,0.03162 0.11032,0.08071 0.1623,0.15677c0.05198,0.07607 0.03119,0.10741 0.10396,0.15213c0.05146,0.03162 0.11032,0.08071 0.11032,0.08071c0.05834,0.00464 0.05198,0.07607 0.05198,0.07607c0,0 0.06573,0.02211 0.16866,0.08536c0.07278,0.04472 0.06085,0.16977 0.09761,0.22355c0.03676,0.05379 0.08751,0.08437 0.10397,0.15214c0.02327,0.09583 0.05198,0.07607 0.09761,0.22355c0,0 0.05198,0.07607 0.05198,0.07607c0,0 -0.00636,0.07142 -0.00636,0.07142c0,0 -0.00636,0.07142 0.03927,0.21891c0,0 -0.00636,0.07142 -0.01272,0.14285c0,0 0,0 -0.00636,0.07142c0,0 -0.00636,0.07142 -0.00636,0.07142c0,0 0,0 -0.00636,0.07142c0,0 0.05198,0.07607 0.05198,0.07607c-0.00636,0.07142 -0.00636,0.07142 -0.01272,0.14285c0,0 0,0 -0.00636,0.07142c-0.01272,0.14285 -0.01272,0.14285 -0.01907,0.21426c-0.00636,0.07142 -0.01272,0.14285 -0.01272,0.14285c0,0 0,0 -0.00636,0.07142c0,0 -0.07741,0.20962 -0.08377,0.28104c-0.00636,0.07142 -0.07106,0.1382 -0.07106,0.1382c0,0 0,0 0,0c-0.00636,0.07142 -0.04794,0.08149 -0.13575,0.20498c-0.05553,0.0781 -0.12939,0.13355 -0.1941,0.20033c-0.0647,0.06678 -0.12013,0.13522 -0.13575,0.20498c-0.0494,0.22059 -0.14211,0.2764 -0.2068,0.34318c0,0 -0.0647,0.06678 -0.07106,0.1382c0,0 -0.05834,-0.00464 -0.12304,0.06214c-0.0647,0.06678 -0.07105,0.1382 -0.12939,0.13356c0,0 -0.0647,0.06678 -0.12939,0.13356c-0.0647,0.06678 -0.09,0.15776 -0.13575,0.20498c-0.04575,0.04722 -0.05834,-0.00464 -0.05834,-0.00464c0,0 0.02184,0.00721 -0.00636,0.07142c-0.03988,0.09081 -0.09,0.15776 -0.13575,0.20498c-0.0915,0.09444 -0.01272,0.14285 -0.01272,0.14285c-0.01272,0.14285 -0.03771,0.21856 -0.09648,0.42389c-0.04381,0.15305 -0.07741,0.20962 -0.08377,0.28104c0,0 0,0 0,0c0,0 -0.01895,0.01956 -0.0647,0.06678c-0.09149,0.09444 -0.10465,0.19478 -0.14846,0.34783c-0.01959,0.06844 -0.00636,0.07142 -0.01272,0.14285c0,0 0,0 0,0c0,0 -0.0647,0.06678 -0.0647,0.06678c-0.0647,0.06678 -0.07105,0.1382 -0.07741,0.20962c0,0 -0.00636,0.07142 -0.01272,0.14285c-0.00636,0.07142 -0.01272,0.14285 -0.01907,0.21426c-0.00636,0.07142 -0.00636,0.07142 -0.01272,0.14285c-0.01272,0.14285 -0.02543,0.28569 -0.03178,0.35711c-0.00636,0.07142 -0.01272,0.14285 -0.02543,0.28569c-0.00636,0.07142 -0.01272,0.14285 -0.01907,0.21426c-0.00636,0.07142 -0.00636,0.07142 -0.01272,0.14285c-0.00636,0.07142 -0.01272,0.14285 -0.01907,0.21426c-0.01272,0.14285 -0.01907,0.21426 -0.02543,0.28569c-0.00636,0.07142 -0.01272,0.14285 -0.02543,0.28569c-0.00636,0.07142 -0.01272,0.14285 -0.02543,0.2857c-0.00636,0.07142 -0.00636,0.07142 -0.01272,0.14285c0,0 -0.00636,0.07142 -0.00636,0.07142c-0.00636,0.07142 -0.01272,0.14285 -0.01272,0.14285c-0.00636,0.07142 -0.00636,0.07142 -0.01272,0.14285c-0.00636,0.07142 -0.01907,0.21426 -0.03178,0.35711c-0.00636,0.07142 -0.03178,0.35711 -0.03814,0.42854c-0.00636,0.07142 -0.01272,0.14285 -0.01907,0.21426c0,0 0,0 -0.00636,0.07142c-0.00636,0.07142 -0.01272,0.14285 -0.02543,0.28569c-0.00636,0.07142 -0.01272,0.14285 -0.01907,0.21427c-0.00636,0.07142 -0.01907,0.21426 -0.01907,0.21426c-0.00636,0.07142 -0.01272,0.14285 -0.03178,0.35711c-0.00636,0.07142 -0.01272,0.14285 -0.01272,0.14285c-0.00636,0.07142 -0.01272,0.14285 -0.01272,0.14285c-0.00636,0.07142 0.04562,0.14748 0.04562,0.14748c0.05198,0.07607 0.0672,0.09835 0.10396,0.15214c0.03676,0.05379 0.05834,0.00464 0.05198,0.07607c0,0 -0.02079,0.03135 0.05198,0.07607c0.05146,0.03162 0.0807,0.0563 0.10396,0.15213c0.01645,0.06776 -0.00636,0.07142 -0.00636,0.07142c0,0 0.05834,0.00464 0.05198,0.07607c0,0 0.05198,0.07607 0.10396,0.15213c0.05198,0.07607 0.04562,0.14748 0.10396,0.15213c0,0 0.05198,0.07607 0.05198,0.07607c0.05834,0.00464 0.11032,0.08071 0.11032,0.08071c-0.00636,0.07142 0.05198,0.07607 0.05198,0.07607c0,0 0,0 -0.00636,0.07142c0,0 0.05834,0.00464 0.05198,0.07607c-0.00636,0.07142 -0.00636,0.07142 -0.00636,0.07142c0,0 -0.00636,0.07142 -0.00636,0.07142c0,0 0,0 -0.00636,0.07142c0,0 0,0 -0.00636,0.07142c0,0 0,0 0,0c-0.00636,0.07142 0.03304,0.09562 -0.01272,0.14285c-0.09149,0.09444 -0.12558,-0.03211 -0.23971,0.05285c-0.07218,0.05373 -0.18773,0.12891 -0.18773,0.12891c0,0 -0.05834,-0.00464 -0.05834,-0.00464c-0.11668,-0.00929 -0.23335,-0.01858 -0.35003,-0.02787c-0.05834,-0.00464 -0.23335,-0.01858 -0.29169,-0.02322c-0.11668,-0.00929 -0.23867,0.01556 -0.40838,-0.03251c-0.17888,-0.05068 -0.3407,-0.15999 -0.56432,-0.26071c-0.1715,-0.07725 -0.46364,-0.1476 -0.96634,-0.36464c-0.17242,-0.07444 -0.63678,-0.30053 -0.94727,-0.57892c-0.23143,-0.2075 -0.49435,-0.45841 -0.75955,-0.70782c-0.55514,-0.5221 -0.85441,-0.93467 -1.22738,-1.39243c-0.31595,-0.38778 -0.70606,-0.76024 -1.1754,-1.31636c-0.37952,-0.44968 -0.65916,-0.80339 -1.00674,-1.23101c-0.28571,-0.3515 -0.54505,-0.67108 -0.73411,-0.99352c-0.16711,-0.28499 -0.23448,-0.66603 -0.35229,-1.32276c-0.03927,-0.21891 -0.04102,-0.58042 0.03701,-1.07599c0.0678,-0.43063 0.2513,-0.84314 0.46446,-1.25775c0.14211,-0.2764 0.20191,-0.51383 0.543,-0.81992c0.24119,-0.21644 0.37053,-0.36006 0.56955,-0.45816c0.34912,-0.17208 0.66994,-0.21507 0.90687,-0.28745c0.30946,-0.09454 0.61497,-0.22116 0.85489,-0.36352c0.19344,-0.11477 0.62154,-0.3821 0.86761,-0.50637c0.24607,-0.12427 0.4985,-0.31996 0.74457,-0.44423c0.24607,-0.12427 0.48687,-0.26293 0.80291,-0.43959c0.1212,-0.06775 0.30442,-0.11963 0.48579,-0.17712c0.18137,-0.05749 0.41886,-0.1462 0.6608,-0.16318c0.23471,-0.01646 0.47307,-0.03427 0.70643,-0.0157c0.23335,0.01858 0.40837,0.03251 0.52505,0.04179c0.05834,0.00464 0.17502,0.01393 0.23335,0.01858c0.11668,0.00929 0.23335,0.01858 0.35003,0.02787c0.17502,0.01393 0.23113,-0.0173 0.47307,-0.03427c0.05869,-0.00412 0.23336,0.01858 0.2917,0.02322c0.05834,0.00464 0.11668,0.00929 0.11668,0.00929c0.05834,0.00464 0.05834,0.00464 0.05834,0.00464c0,0 0.05834,0.00464 0.05834,0.00464c0.05834,0.00464 0.05834,0.00464 0.11668,0.00929c0,0 0.05834,0.00464 0.05834,0.00464c0,0 0.01522,0.02228 0.05198,0.07607c0.07351,0.10757 0.11668,0.00929 0.17502,0.01393c0.11668,0.00929 0.11668,0.00929 0.11668,0.00929c0.05834,0.00464 0.05834,0.00464 0.11668,0.00929c0,0 0,0 0,0l0,0l0,0" stroke-opacity="0"/>
   <path fill="#c3f7d2" opacity="100" d="m53.95142,40.21077c-4.68975,3.64116 -8.83429,15.68558 -8.9531,4.43189c-0.11881,-11.25369 -0.90195,-12.34896 3.78781,-15.99012c4.68975,-3.64116 9.21734,-2.78119 13.1891,2.80912c3.97176,5.59031 -3.33406,5.10795 -8.02382,8.74911z" id="svg_41"/>
   <path fill="#c3f7d2" opacity="100" d="m38.56033,60.65498c-6.45737,5.01356 -13.32323,5.80435 -15.34223,1.76709c-2.01899,-4.03726 1.57609,-11.36843 8.03347,-16.38198c6.45737,-5.01356 17.95213,-16.22521 15.34223,-1.76709c-2.6099,14.45812 -1.57609,11.36843 -8.03347,16.38198z" id="svg_42"/>
   <path fill="#c3f7d2" stroke-width="3" id="svg_40" d="m7.15824,36.93715c0,0 0,0 -0.01281,0.14398c-0.01281,0.14398 0.06923,0.20078 0.09294,0.29739c0.01677,0.06832 0.01635,0.12407 0.04006,0.22068c0.03354,0.13663 0.00012,0.15604 0.03365,0.29267c0.02371,0.09661 0.04647,0.1487 0.04647,0.1487c0,0 0,0 0,0c-0.00641,0.07198 0.02363,0.06557 0.03366,0.29267c0.00317,0.07181 -0.00641,0.07198 -0.01281,0.14398c0,0 0.05928,0.00472 0.05928,0.00472c-0.00641,0.07198 -0.01281,0.14398 -0.02563,0.28795c-0.01281,0.14398 0.04006,0.22069 0.03365,0.29267c0,0 -0.00641,0.07198 -0.01922,0.21596c-0.00641,0.07198 -0.01281,0.14398 -0.02563,0.28795c-0.00641,0.07198 -0.01922,0.21596 -0.02563,0.28795c-0.00641,0.07199 -0.00641,0.07199 -0.00641,0.07199c-0.00641,0.07198 -0.00641,0.07198 -0.00641,0.07198c-0.00641,0.07198 -0.03599,0.14765 -0.01922,0.21596c0.02371,0.09661 0.04647,0.1487 0.04647,0.1487c0,0 -0.00641,0.07198 -0.01281,0.14398c-0.00641,0.07198 -0.01281,0.14398 -0.01922,0.21596c-0.00641,0.07198 -0.01281,0.14398 -0.01281,0.14398c0,0 -0.00641,0.07198 -0.01281,0.14398c-0.00641,0.07198 -0.00641,0.07198 -0.01281,0.14398c-0.00641,0.07198 -0.00641,0.07198 -0.01281,0.14398c-0.00641,0.07198 -0.01281,0.14398 -0.01281,0.14398c0,0 -0.05928,-0.00472 -0.05928,-0.00472c-0.00641,0.07198 -0.03805,0.11974 -0.0785,0.21125c-0.0286,0.0647 0.03363,0.09641 -0.01281,0.14398c-0.04645,0.04757 -0.05928,-0.00472 -0.05928,-0.00472c-0.00641,0.07198 -0.01281,0.14398 -0.01281,0.14398c-0.00641,0.07199 -0.00641,0.07199 -0.01281,0.14398c0,0 0,0 -0.00641,0.07198c-0.01281,0.14398 -0.07209,0.13925 -0.0785,0.21125c0,0 -0.00641,0.07198 -0.00641,0.07198c-0.00641,0.07198 -0.00641,0.07198 -0.01281,0.14398c-0.00641,0.07198 -0.01281,0.14398 -0.01281,0.14398c-0.00641,0.07198 -0.00641,0.07198 -0.00641,0.07198c-0.00641,0.07198 -0.00641,0.07198 -0.01922,0.21596c-0.00641,0.07199 -0.01281,0.14398 -0.01922,0.21597c0,0 -0.00641,0.07198 -0.00641,0.07198c0,0 -0.00641,0.07198 -0.00641,0.07198c0,0 -0.00641,0.07198 -0.01281,0.14398c-0.00641,0.07198 -0.00641,0.07198 -0.01281,0.14398c0,0 0,0 -0.00641,0.07198c-0.00641,0.07198 -0.01281,0.14398 -0.01922,0.21596c-0.00641,0.07198 -0.00641,0.07198 -0.01281,0.14398c0,0 -0.02524,-0.02424 -0.06569,0.06728c-0.0286,0.0647 -0.07209,0.13925 -0.07209,0.13925c0,0 -0.06569,0.06727 -0.06569,0.06727c0,0 0.04004,0.02443 -0.00641,0.07198c-0.04645,0.04757 -0.04405,0.02976 -0.12497,0.06255c-0.05723,0.02319 -0.06569,0.06727 -0.06569,0.06727c0,0 -0.05928,-0.00472 -0.05928,-0.00472c0,0 0,0 0,0c-0.05928,-0.00472 -0.0658,0.0506 -0.12497,0.06255c-0.13231,0.02671 -0.13138,0.13454 -0.13138,0.13454c0,0 -0.05928,-0.00472 -0.05928,-0.00472c-0.00641,0.07198 -0.07209,0.13925 -0.07209,0.13925c0,0 -0.05928,-0.00472 -0.05928,-0.00472c0,0 -0.00641,0.07198 -0.00641,0.07198c0,0 -0.06569,0.06727 -0.06569,0.06727c-0.06569,0.06728 -0.13138,0.13454 -0.13138,0.13454c-0.06569,0.06727 -0.06569,0.06727 -0.06569,0.06727c0,0 -0.00206,-0.0279 -0.05928,-0.00472c-0.08092,0.03279 -0.13138,0.13454 -0.19707,0.2018c0,0 0,0 -0.00641,0.07198c0,0 0,0 0,0c-0.00641,0.07198 -0.00641,0.07198 -0.06569,0.06727c0,0 0.03021,0.01323 -0.00641,0.07198c-0.08187,0.13138 -0.22272,0.2935 -0.26917,0.34107c-0.04645,0.04757 -0.06569,0.06727 -0.13138,0.13454c0,0 -0.00641,0.07198 -0.00641,0.07198c0,0 0.01523,0.03447 -0.06569,0.06727c-0.05723,0.02319 -0.06569,0.06727 -0.13138,0.13454c0,0 -0.06569,0.06727 -0.06569,0.06727c0,0 -0.02524,-0.02424 -0.06569,0.06727c-0.0286,0.0647 -0.07209,0.13925 -0.13779,0.20653c0,0 0,0 -0.00641,0.07198c0,0 -0.01283,-0.05229 -0.05928,-0.00472c-0.04645,0.04757 -0.07209,0.13925 -0.13779,0.20653c-0.06569,0.06727 -0.13138,0.13454 -0.13138,0.13454c0,0 0,0 0,0c-0.07209,0.13925 -0.11558,0.21381 -0.1442,0.27851c-0.04046,0.0915 -0.06569,0.06727 -0.07209,0.13925c0,0 0,0 0,0c0,0 -0.00641,0.07199 -0.01281,0.14399c-0.00641,0.07198 -0.00641,0.07198 -0.01281,0.14398c0,0 0,0 -0.00641,0.07198c-0.00641,0.07198 -0.00641,0.07198 -0.01281,0.14398c0,0 0.05928,0.00472 0.05287,0.07671c0,0 0,0 0,0c0.05928,0.00472 0.05287,0.07671 0.05287,0.07671c0.05287,0.07671 0.07477,0.02718 0.11216,0.08143c0.03739,0.05425 0.05287,0.07671 0.10575,0.15341c0,0 0.00908,0.09445 0.04647,0.1487c0.03739,0.05425 0.11913,0.05424 0.17144,0.08615c0.07399,0.04512 0.05343,0.1215 0.10575,0.15341c0.07399,0.04512 0.07477,0.02718 0.11216,0.08143c0.03739,0.05425 -0.00641,0.07198 -0.00641,0.07198c0.05288,0.07671 0.04647,0.1487 0.09934,0.22541c0,0 0.08204,0.0568 0.10575,0.15341c0.01677,0.06831 0.04647,0.1487 0.04647,0.1487c0.05287,0.07671 0.06836,0.09917 0.10575,0.15341c0.03739,0.05425 0.06836,0.09918 0.10575,0.15342c0.03739,0.05425 0.00908,0.09445 0.04647,0.1487c0.03739,0.05425 0.03176,0.10829 0.10575,0.15341c0.05232,0.03191 0.08845,-0.01518 0.11216,0.08143c0.01677,0.06831 0.05288,0.07671 0.04647,0.1487c-0.00641,0.07198 0.06836,0.09917 0.10575,0.15341c0.07478,0.10847 -0.01281,0.14398 -0.01281,0.14398c0,0 0.03611,0.00839 0.05287,0.07671c0.02371,0.09661 0.10575,0.15341 0.15862,0.23012c0.05287,0.07671 0.0594,0.16076 0.09294,0.29739c0.02371,0.09661 0.10575,0.15341 0.15862,0.23012c0,0 0.00908,0.09445 0.04647,0.1487c0.03739,0.05425 0.03817,0.03631 0.11216,0.08143c0.05232,0.03191 0.05984,0.04952 0.11216,0.08143c0.07399,0.04512 0.10575,0.15341 0.10575,0.15341c0,0 0.07477,0.02719 0.11216,0.08144c0.03739,0.05425 0.05287,0.07671 0.05287,0.07671c0.05288,0.07671 0.03177,0.10829 0.10575,0.15341c0.05232,0.03191 0.13405,0.0319 0.17144,0.08615c0.03739,0.05425 0.03176,0.10829 0.10575,0.15341c0.05232,0.03191 0.05984,0.04952 0.11216,0.08143c0.07399,0.04512 0.12764,0.10389 0.16503,0.15813c0.03739,0.05425 0.03176,0.10829 0.10575,0.15341c0.05232,0.03191 0.04572,0.03888 0.17144,0.08615c0.05622,0.02113 0.16503,0.15813 0.16503,0.15813c0.05287,0.07671 0.11216,0.08143 0.16503,0.15813c0,0 0.05287,0.07671 0.05287,0.07671c0.05928,0.00472 0.09105,0.11301 0.16503,0.15813c0.05232,0.03191 0.05928,0.00472 0.11216,0.08143c0,0 0.06625,-0.02247 0.11856,0.00943c0.07399,0.04512 0.11216,0.08143 0.16503,0.15813c0,0 0.05928,0.00472 0.05928,0.00472c0.05928,0.00472 0.12162,-0.00698 0.17785,0.01416c0.12573,0.04726 0.11216,0.08143 0.22432,0.16286c0.11216,0.08143 0.1616,0.09791 0.22432,0.16286c0.09916,0.10268 0.16503,0.15813 0.16503,0.15813c0.05928,0.00472 0.05287,0.07671 0.11216,0.08143c0.05928,0.00472 0.05287,0.07672 0.11216,0.08144c0,0 0.05287,0.07671 0.11216,0.08143c0.05928,0.00472 0.05288,0.07671 0.11216,0.08143c0,0 0.05928,0.00472 0.11856,0.00943c0.05928,0.00472 0.09745,0.04103 0.17144,0.08615c0.05232,0.03191 0.11856,0.00943 0.17785,0.01416c0,0 0.05928,0.00472 0.11856,0.00943c0.05928,0.00472 0.11216,0.08143 0.17144,0.08615c0.05928,0.00472 0.11856,0.00943 0.17785,0.01416c0.05928,0.00472 0.11216,0.08143 0.17144,0.08615c0.11856,0.00943 0.11856,0.00943 0.11856,0.00943c0,0 0.12553,-0.01775 0.17785,0.01416c0.07399,0.04512 0.11216,0.08143 0.29001,0.09559c0.05928,0.00472 0.05928,0.00472 0.11856,0.00943c0.05928,0.00472 0.05928,0.00472 0.11216,0.08143c0,0 0.05928,0.00472 0.11856,0.00944c0.05928,0.00472 0.11856,0.00943 0.17785,0.01416c0,0 0.05928,0.00472 0.05928,0.00472c0.05928,0.00472 0.05928,0.00472 0.05928,0.00472c0.05928,0.00472 0.11856,0.00944 0.11856,0.00944c0.05928,0.00472 0.11856,0.00943 0.11856,0.00943c0.05928,0.00472 0.05928,0.00472 0.11856,0.00943c0.05928,0.00472 0.05928,0.00472 0.11856,0.00943c0.05928,0.00472 0.11856,0.00944 0.11856,0.00944c0.05928,0.00472 0.06569,-0.06727 0.06569,-0.06727c0,0 0.05928,0.00472 0.11856,0.00943c0,0 0.05928,0.00472 0.17785,0.01416c0,0 0.05928,0.00472 0.11856,0.00943c0,0 0.05928,0.00472 0.05928,0.00472c0.05928,0.00472 0.11216,0.08143 0.11216,0.08143c0,0 0.05928,0.00472 0.11856,0.00944c0,0 0.05928,0.00472 0.05928,0.00472c-0.00641,0.07198 0.06681,0.02233 0.17144,0.08615c0.07399,0.04512 0.05287,0.07671 0.11216,0.08143c0.05928,0.00472 0.08117,-0.0448 0.11856,0.00944c0.03739,0.05425 0.05287,0.07671 0.11216,0.08143c0.05928,0.00472 0.05928,0.00472 0.11216,0.08143c0,0 0.03817,0.03631 0.11216,0.08143c0.05232,0.03191 0.05928,0.00472 0.05928,0.00472c0,0 0.05928,0.00472 0.05928,0.00472c0,0 0.05928,0.00472 0.05928,0.00472c0,0 0,0 0.05928,0.00472c0,0 0.05928,0.00472 0.05928,0.00472c0,0 0,0 0.05928,0.00472c0,0 0.11856,0.00944 0.23713,0.01888c0,0 0.11856,0.00943 0.11856,0.00943c0,0 0.05287,0.07671 0.11216,0.08143c0,0 0.05928,0.00472 0.05928,0.00472c0,0 0.06625,-0.02247 0.11856,0.00944c0.07399,0.04512 0.05287,0.07671 0.11216,0.08143c0.05928,0.00472 0.11856,0.00943 0.11856,0.00943c0.05287,0.07671 0.05287,0.07671 0.11216,0.08143c0.05928,0.00472 0.11856,0.00943 0.11856,0.00943c0.11856,0.00943 0.15673,0.04574 0.23073,0.09086c0.05232,0.03191 0.11856,0.00944 0.11856,0.00944c0.05928,0.00472 0.17785,0.01416 0.23713,0.01888c0.05928,0.00472 0.05928,0.00472 0.11856,0.00944c0.05928,0.00472 0.05928,0.00472 0.11856,0.00943c0.05928,0.00472 0.06234,-0.01169 0.11856,0.00943c0.12572,0.04726 0.15033,0.11773 0.22432,0.16286c0.05232,0.03191 0.11216,0.08143 0.17144,0.08615c0.05928,0.00472 0.11216,0.08143 0.17144,0.08615c0,0 0.11216,0.08143 0.11216,0.08143c0.05287,0.07671 0.05287,0.07671 0.16503,0.15813c0,0 0.03817,0.03631 0.11216,0.08143c0.05232,0.03191 0.06625,-0.02247 0.11856,0.00944c0.07399,0.04512 0.06681,0.02233 0.17144,0.08615c0.07399,0.04512 0.11216,0.08143 0.11216,0.08143c0.05287,0.07671 0.11216,0.08143 0.11216,0.08143c0.05287,0.07671 0.09104,0.11301 0.16503,0.15814c0.05232,0.03191 0.11216,0.08143 0.11216,0.08143c0.05928,0.00472 0.11216,0.08143 0.11216,0.08143c0.05928,0.00472 0.05287,0.07671 0.11216,0.08143c0.05928,0.00472 0.07477,0.02718 0.11216,0.08143c0.03739,0.05425 0.05287,0.07671 0.05287,0.07671c0.05287,0.07671 0.11522,0.06502 0.17144,0.08615c0.12572,0.04726 0.13405,0.0319 0.17144,0.08615c0.03739,0.05425 0.05287,0.07671 0.05287,0.07671c0.05928,0.00472 0.05984,0.04952 0.11216,0.08143c0.07399,0.04512 0.05288,0.07671 0.05288,0.07671c0.05928,0.00472 0.03177,0.10829 0.10575,0.15341c0.05232,0.03191 0.11216,0.08143 0.11216,0.08143c-0.00641,0.07198 0.0297,0.08039 0.04647,0.1487c0.02371,0.09661 0.07563,0.1288 0.09934,0.22541c0.03354,0.13663 0.02064,0.23263 0.08653,0.36938c0.04167,0.08649 0.10575,0.15341 0.09934,0.22541c0,0 0.05928,0.00472 0.05928,0.00472c0,0 0,0 0.11856,0.00944c0.05928,0.00472 0.03817,0.03631 0.11216,0.08143c0.05232,0.03191 0.11216,0.08143 0.11216,0.08143c0.05287,0.07672 0.06836,0.09918 0.10575,0.15342c0.03739,0.05425 0.09105,0.11301 0.16503,0.15813c0.05232,0.03191 0.11216,0.08143 0.11216,0.08143c0,0 0.07477,0.02718 0.11216,0.08143c0.07478,0.10847 0.02329,0.15237 0.04006,0.22068c0.02371,0.09661 0.15863,0.23012 0.2115,0.30683c0.05287,0.07671 0.03346,0.08865 0.09934,0.22541c0.04167,0.08649 0.0297,0.08039 0.04647,0.1487c0.02371,0.09661 0.05126,0.2109 0.09294,0.29739c0.06589,0.13675 0.1157,0.34948 0.1394,0.44609c0.01677,0.06831 0.04647,0.1487 0.09934,0.22541c0,0 0.05287,0.07671 0.15863,0.23012c0.05287,0.07671 0.03177,0.10829 0.10575,0.15341c0.05232,0.03191 0.16503,0.15813 0.2772,0.23956c0.11216,0.08143 0.14392,0.18972 0.21791,0.23484c0.05232,0.03191 0.13405,0.0319 0.17144,0.08615c0.03739,0.05425 0.04647,0.1487 0.04647,0.1487c0,0 0.05928,0.00472 0.05928,0.00472c0,0 -0.00641,0.07198 -0.00641,0.07198c0,0 0,0 0,0c0.05287,0.07671 0.05287,0.07671 0.05287,0.07671c0,0 -0.04379,0.01775 -0.00641,0.07198c0.03739,0.05425 0.05928,0.00472 0.05928,0.00472c0,0 -0.00641,0.07198 -0.00641,0.07198c-0.00641,0.07198 -0.00641,0.07198 -0.00641,0.07198c0.05928,0.00472 0.05928,0.00472 0.05287,0.07671c0,0 -0.00641,0.07198 -0.00641,0.07198c0.05288,0.07671 0.09934,0.22541 0.09294,0.29739c-0.00641,0.07198 0.05287,0.07671 0.05287,0.07671c-0.00641,0.07198 0.04647,0.1487 0.04647,0.1487c0.05287,0.07672 0.10575,0.15342 0.10575,0.15342c0.05287,0.07671 0.13405,0.0319 0.17144,0.08615c0.03739,0.05425 0.05287,0.07671 0.10575,0.15341c0,0 0,0 0,0c0,0 0,0 0.05287,0.07671c0.05287,0.07671 0.01816,0.18891 0.09294,0.29739c0.03739,0.05425 0.05287,0.07671 0.05287,0.07671c0,0 0,0 0,0c0,0 -0.00641,0.07198 0.04647,0.1487c0,0 0.05287,0.07671 0.05287,0.07671c0,0 -0.01524,-0.02631 0.13138,-0.13454c0.11591,-0.08557 0.19707,-0.2018 0.26276,-0.26907c0.06569,-0.06727 0.05506,-0.1541 0.1442,-0.27851c0.05637,-0.07868 0.09133,-0.15895 0.13779,-0.20653c0.04645,-0.04757 0.04349,-0.07457 0.07209,-0.13926c0.04046,-0.0915 0.08493,-0.08697 0.13138,-0.13454c0.04645,-0.04757 -0.038,-0.08656 0.01922,-0.21596c0.04046,-0.0915 0.0721,-0.13925 0.08491,-0.28323c0.00641,-0.07198 0.07209,-0.13925 0.0785,-0.21125c0.01281,-0.14398 0.0785,-0.21125 0.08491,-0.28323c0.01281,-0.14398 0.08491,-0.28323 0.09132,-0.35522c0.01281,-0.14398 0.01922,-0.21596 0.03203,-0.35994c0.00641,-0.07198 0.01281,-0.14398 0.01922,-0.21597c0.00641,-0.07198 0.03203,-0.35994 0.05126,-0.57591c0.00641,-0.07198 0.01281,-0.14398 0.01922,-0.21596c0.00641,-0.07198 0.00641,-0.07198 0.01281,-0.14398c0.00641,-0.07198 -0.04647,-0.1487 -0.04006,-0.22068c0,0 -0.01161,-0.0959 -0.09294,-0.29739c-0.03637,-0.09011 -0.09934,-0.22541 -0.15222,-0.30211c-0.05287,-0.07671 -0.10575,-0.15341 -0.2115,-0.30683c-0.05288,-0.07672 -0.05343,-0.12151 -0.10575,-0.15342c-0.07399,-0.04512 -0.04647,-0.1487 -0.09294,-0.29739c-0.04647,-0.1487 -0.04006,-0.22068 -0.04006,-0.22068c0.00641,-0.07198 -0.02725,-0.36466 -0.01444,-0.50864c0.01281,-0.14398 0.03844,-0.43193 0.05126,-0.57591c0.00641,-0.07198 0.01922,-0.21596 0.02563,-0.28795c0,0 0.00641,-0.07198 0.01281,-0.14399c0.01281,-0.14398 0.01922,-0.21596 0.03844,-0.43193c0,0 0,0 0.00641,-0.07198c0.01281,-0.14398 0.01922,-0.21596 0.02563,-0.28795c0,0 0,0 0,0c0,0 0.01281,-0.14398 0.03203,-0.35994c0.01922,-0.21596 0.09773,-0.42721 0.09773,-0.42721c0.08491,-0.28323 0.09773,-0.42721 0.10414,-0.4992c0.00641,-0.07198 0.01922,-0.21596 0.02563,-0.28795c0.00641,-0.07198 0.04129,-0.1329 0.09132,-0.35522c0.01582,-0.0703 0.04692,-0.20098 0.09132,-0.35522c0.01985,-0.06898 0.01228,-0.07188 0.01281,-0.14398c0.00545,-0.73531 -0.07977,-1.40397 -0.34133,-2.20213c-0.42694,-1.30284 -0.44968,-1.47623 -1.57029,-3.82242c-0.66763,-1.39779 -0.94912,-1.90522 -1.32992,-2.49832c-0.40528,-0.63123 -0.96938,-1.48744 -1.36196,-2.13837c-0.38953,-0.64591 -0.66762,-1.08839 -0.89889,-1.30403c-0.47622,-0.44402 -0.75746,-0.68114 -1.0559,-0.88154c-0.3237,-0.21736 -0.58679,-0.36462 -0.78511,-0.56999c-0.18814,-0.19483 -0.37649,-0.40289 -0.71302,-0.70925c-0.27213,-0.24772 -0.70201,-0.60436 -1.0559,-0.88154c-0.37374,-0.29274 -0.71157,-0.6507 -0.99661,-0.87681c-0.32793,-0.26013 -0.55438,-0.47912 -0.83158,-0.71868c-0.2772,-0.23956 -0.56079,-0.40713 -0.56079,-0.40713c-0.05928,-0.00472 -0.05928,-0.00472 -0.17785,-0.01416c-0.17785,-0.01416 -0.29642,-0.02359 -0.29642,-0.02359c-0.23713,-0.01888 -0.71139,-0.05663 -0.88924,-0.07079c-0.11856,-0.00943 -0.23713,-0.01888 -0.53355,-0.04247c-0.11856,-0.00943 -0.23713,-0.01888 -0.47426,-0.03775c-0.17785,-0.01416 -0.34533,-0.06326 -0.52714,-0.11447c-0.11498,-0.03238 -0.40559,-0.16621 -0.63289,-0.26788c-0.34865,-0.15595 -0.51591,-0.19653 -0.63289,-0.26788c-0.16545,-0.1009 -0.20961,-0.12244 -0.2836,-0.16757c-0.05232,-0.03191 -0.05928,-0.00472 -0.11856,-0.00943c-0.05928,-0.00472 -0.29001,-0.09559 -0.34929,-0.10031c0,0 -0.05928,-0.00472 -0.23713,-0.01888c-0.05928,-0.00472 -0.11856,-0.00943 -0.23713,-0.01888c-0.05928,-0.00472 -0.17785,-0.01416 -0.23713,-0.01888c-0.05928,-0.00472 -0.05928,-0.00472 -0.05928,-0.00472c-0.06569,0.06727 -0.13138,0.13454 -0.19067,0.12982c-0.05928,-0.00472 -0.12497,0.06255 -0.12497,0.06255c0,0 0,0 0,0c-0.00641,0.07198 -0.00641,0.07198 -0.00641,0.07198c0,0 0,0 0,0c0,0 0,0 -0.00641,0.07198c0,0 0,0 0,0c0.05928,0.00472 0.05928,0.00472 0.05928,0.00472l0,0l-0.00641,0.07198"/>
   <path fill="#c3f7d2" stroke-width="3" id="svg_35" d="m7.74646,34.53269c-0.05834,-0.00464 -0.05115,0.0309 -0.18137,0.05749c-0.05824,0.01189 -0.12706,0.00676 -0.23971,0.05285c-0.15933,0.06517 -0.17277,0.16311 -0.25243,0.19569c-0.05633,0.02304 -0.11668,-0.00929 -0.18137,0.05749c0,0 -0.0647,0.06678 -0.0647,0.06678c-0.05834,-0.00464 -0.0647,0.06678 -0.0647,0.06678c-0.07105,0.1382 -0.07741,0.20962 -0.14211,0.2764c0,0 0,0 0,0c0,0 0,0 -0.00636,0.07142c0,0 0.02236,0.05165 0.04562,0.14748c0.03291,0.13553 0.04562,0.14749 0.03927,0.21892c-0.00636,0.07142 0.04562,0.14748 0.04562,0.14748c0,0 -0.00636,0.07142 0.05198,0.07607c0,0 0.02158,-0.04914 0.05834,0.00464c0.03676,0.05379 0.05198,0.07607 0.05198,0.07607c-0.00636,0.07142 0.05198,0.07607 0.05198,0.07607c0,0 0.01522,0.02228 0.05198,0.07607c0.03676,0.05379 0.11032,0.08071 0.11032,0.08071c0.05834,0.00464 0.11032,0.08071 0.11032,0.08071c0.05834,0.00464 0.05198,0.07607 0.11032,0.08071c0.05834,0.00464 0.05834,0.00464 0.05834,0.00464c0.05198,0.07607 0.10063,0.09239 0.1623,0.15677c0.09752,0.10181 0.12554,0.10299 0.1623,0.15677c0.03676,0.05379 0.1172,0.05374 0.16866,0.08536c0.07278,0.04472 0.08952,0.11205 0.1623,0.15677c0.05146,0.03163 0.11668,0.00929 0.16866,0.08536c0,0 0.05198,0.07607 0.11032,0.08071c0.05834,0.00464 0.05886,0.04909 0.11032,0.08071c0.07278,0.04472 0.16533,0.14049 0.22064,0.16142c0.1237,0.0468 0.17605,0.10282 0.27898,0.16606c0.07278,0.04472 0.17605,0.10282 0.27898,0.16606c0.07278,0.04472 0.14786,0.1167 0.22064,0.16142c0.05146,0.03163 0.16866,0.08536 0.16866,0.08536c0.05834,0.00464 0.05834,0.00464 0.05834,0.00464c0,0 -0.00636,0.07142 -0.00636,0.07142c0,0 0,0 0.05198,0.07607c0,0 0.00052,0.04444 0.05198,0.07607c0.07278,0.04472 0.04562,0.14749 0.09761,0.22355c0,0 0.05198,0.07607 0.10396,0.15213c0.05198,0.07607 0.12135,0.071 0.1623,0.15677c0.06474,0.13563 0.10396,0.15213 0.15595,0.2282c0.05198,0.07607 0.07434,0.12773 0.09761,0.22356c0.03291,0.13553 0.0265,0.15935 0.09125,0.29498c0.04095,0.08578 0.10396,0.15213 0.15595,0.2282c0.05198,0.07607 0.10396,0.15213 0.15595,0.2282c0.05198,0.07607 0.10865,0.21384 0.14959,0.29962c0.06474,0.13564 0.23106,0.36536 0.2472,0.52318c0.00721,0.07058 0.02282,0.15114 0.03927,0.21891c0.02327,0.09583 0.10396,0.15213 0.10396,0.15213c0.05198,0.07607 0.10396,0.15214 0.10396,0.15214c0.05198,0.07607 0.11032,0.08071 0.1623,0.15677c0.05198,0.07607 0.11032,0.08071 0.1623,0.15677c0.05198,0.07607 0.08952,0.11205 0.1623,0.15677c0.10293,0.06325 0.227,0.09 0.227,0.09c0.05834,0.00464 0.11719,0.05373 0.16866,0.08536c0.07278,0.04472 0.08952,0.11205 0.1623,0.15677c0.05146,0.03163 0.11032,0.08071 0.11032,0.08071c0.05198,0.07607 0.17553,0.05838 0.227,0.09c0.07278,0.04472 0.1846,0.11091 0.33097,0.24213c0.06546,0.05869 0.11032,0.08071 0.1623,0.15677c0.05198,0.07607 0.11032,0.08071 0.1623,0.15677c0.05198,0.07607 0.1319,0.03156 0.16866,0.08536c0.03676,0.05379 0.05886,0.04909 0.11032,0.08071c0.07278,0.04472 0.05198,0.07607 0.11032,0.08071c0.05834,0.00464 0.11668,0.00929 0.17502,0.01393c0.11668,0.00929 0.17502,0.01393 0.23336,0.01858c0.05834,0.00464 0.11668,0.00929 0.23335,0.01858c0.05834,0.00464 0.11668,0.00929 0.17502,0.01393c0.05834,0.00464 0.17502,0.01393 0.23335,0.01858c0.05834,0.00464 0.10331,0.0432 0.227,0.09c0.05532,0.02093 0.05886,0.04909 0.11032,0.08071c0.07278,0.04472 0.12407,0.02675 0.227,0.09c0.07278,0.04472 0.15529,0.11926 0.27898,0.16606c0.05532,0.02093 0.09588,0.04064 0.16866,0.08536c0.05146,0.03163 0.1032,0.02667 0.16866,0.08536c0.14636,0.13124 0.227,0.09 0.27898,0.16607c0.05198,0.07607 0.08952,0.11205 0.1623,0.15677c0.05146,0.03163 0.16866,0.08536 0.22064,0.16142c0.05198,0.07607 0.16918,0.1298 0.22064,0.16142c0.07278,0.04472 0.08952,0.11205 0.1623,0.15677c0.05146,0.03163 0.05198,0.07607 0.11032,0.08071c0,0 0,0 0.05834,0.00464c0,0 0.10331,0.0432 0.227,0.09c0.11063,0.04186 0.18147,0.06426 0.27898,0.16606c0.12335,0.12878 0.13657,0.25156 0.25991,0.38034c0.09752,0.10181 0.1623,0.15677 0.21429,0.23284c0.05198,0.07607 0.1623,0.15677 0.21429,0.23284c0.05198,0.07607 0.15261,0.16846 0.21429,0.23284c0.09752,0.10181 0.1623,0.15678 0.26627,0.30891c0.05198,0.07607 0.08317,0.18348 0.15595,0.2282c0.05146,0.03163 0.05198,0.07607 0.10396,0.15213c0,0 0,0 0,0c0,0 -0.09785,-0.15908 -0.15595,-0.2282c-0.14814,-0.17621 -0.28044,-0.28948 -0.42857,-0.4657c-0.05811,-0.06912 -0.1623,-0.15677 -0.21429,-0.23284c-0.05198,-0.07607 -0.11677,-0.13104 -0.21429,-0.23284c-0.06168,-0.06439 -0.09427,-0.16381 -0.15595,-0.2282c-0.09752,-0.10181 -0.15261,-0.16846 -0.21429,-0.23284c-0.09752,-0.10181 -0.14786,-0.1167 -0.22064,-0.16143c-0.05146,-0.03163 -0.11032,-0.08071 -0.16866,-0.08536c0,0 0,0 0,0c0,0 -0.05834,-0.00464 -0.05834,-0.00464c0,0 -0.05834,-0.00464 -0.11668,-0.00929c-0.05834,-0.00464 -0.05834,-0.00464 -0.05834,-0.00464c0.05834,0.00464 0.17026,0.02393 0.28534,0.09464c0.16274,0.10001 0.33308,0.181 0.6163,0.33678c0.16631,0.09148 0.43106,0.28001 0.60995,0.4082c0.1569,0.11242 0.30128,0.12019 0.44765,0.25142c0.06546,0.05868 0.13225,0.17767 0.20793,0.30427c0.12203,0.20413 0.19148,0.2365 0.20793,0.30427c0.02327,0.09583 0.11084,0.12516 0.1623,0.15677c0.07278,0.04472 0.11032,0.08071 0.1623,0.15677c0.05198,0.07607 0.10063,0.09239 0.1623,0.15677c0.09752,0.10181 0.19984,0.19277 0.27263,0.23749c0.05146,0.03163 0.14786,0.11671 0.22064,0.16143c0.10294,0.06325 0.15897,0.09703 0.22064,0.16142c0.09752,0.10181 0.17511,0.13568 0.27263,0.23749c0.06168,0.06439 0.07159,0.21826 0.26627,0.30891c0.05399,0.02514 0.08952,0.11205 0.1623,0.15677c0.05146,0.03163 0.13904,0.06094 0.1623,0.15677c0.01645,0.06776 0.05198,0.07607 0.10396,0.15213c0.05198,0.07607 0.08116,0.1558 0.09761,0.22355c0.02327,0.09583 0.115,0.14242 0.15595,0.22821c0.06474,0.13564 0.03927,0.21891 0.09125,0.29498c0.05198,0.07607 0.0807,0.05631 0.10396,0.15213c0.01645,0.06776 -0.00636,0.07142 -0.00636,0.07142c0.00636,-0.07142 -0.05198,-0.07607 -0.05198,-0.07607c-0.05198,-0.07607 -0.11677,-0.13104 -0.21429,-0.23284c-0.12335,-0.12878 -0.26627,-0.30892 -0.48691,-0.47034c-0.11032,-0.08071 -0.19491,-0.2562 -0.31825,-0.38498c-0.09752,-0.10181 -0.1623,-0.15677 -0.21429,-0.23284c0,0 -0.00969,0.01168 0.05198,0.07607c0.09752,0.10181 0.28189,0.22063 0.49327,0.39891c0.17042,0.14373 0.38295,0.3182 0.49327,0.39892c0.11032,0.08071 0.10444,0.21147 0.20793,0.30427c0.04629,0.0415 0.11032,0.08071 0.21429,0.23284c0,0 0.0807,0.05631 0.10396,0.15213c0.01645,0.06776 0.00887,0.0937 0.04562,0.14748c0.03676,0.05379 0.05198,0.07607 0.05198,0.07607c0,0 0,0 0,0c0.05198,0.07607 0.1172,0.05373 0.16866,0.08536c0.14557,0.08944 0.11919,0.17441 0.15595,0.2282c0.07352,0.10757 0.16866,0.08536 0.16866,0.08536c0.05834,0.00464 0.07356,0.02692 0.11032,0.08071c0.03676,0.05379 0.07356,0.02692 0.11032,0.08071c0.03676,0.05379 0.05198,0.07607 0.10396,0.15213c0.05198,0.07607 0.08316,0.18349 0.15595,0.2282c0.05146,0.03163 0.07356,0.02692 0.11032,0.08071c0.03676,0.05379 0.05198,0.07607 0.05198,0.07607c-0.00636,0.07142 -0.00636,0.07142 0.09126,0.29499c0.09761,0.22355 0.10946,0.21597 0.19522,0.44711c0.05318,0.14334 0.13688,0.44247 0.18886,0.51853c0.05198,0.07607 0.005,0.16656 0.0849,0.3664c0.03573,0.08937 0.0748,0.22722 0.09125,0.29498c0.02327,0.09583 0.1271,0.21323 0.14324,0.37105c0.00721,0.07058 0.02282,0.15116 0.03927,0.21892c0.02327,0.09583 -0.05301,0.22242 0.0849,0.3664c0.04361,0.04553 0.09675,0.08155 0.10396,0.15213c0.01614,0.15782 0.03927,0.21891 0.03292,0.29033c-0.00636,0.07142 0.01646,0.22258 0.03292,0.29033c0.02327,0.09583 0.03927,0.21891 0.0849,0.3664c0.04562,0.14748 0.04562,0.14748 0.04562,0.14748c0,0 -0.00636,0.07142 -0.00636,0.07142c0,0 0,0 -0.00636,0.07142c0,0 -0.00636,0.07142 -0.00636,0.07142c0,0 0,0 0.05834,0.00464c0.05834,0.00464 0.11668,0.00929 0.11668,0.00929c0.11668,0.00929 0.17502,0.01393 0.29169,0.02322c0.17502,0.01393 0.23335,0.01858 0.29169,0.02322c0.05834,0.00464 0.23336,0.01858 0.2917,0.02322c0.05834,0.00464 0.11668,0.00929 0.23335,0.01858c0.05834,0.00464 0.11668,0.00929 0.23335,0.01858c0.11668,0.00929 0.17703,0.04162 0.23336,0.01858c0.07966,-0.03259 0.12304,-0.06214 0.23971,-0.05285c0.11668,0.00929 0.17522,0.047 0.29169,0.02322c0.13023,-0.02659 0.18338,-0.0298 0.23971,-0.05285c0.07967,-0.03259 0.12324,-0.02907 0.23972,-0.05285c0.13023,-0.02659 0.23222,-0.06589 0.30441,-0.11963c0.11414,-0.08496 0.17418,-0.09303 0.30441,-0.11963c0.05824,-0.01189 0.16753,0.00089 0.23972,-0.05285c0.11414,-0.08496 0.38985,-0.14295 0.49214,-0.24854c0.10229,-0.10559 0.25243,-0.19569 0.4985,-0.31996c0.12304,-0.06214 0.18773,-0.12891 0.24607,-0.12427c0.05834,0.00464 0.05834,0.00464 0.12304,-0.06214c0,0 0.05834,0.00464 0.11668,0.00929c0.05834,0.00464 0.04337,-0.02955 0.12304,-0.06214c0.11266,-0.04609 0.16005,-0.02026 0.23972,-0.05285c0.11266,-0.04609 0.36677,-0.0596 0.47942,-0.10569c0.07966,-0.03259 0.10281,-0.13245 0.31077,-0.19106c0.05768,-0.01626 0.13357,-0.04074 0.31077,-0.19105c0.0695,-0.05896 0.1222,-0.1691 0.25243,-0.19569c0.05824,-0.01189 0.05449,-0.08604 0.12939,-0.13356c0.1675,-0.10624 0.23858,-0.13732 0.31077,-0.19105c0.11414,-0.08496 0.21255,-0.10489 0.25243,-0.19569c0.0282,-0.0642 0.0647,-0.06678 0.0647,-0.06678c0.00636,-0.07142 0.01272,-0.14285 0.07105,-0.1382c0.05834,0.00464 0.16641,-0.09168 0.24607,-0.12427c0.05633,-0.02304 0.14786,-0.03811 0.18774,-0.12891c0.0282,-0.0642 0.07729,-0.01491 0.12304,-0.06214c0.04574,-0.04722 0.09587,-0.11418 0.13575,-0.20498c0.0282,-0.0642 0.0647,-0.06678 0.12939,-0.13356c0.0647,-0.06678 0.07106,-0.13821 0.13575,-0.20498c0.12939,-0.13356 0.21891,-0.17631 0.25879,-0.26711c0.0282,-0.0642 0.07106,-0.1382 0.13576,-0.20498c0,0 0.00836,-0.04374 0.0647,-0.06678c0.07966,-0.03259 0.08364,-0.08633 0.12939,-0.13356c0.04574,-0.04722 0.08364,-0.08633 0.12939,-0.13356c0.04574,-0.04722 0.14198,-0.08169 0.18773,-0.12891c0.04574,-0.04722 0.04794,-0.08149 0.13575,-0.20498c0.05553,-0.07809 0.18225,-0.09692 0.26514,-0.33853c0.02299,-0.06701 0.08951,-0.04275 0.12939,-0.13356c0.0282,-0.0642 0.0983,-0.12336 0.14211,-0.2764c0.01959,-0.06845 0.07106,-0.13821 0.07106,-0.13821c0.12939,-0.13356 0.16057,-0.18096 0.20045,-0.27175c0.0282,-0.0642 0.10755,-0.14077 0.13575,-0.20498c0.03988,-0.09081 0.19409,-0.20034 0.25879,-0.26711c0.0647,-0.06678 0.29692,-0.13267 0.36911,-0.18641c0.11413,-0.08495 0.23992,-0.01977 0.35639,-0.04356c0.13023,-0.02659 0.18138,-0.05749 0.18138,-0.05749c0.05834,0.00464 0.07729,-0.01492 0.12304,-0.06214c0.04574,-0.04722 0.03166,-0.1624 0.07741,-0.20962c0.04574,-0.04722 0.0647,-0.06678 0.07106,-0.1382c0,0 0.04908,0.00297 0.0647,-0.06678c0.04939,-0.22059 0.14211,-0.2764 0.14211,-0.2764c0.0647,-0.06678 0.04921,-0.14542 0.07741,-0.20962c0.03988,-0.09081 0.08951,-0.04275 0.12939,-0.13356c0.0282,-0.06421 0.07105,-0.1382 0.13575,-0.20498c0.0647,-0.06678 0.04285,-0.07399 0.07105,-0.1382c0.07976,-0.18162 0.17734,-0.21505 0.26514,-0.33853c0.05553,-0.0781 0.11443,-0.16775 0.19409,-0.20034c0.05633,-0.02304 0.11443,-0.16775 0.19409,-0.20034c0.05633,-0.02304 0.07729,-0.01492 0.12304,-0.06214c0.04575,-0.04722 0.01472,-0.11516 0.07106,-0.1382c0.07966,-0.03259 0.07105,-0.1382 0.13575,-0.20498c0.0647,-0.06678 0.07642,-0.09995 0.1294,-0.13356c0.11844,-0.07513 0.07105,-0.1382 0.07741,-0.20962c0.00636,-0.07142 0.03823,-0.07273 0.07741,-0.20962c0.04381,-0.15305 0.12939,-0.13356 0.13575,-0.20498c0.00636,-0.07142 0.10223,-0.18559 0.14211,-0.2764c0.0564,-0.12842 0.07741,-0.20962 0.07741,-0.20962c0.00636,-0.07142 0.02543,-0.28569 0.10919,-0.56674c0,0 0.13035,-0.28298 0.21951,-0.48603c0.06306,-0.14357 0.13575,-0.20498 0.14846,-0.34782c0.00636,-0.07142 0.07106,-0.1382 0.07106,-0.1382c0.00636,-0.07142 0.10465,-0.19477 0.14846,-0.34782c0.01959,-0.06844 0.07105,-0.1382 0.13575,-0.20498c0,0 0.01552,-0.0601 0.07105,-0.1382c0.08781,-0.12348 0.13575,-0.20498 0.14211,-0.27641c0,0 0,0 0.00636,-0.07142c0.00636,-0.07142 0.02737,-0.15263 0.08377,-0.28104c0.03988,-0.09081 0.11391,-0.2122 0.14211,-0.2764c0.03988,-0.09081 0.0647,-0.06678 0.07105,-0.1382c0.01272,-0.14285 0.04708,-0.2033 0.09648,-0.42389c0.01562,-0.06975 0.07741,-0.20962 0.14846,-0.34782c0.07106,-0.1382 0.07742,-0.20962 0.14211,-0.2764c0,0 0.0647,-0.06678 0.0647,-0.06678c0.00636,-0.07142 0.04921,-0.14542 0.07741,-0.20963c0.03988,-0.09081 0.04921,-0.14542 0.07741,-0.20962c0.03988,-0.09081 0.07105,-0.1382 0.07105,-0.1382c0,0 0.00543,0.00717 0.0647,-0.06678c0.15108,-0.18854 0.25008,-0.22371 0.32983,-0.40531c0.0282,-0.06421 0.07106,-0.1382 0.14211,-0.27641c0.07106,-0.1382 0.17861,-0.27898 0.2068,-0.34318c0.03988,-0.09081 0.16376,-0.29698 0.27785,-0.48138c0.05102,-0.08248 0.1886,-0.16835 0.27149,-0.40996c0.02299,-0.06701 0.01985,-0.24384 0.16117,-0.49067c0.04847,-0.08466 0.09573,-0.18698 0.2068,-0.34319c0.08781,-0.12348 0.08377,-0.28104 0.15482,-0.41925c0.07105,-0.1382 0.119,-0.21969 0.2068,-0.34318c0.05553,-0.0781 0.13575,-0.20498 0.20045,-0.27176c0.19409,-0.20034 0.30672,-0.34861 0.39453,-0.47209c0.05554,-0.0781 0.17811,-0.13672 0.25879,-0.26711c0.07216,-0.11663 0.12705,-0.16158 0.2068,-0.34319c0.0282,-0.06421 0.07105,-0.1382 0.14211,-0.2764c0.07105,-0.1382 0.13575,-0.20498 0.2068,-0.34318c0.14211,-0.27641 0.2068,-0.34319 0.2715,-0.40996c0.12939,-0.13356 0.1866,-0.21338 0.25879,-0.26711c0.11413,-0.08495 0.1219,-0.14661 0.19409,-0.20034c0.11413,-0.08495 0.24762,-0.20351 0.31713,-0.26247c0.17721,-0.15031 0.19409,-0.20034 0.25243,-0.19569c0,0 0,0 0.05834,0.00464c0.05834,0.00464 0.10919,-0.00376 0.18137,-0.05749c0.11413,-0.08495 0.18137,-0.05749 0.23971,-0.05285c0,0 0.05834,0.00464 0.05834,0.00464c0.0647,-0.06678 0.0647,-0.06678 0.12304,-0.06214c0.05834,0.00464 0.13563,-0.01027 0.18138,-0.05749c0.04574,-0.04722 0.04794,-0.08149 0.13575,-0.20498c0.05553,-0.0781 0.2096,-0.26044 0.26514,-0.33854c0.08781,-0.12348 0.163,-0.19013 0.2068,-0.34318c0.01959,-0.06844 0.03166,-0.1624 0.07741,-0.20962c0.04574,-0.04722 0.0647,-0.06678 0.12939,-0.13356c0,0 0.1294,-0.13356 0.19409,-0.20034c0.0647,-0.06678 0.09967,-0.14666 0.13575,-0.20498c0.08067,-0.1304 0.24607,-0.12427 0.31077,-0.19105c0.12939,-0.13356 0.24607,-0.12427 0.31077,-0.19105c0,0 0.0126,0.05187 0.05834,0.00464c0.04574,-0.04722 0.0647,-0.06678 0.12939,-0.13356c0,0 0.02861,-0.00847 0.0647,-0.06678c0.08067,-0.1304 0.29543,-0.2075 0.44652,-0.39603c0.11852,-0.14789 0.37547,-0.25783 0.50486,-0.39138c0.12939,-0.13356 0.26133,-0.17287 0.37546,-0.25783c0.07219,-0.05374 0.25443,-0.16801 0.31077,-0.19105c0.07966,-0.03259 0.12939,-0.13356 0.18773,-0.12891c0.05834,0.00464 0.0647,-0.06678 0.0647,-0.06678c0,0 0.002,0.02769 0.05834,0.00464c0.07966,-0.03259 0.0647,-0.06678 0.12304,-0.06214c0,0 0.01895,-0.01956 0.0647,-0.06678c0.09149,-0.09444 0.12304,-0.06214 0.18137,-0.05749c0,0 0.06034,0.03233 0.11668,0.00929c0.07966,-0.03259 0.1294,-0.13356 0.18774,-0.12891c0,0 0.01895,-0.01956 0.0647,-0.06678c0.04574,-0.04722 0.13194,-0.03931 0.24607,-0.12427c0.07219,-0.05373 0.11443,-0.16775 0.19409,-0.20034c0.05633,-0.02304 0.12304,-0.06214 0.18137,-0.05749c0.05834,0.00464 0.12304,-0.06214 0.24607,-0.12427c0.12304,-0.06214 0.10807,-0.09633 0.18773,-0.12891c0.05633,-0.02304 0.05834,0.00464 0.12304,-0.06214c0,0 0.05834,0.00464 0.05834,0.00464c0,0 0.00609,-0.05992 0.0647,-0.06678c0.18532,-0.02168 0.23971,-0.05285 0.30441,-0.11963c0.0647,-0.06678 0.10807,-0.09633 0.18774,-0.12891c0.05633,-0.02304 0.18974,-0.10123 0.24607,-0.12427c0.07966,-0.03259 0.12939,-0.13356 0.12939,-0.13356c0.0647,-0.06678 0.0647,-0.06678 0.0647,-0.06678c0.05834,0.00464 0.09636,0.00477 0.31077,-0.19105c0.17286,-0.15788 0.25308,-0.28125 0.44652,-0.39603c0.11996,-0.07118 0.18773,-0.12891 0.31077,-0.19105c0.12304,-0.06214 0.39325,-0.21218 0.62154,-0.38209c0.07219,-0.05373 0.2958,-0.22524 0.37546,-0.25783c0.05633,-0.02304 0.12304,-0.06214 0.18774,-0.12891c0,0 0.12304,-0.06214 0.12304,-0.06214c0.12304,-0.06214 0.1314,-0.10587 0.18773,-0.12891c0.07966,-0.03259 0.0647,-0.06678 0.18773,-0.12891c0.12304,-0.06214 0.15779,-0.19729 0.31713,-0.26247c0.05633,-0.02304 0.18137,-0.05749 0.30441,-0.11963c0.12304,-0.06214 0.256,-0.03869 0.37546,-0.25783c0.03313,-0.06078 0.0647,-0.06678 0.12939,-0.13356c0.0647,-0.06678 0.12304,-0.06214 0.18774,-0.12891c0,0 0.05834,0.00464 0.05834,0.00464c0,0 0.05834,0.00464 0.05834,0.00464c0.12304,-0.06214 0.18773,-0.12891 0.24607,-0.12427c0.05834,0.00464 0.10172,-0.0249 0.18138,-0.05749c0.11266,-0.04609 0.2294,-0.01723 0.41473,-0.03891c0.11721,-0.01372 0.16005,-0.02026 0.23971,-0.05285c0.05633,-0.02304 0.11668,0.00929 0.17502,0.01393c0,0 -0.03939,-0.02421 0.00636,-0.07142c0.04575,-0.04722 0.0647,-0.06678 0.12304,-0.06214c0,0 -0.02184,-0.00721 0.00636,-0.07142c0.03988,-0.09081 0.13575,-0.20498 0.13575,-0.20498c0.00636,-0.07142 0.07106,-0.1382 0.07741,-0.20963c0.01272,-0.14285 0.01907,-0.21426 0.03178,-0.35711c0.01907,-0.21426 -0.01353,-0.31369 -0.13688,-0.44246c-0.09751,-0.10181 -0.34082,-0.18669 -1.08301,-0.37393c-0.58051,-0.14645 -1.9949,-0.64357 -2.98279,-0.81288c-1.90539,-0.32654 -3.08817,-0.33368 -4.29056,0.01809c-2.23985,0.65529 -3.38413,0.8179 -4.91731,1.11906c-0.79274,0.15572 -2.07413,0.73815 -2.97941,1.12947c-1.0528,0.4551 -1.99474,1.13949 -3.61366,1.65441c-0.47287,0.1504 -1.67119,0.33438 -2.02804,0.34206c-0.23466,0.00505 -0.23335,-0.01858 -0.29169,-0.02322c-0.05834,-0.00464 -0.52707,0.14386 -1.21129,0.40708c-1.25347,0.4822 -3.01076,0.87945 -6.69292,1.26543c-1.65837,0.17383 -3.03416,0.39279 -4.41246,0.72767c-1.08326,0.2632 -2.04657,0.66026 -3.14807,1.04412c-0.36071,0.1257 -0.48578,0.17712 -0.61518,0.31068c0,0 -0.05184,0.0109 -0.4338,0.25318c-0.42704,0.27089 -1.15651,0.60625 -2.37694,0.96165c-0.6567,0.19123 -1.32757,0.15977 -1.91136,0.35135c-0.12801,0.04201 -0.24474,0.02148 -0.47943,0.10569c-0.12728,0.04567 -0.25109,0.0929 -0.48578,0.17712c-0.12728,0.04567 -0.48903,0.16174 -0.66716,0.23461c-0.12596,0.05153 -0.30441,0.11963 -0.42109,0.11034c-0.05834,-0.00464 -0.05663,-0.03994 -0.35003,-0.02787c-0.29922,0.01232 -0.53777,0.10105 -0.71914,0.15854c0,0 -0.06637,-0.11539 -0.29169,-0.02322c-0.07966,0.03259 -0.23971,0.05285 -0.41473,0.03891c-0.05834,-0.00464 -0.05834,-0.00464 -0.17502,-0.01393c-0.05834,-0.00464 -0.11992,-0.02466 -0.29805,0.0482c-0.12596,0.05153 -0.23252,0.0884 -0.36275,0.11498c-0.05824,0.01189 -0.05834,-0.00464 -0.11668,-0.00929c-0.05834,-0.00464 -0.06479,0.05024 -0.12304,0.06214c-0.13023,0.02659 -0.19027,0.03466 -0.30441,0.11963c-0.07219,0.05373 -0.11443,0.16775 -0.19409,0.20034c-0.05633,0.02304 -0.17277,0.16311 -0.25243,0.19569c-0.05633,0.02304 -0.18974,0.10123 -0.24607,0.12427c-0.15933,0.06517 -0.19946,0.16209 -0.25243,0.19569c-0.11844,0.07513 -0.10916,0.20387 -0.31713,0.26247c-0.05768,0.01626 -0.14822,-0.0416 -0.23971,0.05285c-0.04574,0.04722 -0.07106,0.1382 -0.12939,0.13356c-0.05834,-0.00464 -0.12304,0.06214 -0.25243,0.19569c0,0 -0.05834,-0.00464 -0.0647,0.06678c0,0 0,0 -0.05834,-0.00464c-0.05834,-0.00464 -0.12304,0.06214 -0.24607,0.12427c0,0 -0.0647,0.06678 -0.0647,0.06678c-0.05834,-0.00464 -0.12504,0.03445 -0.18137,0.05749c-0.07966,0.03259 -0.14198,0.08169 -0.18773,0.12891c-0.04574,0.04722 -0.0647,0.06678 -0.0647,0.06678c-0.12304,0.06214 -0.12304,0.06214 -0.12304,0.06214l-0.0647,0.06678l0,0" stroke="#c3f7d2"/>
   <path fill="#c3f7d2" stroke="#007f3f" stroke-width="3" id="svg_9" d="m5.71714,34.42756c0.23335,0.01858 0.23335,0.01858 0.46671,0.03715c0.23335,0.01858 0.50017,-0.13779 0.7255,-0.22996c0.31866,-0.13034 0.49214,-0.24854 0.49214,-0.24854c0.25879,-0.26711 0.19891,-0.40389 0.51756,-0.53423c0.22533,-0.09217 0.28373,0.22603 0.46671,0.03715c0.18299,-0.18888 0.25879,-0.26711 0.51756,-0.53423c0,0 0.23335,0.01858 0.23335,0.01858c0.25879,-0.26711 0.25879,-0.26711 0.51756,-0.53423c0.25879,-0.26711 0.33458,-0.34535 0.51756,-0.53423c0.18299,-0.18888 0.29225,-0.44206 0.51756,-0.53423c0.31866,-0.13034 0.5256,-0.42349 0.75092,-0.51565c0.31866,-0.13034 0.33458,-0.34535 0.51756,-0.53423c0.18299,-0.18888 0.52773,-0.15724 0.98428,-0.49707c0.28875,-0.21492 0.72096,-0.56784 1.0097,-0.78276c0.45655,-0.33983 0.75895,-0.40491 0.98428,-0.49707c0.31866,-0.13034 0.50017,-0.13779 0.7255,-0.22996c0.31866,-0.13034 0.49214,-0.24854 0.75092,-0.51565c0,0 0.26681,-0.15637 0.49214,-0.24854c0.31866,-0.13034 0.45055,-0.59308 0.80178,-1.08703c0.44427,-0.6248 1.26849,-1.04988 2.01941,-1.56553c0.75092,-0.51565 1.24306,-0.76419 1.7352,-1.01272c0.49214,-0.24854 1.01987,-0.40578 1.47642,-0.74561c0.28875,-0.21492 0.75895,-0.40491 0.98428,-0.49707c0.31866,-0.13034 0.5256,-0.42349 0.75092,-0.51565c0.31866,-0.13034 0.55421,-0.48894 0.77635,-0.80134c0.35123,-0.49395 0.50141,-1.16446 0.85263,-1.65842c0.22214,-0.3124 0.57964,-0.77463 0.80178,-1.08703c0.35123,-0.49395 0.55102,-0.70918 0.77635,-0.80134c0.31866,-0.13034 0.38348,-0.4567 0.543,-0.81992c0.11279,-0.25684 0.35805,-0.17101 0.51756,-0.53423c0.11279,-0.25684 0.19684,-0.58166 0.30964,-0.8385c0.15951,-0.36322 0.38348,-0.4567 0.543,-0.81992c0.11279,-0.25684 0.10123,-0.36393 0.28421,-0.55281c0.18299,-0.18888 0.17555,-0.76096 0.33506,-1.12419c0.11279,-0.25684 0.25879,-0.26711 0.28421,-0.55281c0.02543,-0.28569 0.15012,-0.47528 0.30964,-0.8385c0.11279,-0.25684 0.07579,-0.07824 0.25879,-0.26711c0.18299,-0.18888 0.15012,-0.47528 0.30964,-0.8385c0.11279,-0.25684 0.28421,-0.55281 0.28421,-0.55281c0.25879,-0.26711 0.28421,-0.55281 0.543,-0.81992c0.25879,-0.26711 0.38544,-0.91673 0.56842,-1.10561c0.18299,-0.18888 0.19176,-0.32597 0.543,-0.81992c0.22214,-0.3124 0.77635,-0.80134 1.03514,-1.06846c0.25879,-0.26711 0.51756,-0.53423 0.77635,-0.80134c0.25879,-0.26711 0.51756,-0.53423 0.77635,-0.80134c0.25879,-0.26711 0.61684,-0.43813 0.77635,-0.80134c0.11279,-0.25684 0.38348,-0.4567 0.543,-0.81992c0.11279,-0.25684 0.28421,-0.55281 0.543,-0.81992c0,0 0.25879,-0.26711 0.25879,-0.26711c0,0 0,0 0.25879,-0.26711c0,0 0,0 0.02543,-0.28569c0,0 -0.02543,0.28569 -0.02543,0.28569c0,0 0,0 0,0c0,0 0,0 0,0c-0.02543,0.28569 -0.02543,0.28569 -0.02543,0.28569c0,0 0,0 0.23335,0.01858c0,0 0,0 0,0c0,0 0.20793,0.30427 0.44129,0.32285c0,0 0.23335,0.01858 0.23335,0.01858c-0.02543,0.28569 -0.02543,0.28569 -0.02543,0.28569c0,0 0,0 0.23335,0.01858c0,0 0.20793,0.30427 0.44129,0.32285c0,0 0,0 0,0c0,0 -0.17246,0.07054 -0.02543,0.28569c0.14703,0.21515 0.29426,0.1077 0.44129,0.32285c0.14703,0.21515 0.31968,-0.17799 0.46671,0.03715c0.14703,0.21515 -0.02543,0.28569 -0.02543,0.28569c0.23335,0.01858 0.29426,0.1077 0.44129,0.32285c0.14703,0.21515 0.20793,0.30427 0.20793,0.30427c-0.02543,0.28569 0.03547,0.37481 0.1825,0.58996c0.14703,0.21515 0.29426,0.1077 0.44129,0.32285c0.14703,0.21515 0.20793,0.30427 0.1825,0.58996c0,0 0.23335,0.01858 0.20793,0.30427c0,0 0.0609,0.08912 0.20793,0.30427c0.14703,0.21515 0.12472,0.42965 0.41585,0.60854c0.20586,0.12649 0.29426,0.1077 0.44129,0.32285c0.14703,0.21515 0.20793,0.30427 0.20793,0.30427c0.20793,0.30427 0.26883,0.39339 0.41585,0.60854c0.14703,0.21515 0.44129,0.32285 0.44129,0.32285c0.23335,0.01858 0.23335,0.01858 0.44129,0.32285c0,0 0.26085,-0.08933 0.46671,0.03715c0.29113,0.17889 0.44129,0.32285 0.67464,0.34142c0,0 0.20793,0.30427 0.20793,0.30427c0.23335,0.01858 0.46671,0.03715 0.70007,0.05573c0,0 0.23335,0.01858 0.46671,0.03715c0.23335,0.01858 0.46671,0.03715 0.70007,0.05573c0.23335,0.01858 0.23335,0.01858 0.46671,0.03715c0.23335,0.01858 0.4942,-0.07076 0.70007,0.05573c0.29113,0.17889 0.44129,0.32285 0.67464,0.34142c0.23335,0.01858 0.46671,0.03715 0.70007,0.05573c0.23335,0.01858 0.46671,0.03715 0.70007,0.05573c0.23335,0.01858 0.46671,0.03715 0.93343,0.07431c0.23335,0.01858 0.46671,0.03715 0.70007,0.05573c0.23335,0.01858 0.70007,0.05573 0.93343,0.07431c0.23335,0.01858 0.46671,0.03715 0.93343,0.07431c0.23335,0.01858 0.46671,0.03715 0.70007,0.05573c0.46671,0.03715 0.70007,0.05573 0.93343,0.07431c0.23335,0.01858 0.38351,0.16253 0.67464,0.34142c0.20586,0.12649 0.46671,0.03715 0.70007,0.05573c0.23335,0.01858 0.44129,0.32285 0.67464,0.34142c0,0 0.23335,0.01858 0.44129,0.32285c0.20793,0.30427 0.23543,0.19635 0.44129,0.32285c0.29113,0.17889 0.26883,0.39339 0.41585,0.60854c0.14702,0.21515 0.46878,0.21492 0.67464,0.34142c0.29113,0.17889 0.20999,0.48204 0.41585,0.60854c0.29113,0.17889 0.55615,0.24379 0.64922,0.62711c0.06581,0.27105 0.12473,0.42965 0.41585,0.60854c0.20586,0.12649 0.44129,0.32285 0.64922,0.62711c0.20793,0.30427 0.35808,0.44822 0.64922,0.62711c0.20586,0.12649 0.12473,0.42965 0.41585,0.60854c0.20586,0.12649 0.20793,0.30427 0.41585,0.60854c0.20793,0.30427 0.53072,0.52948 0.62379,0.91281c0.06581,0.27105 0.26883,0.39339 0.41585,0.60854c0.14702,0.21515 0.20793,0.30427 0.1825,0.58996c0,0 0.20793,0.30427 0.41585,0.60854c0,0 0.20793,0.30427 0.20793,0.30427c-0.02543,0.28569 -0.02543,0.28569 -0.02543,0.28569c0,0 0.06091,0.08912 0.20793,0.30427c0.29406,0.4303 0.1825,0.58996 0.15708,0.87565c0,0 0,0 0,0c-0.02543,0.28569 -0.02543,0.28569 -0.02543,0.28569c0,0 0,0 0,0l0.23335,0.01858l0,0"/>
   <path fill="none" stroke="#007f3f" stroke-width="3" id="svg_4" d="m63.31793,34.62348c0.02543,-0.28569 -0.06091,-0.08912 -0.20793,-0.30427c-0.29406,-0.4303 -0.15708,-0.87565 -0.13164,-1.16134c0,0 0,0 0.02543,-0.28569c0,0 0.02543,-0.28569 0.05085,-0.57138c0.02543,-0.28569 0.02543,-0.28569 0.05085,-0.57138c0.02543,-0.28569 0.05085,-0.57138 0.05085,-0.57138c0.02543,-0.28569 0.05085,-0.57138 0.07628,-0.85707c0,0 0.02543,-0.28569 0.05085,-0.57138c0.02543,-0.28569 0.05085,-0.57138 0.07628,-0.85707c0.02543,-0.28569 0.05085,-0.57138 0.07628,-0.85707c0,0 0.02543,-0.28569 0.05085,-0.57138c0,0 0.1247,-0.18959 0.28421,-0.55281c0.11279,-0.25684 0.1247,-0.18959 0.28421,-0.55281c0.11279,-0.25684 0.28421,-0.55281 0.30964,-0.8385c0,0 0,0 0.23335,0.01858c0,0 0,0 0,0c0,0 0,0 0,0c0,0 0,0 0,0c0,0 0.25879,-0.26711 0.25879,-0.26711c0,0 0,0 0.02543,-0.28569c0,0 0,0 0.02543,-0.28569c0,0 0,0 0,0l0,0"/>
   <path fill="none" stroke="#007f3f" stroke-width="3" id="svg_6" d="m64.62373,25.23285c0,0 0.04691,-0.13272 0.25879,-0.26711c0.47375,-0.30052 0.64172,-1.01503 1.08599,-1.63984c0.35123,-0.49395 0.30964,-0.8385 0.543,-0.81992c0,0 0,0 0,0c0,0 0,0 0,0l-0.02543,0.28569"/>
   <path fill="none" stroke="#007f3f" stroke-width="3" id="svg_13" d="m23.39639,65.97124c0,0 0.23335,0.01858 0.70007,0.05573c0.46671,0.03715 0.43795,-0.10504 0.95885,-0.21138c0.46591,-0.09512 0.70087,0.188 1.16678,0.09289c0.52091,-0.10634 0.7255,-0.22996 0.95885,-0.21138c0.46671,0.03715 0.6402,-0.08104 0.95885,-0.21138c0.45064,-0.18434 0.70007,0.05573 0.93343,0.07431c0.23335,0.01858 0.49214,-0.24854 0.95885,-0.21138c0.23335,0.01858 0.49254,-0.1824 0.7255,-0.22996c0.52091,-0.10634 0.73353,-0.11922 0.95885,-0.21138c0.31866,-0.13034 0.46337,-0.39073 0.98428,-0.49707c0.23296,-0.04756 0.50017,-0.13779 0.7255,-0.22996c0.31866,-0.13034 0.7255,-0.22996 0.98428,-0.49707c0,0 0.26682,-0.15637 0.49214,-0.24854c0.31866,-0.13034 0.19891,-0.40389 0.51756,-0.53423c0.22532,-0.09217 0.30915,-0.05966 0.49214,-0.24854c0.18299,-0.18887 0.43227,-0.38531 0.75092,-0.51565c0.22532,-0.09217 0.49254,-0.1824 0.7255,-0.22996c0.52091,-0.10634 0.75092,-0.51565 1.0097,-0.78276c0.25879,-0.26711 0.33458,-0.34536 0.51756,-0.53423c0.18299,-0.18887 0.54251,-0.04109 0.7255,-0.22996c0.18299,-0.18887 0.10123,-0.36393 0.28421,-0.55281c0.18299,-0.18887 0.49214,-0.24854 0.75092,-0.51565c0,0 0.25879,-0.26711 0.25879,-0.26711c0.25879,-0.26711 0.25879,-0.26711 0.51756,-0.53423c0.25879,-0.26711 0.25879,-0.26711 0.51756,-0.53423c0.25879,-0.26711 0.51756,-0.53423 0.77635,-0.80134c0,0 0.23335,0.01858 0.25879,-0.26711c0.02543,-0.28569 0.28421,-0.55281 0.543,-0.81992c0.25879,-0.26711 0.28421,-0.55281 0.543,-0.81992c0.25879,-0.26711 0.35805,-0.17102 0.51756,-0.53423c0.11279,-0.25684 0.38348,-0.45671 0.543,-0.81992c0.22559,-0.51366 0.36,-0.63105 0.543,-0.81992c0.18299,-0.18887 0.22227,-0.86735 0.33506,-1.12419c0.15951,-0.36321 0.35805,-0.17102 0.51756,-0.53423c0.11279,-0.25684 0.12665,-0.64962 0.30964,-0.8385c0.18299,-0.18888 0.25879,-0.26711 0.25879,-0.26711c0.25879,-0.26711 0.40891,-0.74239 0.56842,-1.10561c0.11279,-0.25684 0.19684,-0.58166 0.30964,-0.8385c0.15951,-0.36322 0.34284,-0.59194 0.56842,-1.10561c0.15951,-0.36322 0.36,-0.63104 0.543,-0.81992c0.18299,-0.18888 0.25879,-0.26711 0.51756,-0.53423c0.25879,-0.26711 0.543,-0.81992 0.80178,-1.08703c0.25879,-0.26711 0.45563,-0.84877 0.56842,-1.10561c0.15951,-0.36322 0.40477,-0.27739 0.51756,-0.53423c0.15951,-0.36322 0.28421,-0.55281 0.80178,-1.08703c0.25879,-0.26711 0.29225,-0.44206 0.51756,-0.53423c0.31866,-0.13034 0.29225,-0.44206 0.51756,-0.53423c0.31866,-0.13034 0.19891,-0.40389 0.51756,-0.53423c0.22532,-0.09217 0.19891,-0.40389 0.51756,-0.53423c0.22532,-0.09217 0.30915,-0.05966 0.49214,-0.24854c0.18299,-0.18888 0.30915,-0.05966 0.49214,-0.24854c0.18299,-0.18888 0.50017,-0.13779 0.7255,-0.22996c0.31866,-0.13034 0.50017,-0.13779 0.7255,-0.22996c0.31866,-0.13034 0.49214,-0.24854 0.75092,-0.51565c0.25879,-0.26711 0.49214,-0.24854 0.49214,-0.24854c0.23335,0.01858 0.30915,-0.05966 0.49214,-0.24854c0.18299,-0.18888 0.19892,-0.40389 0.51756,-0.53423c0.22533,-0.09217 0.23335,0.01858 0.23335,0.01858c0.25879,-0.26711 0.33459,-0.34535 0.51756,-0.53423c0.18299,-0.18888 0.46671,0.03715 0.46671,0.03715c0.25879,-0.26711 0.25879,-0.26711 0.51756,-0.53423c0,0 0.23335,0.01858 0.23335,0.01858c0.23335,0.01858 0.25879,-0.26711 0.49214,-0.24854c0.23335,0.01858 0.49214,-0.24854 0.49214,-0.24854c0.23335,0.01858 0.23335,0.01858 0.46671,0.03715c0,0 0.25879,-0.26711 0.49214,-0.24854c0,0 0.23335,0.01858 0.23335,0.01858c0,0 0,0 0.23335,0.01858c0,0 0.23335,0.01858 0.23335,0.01858c0,0 0,0 0,0c0,0 0.23335,0.01858 0.23335,0.01858c0,0 0.23335,0.01858 0.23335,0.01858c0,0 0,0 0,0c0,0 0,0 0,0c0.02543,-0.28569 -0.20793,-0.30427 -0.20793,-0.30427c0,0 0,0 0.02543,-0.28569c0,0 0,0 -0.23335,-0.01858c0,0 0,0 0,0c0.02543,-0.28569 0.02543,-0.28569 -0.1825,-0.58996c0,0 0,0 0,0c0,0 0,0 0,0c0,0 0,0 -0.20793,-0.30427c0,0 0,0 0,0c0.02543,-0.28569 0.02543,-0.28569 0.02543,-0.28569c0,0 -0.23335,-0.01858 -0.23335,-0.01858l0.02543,-0.28569l0,0"/>
   <path fill="none" stroke="#007f3f" id="svg_23" d="m27.57847,62.16852c0,0 0.23335,0.01858 0.70007,0.05573c0.46671,0.03715 0.7255,-0.22996 1.1922,-0.19281c0.23335,0.01858 0.49214,-0.24854 0.7255,-0.22996c0.23335,0.01858 0.49214,-0.24854 0.7255,-0.22996c0.23335,0.01858 0.49214,-0.24854 0.7255,-0.22996c0.23335,0.01858 0.49214,-0.24854 0.7255,-0.22996c0.23335,0.01858 0.50017,-0.13779 0.7255,-0.22996c0.31866,-0.13034 0.43227,-0.38531 0.75092,-0.51565c0.45064,-0.18434 0.73353,-0.11922 0.95885,-0.21138c0.31866,-0.13034 0.50017,-0.13779 0.7255,-0.22996c0.31866,-0.13034 0.75092,-0.51565 0.98428,-0.49707c0,0 0.25879,-0.26711 0.25879,-0.26711c0,0 0.0758,-0.07824 0.25879,-0.26711c0.18299,-0.18887 0.25879,-0.26711 0.49214,-0.24854c0,0 0,0 0,0l0,0l0,0l0,0"/>
   <path fill="none" stroke="#007f3f" id="svg_24" d="m36.3655,54.91965c0,0 -0.14598,0.01027 -0.25879,0.26711c-0.15951,0.36321 -0.26682,0.15637 -0.49214,0.24854c-0.31866,0.13034 -0.49214,0.24854 -0.75092,0.51565c0,0 -0.17348,0.1182 -0.49214,0.24854c-0.22532,0.09217 -0.49214,0.24854 -0.49214,0.24854c-0.23335,-0.01858 -0.50017,0.13779 -0.7255,0.22996c-0.31866,0.13034 -0.25879,0.26711 -0.49214,0.24854c-0.23335,-0.01858 -0.26682,0.15637 -0.49214,0.24854c-0.31866,0.13034 -0.25879,0.26711 -0.25879,0.26711c0,0 0,0 -0.23335,-0.01858c0,0 0.15756,0.09682 -0.02543,0.28569c-0.36597,0.37775 -0.7255,0.22996 -0.95885,0.21138c0,0 -0.25879,0.26711 -0.25879,0.26711c0,0 0,0 0.23335,0.01858c0,0 0,0 0,0c0.23335,0.01858 0.23335,0.01858 0.25879,-0.26711c0,0 0.23335,0.01858 0.23335,0.01858c0,0 0.23335,0.01858 0.23335,0.01858c0.23335,0.01858 0.25879,-0.26711 0.49214,-0.24854c0.23335,0.01858 0.28373,0.22603 0.46671,0.03715c0.18299,-0.18887 0.02543,-0.28569 0.25879,-0.26711c0,0 -0.05987,-0.13677 0.25879,-0.26711c0.22532,-0.09217 0.23335,0.01858 0.49214,-0.24854c0,0 0.20793,0.30427 0.23335,0.01858c0.02543,-0.28569 -0.23335,-0.01858 -0.23335,-0.01858c0,0 -0.23335,-0.01858 -0.23335,-0.01858c0,0 -0.23335,-0.01858 -0.23335,-0.01858c0,0 -0.20793,-0.30427 -0.20793,-0.30427c0,0 -0.23335,-0.01858 -0.23335,-0.01858c0,0 0,0 0,0c0,0 -0.23335,-0.01858 -0.23335,-0.01858c0,0 0,0 0,0c0,0 0,0 0.23335,0.01858c0,0 0,0 0.25879,-0.26711c0.25879,-0.26711 0.49214,-0.24854 0.75092,-0.51565c0.25879,-0.26711 0.51756,-0.53423 0.77635,-0.80134c0.25879,-0.26711 0.49214,-0.24854 0.75092,-0.51565c0,0 0,0 0.25879,-0.26711l0.02543,-0.28569l0.23335,0.01858l0,0"/>
   <path fill="none" stroke="#007f3f" id="svg_25" d="m42.89497,52.85c0,0 -0.35805,0.17102 -0.51756,0.53423c-0.11279,0.25684 -0.28421,0.55281 -0.543,0.81992c0,0 -0.25879,0.26711 -0.28421,0.55281c-0.02543,0.28569 -0.10123,0.36393 -0.28421,0.55281c-0.18299,0.18887 -0.25879,0.26711 -0.28421,0.55281c0,0 0,0 -0.23335,-0.01858c0,0 -0.02543,0.28569 -0.02543,0.28569c-0.25879,0.26711 -0.25879,0.26711 -0.28421,0.55281c0,0 0,0 0,0c-0.25879,0.26711 -0.51756,0.53423 -0.28421,0.55281c0.23335,0.01858 0.02543,-0.28569 0.02543,-0.28569c0.02543,-0.28569 0.02543,-0.28569 0.05085,-0.57138c0,0 0.25879,-0.26711 0.28421,-0.55281c0,0 0.25879,-0.26711 0.25879,-0.26711c0,0 0.17142,-0.29596 0.28421,-0.55281c0.15951,-0.36321 0.25879,-0.26711 0.28421,-0.55281c0,0 0.17142,-0.29596 0.28421,-0.55281c0.15951,-0.36321 0.25879,-0.26711 0.28421,-0.55281c0,0 0,0 0,0c-0.23335,-0.01858 -0.23335,-0.01858 -0.23335,-0.01858c-0.25879,0.26711 -0.49214,0.24854 -0.7255,0.22996c-0.23335,-0.01858 -0.49214,0.24854 -0.7255,0.22996c0,0 -0.25879,0.26711 -0.49214,0.24854c0,0 -0.23335,-0.01858 -0.25879,0.26711c0,0 -0.23335,-0.01858 -0.23335,-0.01858c0,0 0,0 0.23335,0.01858c0,0 0.17142,-0.29596 0.28421,-0.55281c0.15951,-0.36321 0.51756,-0.53423 0.80178,-1.08703c0.28421,-0.55281 0.48105,-1.13446 0.59385,-1.3913c0.15951,-0.36321 0.4302,-0.56308 0.543,-0.81992c0.15951,-0.36321 0.28421,-0.55281 0.543,-0.81992c0,0 0.02543,-0.28569 0.02543,-0.28569c0,0 0,0 0.25879,-0.26711l0,0l0,0l-0.02543,0.28569"/>
   <path fill="none" stroke="#007f3f" id="svg_26" d="m62.79585,32.56792c0,0 0,0 -0.23335,-0.01858c-0.46671,-0.03715 -0.70007,-0.05573 -0.70007,-0.05573c-0.25879,0.26711 -0.75092,0.51565 -1.24306,0.76419c-0.49214,0.24854 -0.78651,0.42436 -1.24306,0.76419c-0.28875,0.21492 -0.45769,0.671 -0.77635,0.80134c-0.22533,0.09217 -0.43227,0.38531 -0.75092,0.51565c-0.22533,0.09217 -0.19892,0.40389 -0.51756,0.53423c-0.22532,0.09217 -0.30915,0.05966 -0.49214,0.24854c-0.18299,0.18888 -0.02543,0.28569 -0.25879,0.26711c0,0 0,0 0,0c-0.02543,0.28569 -0.02543,0.28569 -0.02543,0.28569c0,0 0,0 0,0c0,0 -0.40581,0.05196 -0.25879,0.26711c0.14703,0.21515 0.25879,-0.26711 0.25879,-0.26711c0,0 0,0 0,0c0.25879,-0.26711 0.12665,-0.64962 0.30964,-0.8385c0.18299,-0.18888 0.51756,-0.53423 0.77635,-0.80134c0,0 0.25879,-0.26711 0.25879,-0.26711c0.25879,-0.26711 0.33459,-0.34535 0.51756,-0.53423c0.18299,-0.18888 0.23335,0.01858 0.23335,0.01858l0,0l0,0l0,0"/>
   <path fill="none" stroke="#007f3f" id="svg_27" d="m61.33583,27.84826c0,0 0.24139,0.12932 0.46671,0.03715c0.31866,-0.13034 0.25879,-0.26711 0.49214,-0.24854c0,0 0,0 0,0c0,0 0,0 0,0c0.23335,0.01858 0.23335,0.01858 0.23335,0.01858c0,0 0,0 0,0c0,0 0,0 0,0c-0.23335,-0.01858 -0.23335,-0.01858 -0.23335,-0.01858c-0.23335,-0.01858 -0.23335,-0.01858 -0.23335,-0.01858c-0.23335,-0.01858 -0.23335,-0.01858 -0.23335,-0.01858c0,0 -0.23335,-0.01858 -0.23335,-0.01858c-0.23335,-0.01858 -0.23335,-0.01858 -0.46671,-0.03715c0,0 -0.23335,-0.01858 -0.23335,-0.01858c-0.23335,-0.01858 -0.46671,-0.03715 -0.46671,-0.03715c-0.23335,-0.01858 -0.0758,0.07824 -0.25879,0.26711c-0.18299,0.18888 -0.40684,0.09962 -0.7255,0.22996c-0.22533,0.09217 -0.23335,-0.01858 -0.25879,0.26711c0,0 -0.23335,-0.01858 -0.23335,-0.01858c0,0 0,0 0,0c0,0 0.05987,0.13677 -0.25879,0.26711c-0.22533,0.09217 -0.44129,-0.32285 -0.46671,-0.03715c-0.02543,0.28569 0.23335,0.01858 0.23335,0.01858c0.23335,0.01858 0.23335,0.01858 0.23335,0.01858c0.23335,0.01858 0.25879,-0.26711 0.49214,-0.24854c0,0 0.30915,-0.05966 0.49214,-0.24854c0.18299,-0.18888 0.22882,-0.31931 0.51756,-0.53423c0.45655,-0.33983 0.75895,-0.40491 0.98428,-0.49707c0.31866,-0.13034 0.49214,-0.24854 0.49214,-0.24854c0.25879,-0.26711 0.49214,-0.24854 0.49214,-0.24854c0.23335,0.01858 0.46671,0.03715 0.46671,0.03715c0.23335,0.01858 0.17348,-0.1182 0.49214,-0.24854c0.22533,-0.09217 0.46671,0.03715 0.46671,0.03715c0.23335,0.01858 0.46671,0.03715 0.46671,0.03715c0.23335,0.01858 0.23335,0.01858 0.23335,0.01858c0,0 0.23335,0.01858 0,0c0,0 0,0 0,0c-0.23335,-0.01858 -0.23335,-0.01858 -0.46671,-0.03715c0,0 0,0 -0.23335,-0.01858c-0.23335,-0.01858 -0.23335,-0.01858 -0.46671,-0.03715c0,0 -0.25879,0.26711 -0.49214,0.24854c-0.23335,-0.01858 -0.23335,-0.01858 -0.49214,0.24854c0,0 -0.17348,0.1182 -0.49214,0.24854c-0.22533,0.09217 -0.46671,-0.03715 -0.70007,-0.05573l-0.23335,-0.01858l-0.02543,0.28569l0,0"/>
   <path fill="none" stroke="#007f3f" id="svg_29" d="m50.5387,35.62017c0,0 -0.02543,0.28569 -0.28421,0.55281c-0.25879,0.26711 -0.19891,0.40389 -0.51756,0.53423c-0.22532,0.09217 -0.25879,0.26711 -0.25879,0.26711c0,0 -0.25879,0.26711 -0.25879,0.26711c-0.25879,0.26711 -0.49214,0.24854 -0.75092,0.51565c0,0 -0.25879,0.26711 -0.25879,0.26711c-0.02543,0.28569 -0.51756,0.53423 -0.77635,0.80134c-0.25879,0.26711 -0.543,0.81992 -0.543,0.81992c0,0 -0.25879,0.26711 -0.25879,0.26711c-0.02543,0.28569 -0.02543,0.28569 -0.02543,0.28569c0,0 0,0 0,0c0,0 0,0 0,0c0.23335,0.01858 0.25879,-0.26711 0.25879,-0.26711c0.23335,0.01858 0.17348,-0.1182 0.49214,-0.24854c0.22532,-0.09217 0.46671,0.03715 0.46671,0.03715c0.23335,0.01858 0.44129,0.32285 0.46671,0.03715c0.02543,-0.28569 -0.23335,-0.01858 -0.23335,-0.01858l0,0"/>
   <path fill="none" stroke="#007f3f" id="svg_30" d="m47.16263,47.14772c0,0 -0.06194,-0.31455 0.05085,-0.57138c0.15951,-0.36322 0.28421,-0.55281 0.543,-0.81992c0.25879,-0.26711 0.38348,-0.4567 0.543,-0.81992c0.11279,-0.25684 0.38348,-0.4567 0.543,-0.81992c0.11279,-0.25684 0.2172,-0.61165 0.56842,-1.10561c0.22214,-0.3124 0.45055,-0.59308 0.80178,-1.08703c0.22214,-0.3124 0.4302,-0.56308 0.543,-0.81992c0.15951,-0.36322 0.51756,-0.53423 0.51756,-0.53423c0.25879,-0.26711 0.25879,-0.26711 0.25879,-0.26711c0,0 0,0 0,0c0.02543,-0.28569 0.17142,-0.29597 0.28421,-0.55281c0.15951,-0.36322 0.36,-0.63104 0.543,-0.81992c0.18299,-0.18888 0.23335,0.01858 0.23335,0.01858c0,0 0,0 0,0c0,0 0.07579,-0.07824 0.25879,-0.26711c0.18299,-0.18888 0.02543,-0.28569 0.02543,-0.28569c0,0 0,0 0.25879,-0.26711c0,0 0,0 0,0c0.02543,-0.28569 0.02543,-0.28569 0.02543,-0.28569c0.23335,0.01858 0.17142,-0.29597 0.28421,-0.55281c0.15951,-0.36322 0.25879,-0.26711 0.28421,-0.55281l0,0"/>
   <path fill="none" stroke="#007f3f" id="svg_31" d="m56.85572,30.65647c0,0 -0.17348,0.1182 -0.49214,0.24854c-0.22532,0.09217 -0.49214,0.24854 -0.49214,0.24854c-0.7255,0.22996 -1.15776,0.61527 -1.47642,0.74561c-0.45064,0.18434 -0.7255,0.22996 -0.7255,0.22996c0,0 -0.25879,0.26711 -0.49214,0.24854l0,0l-0.23335,-0.01858l-0.02543,0.28569"/>
   <path fill="none" stroke="#007f3f" stroke-width="3" id="svg_32" d="m42.10507,45.88196c0,0 0.00803,0.11074 0.23335,0.01858c0.31866,-0.13034 0.49214,-0.24854 0.49214,-0.24854c0.02543,-0.28569 0.25879,-0.26711 0.25879,-0.26711c0,0 0,0 0,0c-0.23335,-0.01858 -0.23335,-0.01858 -0.23335,-0.01858c0,0 -0.23335,-0.01858 -0.25879,0.26711l0,0l0,0"/>
   <path id="svg_8" d="m3.76777,46.58649c-0.14197,7.29928 6.55543,8.71712 9.47324,9.23916c5.25687,0.62368 11.17293,5.36361 10.81832,11.18945" opacity="100" stroke-width="2" stroke="#007f3f" fill="none"/>
   <path id="svg_7" d="m6.21539,34.68901c1.58579,6.09447 4.68374,10.22311 9.18531,9.99213c4.96892,-0.58114 8.43736,4.00817 10.38642,9.83401" opacity="100" stroke-width="2" stroke="#007f3f" fill="none"/>
   <path id="svg_11" d="m3.23753,47.48866c4.87338,-1.58882 5.53889,-4.37008 2.86044,-12.19874" opacity="100" stroke-width="2" stroke="#007f3f" fill="none"/>
   <path id="svg_10" d="m24.27799,65.92112c5.38916,-3.56985 5.7485,-11.08223 3.11739,-12.77058" opacity="100" stroke-width="2" stroke="#007f3f" fill="none"/>
   <path id="svg_12" d="m25.37581,53.81588c10.46021,-2.797 11.76625,-6.54325 18.07789,-16.07257c6.92938,-11.65809 10.07857,-13.416 22.62454,-15.93336" opacity="100" stroke-width="2" stroke="#007f3f" fill="none"/>
   <path d="m6.77132,46.21011c0,0 0.28796,0.1506 0.43194,0.3012c0.14398,0.1506 0.15494,0.09297 0.28796,0.1506c0.18812,0.0815 0.18615,0.19471 0.28796,0.3012c0.10181,0.10649 0.14398,0.1506 0.28796,0.3012c0,0 0.14398,0.1506 0.14398,0.1506c0,0 0,0.1506 0,0.1506c0.14398,0 0.08888,0.01147 0.14398,0.1506c0.07792,0.19677 0.18615,0.19471 0.28796,0.3012c0.10181,0.10649 0,0.1506 0,0.1506c0,0 0,0 0,0c0,0 -0.08367,0.06308 0.14398,0.3012c0.22765,0.23812 0.24369,0.17861 0.43194,0.4518c0.11906,0.17278 0.14398,0.3012 0.28796,0.3012l0,0.1506l0,0l0,0" id="svg_15" stroke="#007f3f" fill="none"/>
   <path d="m27.79217,59.61356c-0.14398,0 -0.17076,-0.1043 -0.43194,-0.30121c-0.16518,-0.12453 -0.14398,-0.1506 -0.43194,-0.4518c-0.14398,-0.1506 -0.43194,-0.3012 -0.57591,-0.4518c-0.14398,-0.1506 -0.41073,-0.32727 -0.57591,-0.4518c-0.26118,-0.1969 -0.45872,-0.2549 -0.71989,-0.4518c-0.16518,-0.12454 -0.14398,-0.1506 -0.28796,-0.3012c-0.14398,-0.1506 -0.24382,-0.2197 -0.43194,-0.3012c-0.13302,-0.05763 -0.28796,-0.1506 -0.43194,-0.1506l0,0l0,0" id="svg_16" stroke="#007f3f" fill="none"/>
   <path d="m19.44142,52.38473c0,0 -0.16298,0.03685 -0.71989,-0.3012c-0.44899,-0.27255 -1.00785,-0.753 -1.72774,-1.05421c0,0 -0.62948,-0.3592 -1.15183,-0.753c-0.49555,-0.3736 -0.89065,-0.7067 -1.15183,-0.90361c-0.33036,-0.24906 -0.57977,-0.4172 -0.71989,-0.4518c-0.31333,-0.07737 -0.57591,-0.3012 -0.71989,-0.4518l-0.14398,-0.1506l-0.14398,0l0,0" id="svg_17" stroke="#007f3f" fill="none"/>
   <path d="m18.00163,54.34254c0.14398,0 0.14398,0 0.57591,0c0.28796,0 0.45872,-0.0463 0.71989,0.1506c0.33037,0.24906 0.57591,0.4518 0.71989,0.6024c0.28796,0.3012 0.58687,0.39417 0.71989,0.4518c0.18812,0.0815 0.14398,0.3012 0.28796,0.4518c0,0 0.04217,0.19471 0.14398,0.3012c0.10181,0.10649 0.14398,0.1506 0.28796,0.3012l0,0.1506l0.14398,0.1506l0,0" id="svg_18" stroke="#007f3f" fill="none"/>
   <path fill="#f6f9c0" stroke-width="3" id="svg_14" d="m45.22673,55.34752c0,0 0,0 0,0c0,0 0,0 0,0c0.02709,-0.30176 0.02709,-0.30176 0.02709,-0.30176c-0.25102,-0.01981 -0.22393,-0.32157 -0.22393,-0.32157c0,0 -0.22393,-0.32157 -0.22393,-0.32157c-0.22393,-0.32157 -0.44786,-0.64314 -0.42077,-0.9449c0.02709,-0.30176 -0.22393,-0.32157 -0.19685,-0.62333c0.02709,-0.30176 -0.22393,-0.32157 -0.22393,-0.32157c0.02709,-0.30176 0.05418,-0.60352 0.05418,-0.60352c-0.22393,-0.32157 -0.09872,-0.63871 -0.16975,-0.92509c-0.10046,-0.40499 -0.32031,-0.53991 -0.42077,-0.9449c-0.07103,-0.28637 -0.07163,-0.94048 -0.14267,-1.22684c-0.10046,-0.40499 -0.32367,-0.57978 -0.39368,-1.24665c-0.03131,-0.29824 -0.0385,-0.39594 -0.19685,-0.62333c-0.15835,-0.22738 0.05418,-0.60352 -0.16975,-0.92509c0,0 0.02709,-0.30176 0.02709,-0.30176c-0.22393,-0.32157 -0.22393,-0.32157 -0.19685,-0.62333c0.02709,-0.30176 0.02709,-0.30176 0.05418,-0.60352c0,0 -0.22393,-0.32157 -0.19685,-0.62333c0.02709,-0.30176 -0.0693,-0.5201 -0.16975,-0.92509c-0.07103,-0.28637 0.05418,-0.60352 -0.19685,-0.62333c0,0 0.02709,-0.30176 0.02709,-0.30176c0.02709,-0.30176 0.05418,-0.60352 0.05418,-0.60352c-0.25102,-0.01981 -0.22393,-0.32157 -0.22393,-0.32157c0,0 0,0 0.02709,-0.30176c0,0 0,0 0,0c0.02709,-0.30176 0.02709,-0.30176 0.02709,-0.30176c0.02709,-0.30176 0.02709,-0.30176 0.02709,-0.30176c0,0 0,0 -0.25102,-0.01981c0,0 0,0 0.02709,-0.30176c0,0 0,0 0,0c0,0 0,0 0,0c-0.22393,-0.32157 -0.19685,-0.62333 -0.42077,-0.9449c-0.22393,-0.32157 -0.44786,-0.64314 -0.67179,-0.96471c-0.22393,-0.32157 -0.47734,-0.52917 -0.69888,-0.66295c-0.31331,-0.18919 -0.47324,-0.58129 -1.17384,-1.00434c-0.49539,-0.29914 -1.00492,-0.59367 -1.42485,-1.02415c-0.26559,-0.27226 -0.61556,-0.76158 -1.14674,-1.3061c-0.41993,-0.43048 -0.72835,-0.54898 -0.9499,-0.68276c-0.31331,-0.18919 -0.47495,-0.34138 -0.47495,-0.34138c-0.22393,-0.32157 -0.13455,-0.45394 -0.44786,-0.64314c-0.22154,-0.13378 -0.25102,-0.01981 -0.47495,-0.34138c0,0 0,0 -0.25102,-0.01981c-0.25102,-0.01981 -0.47495,-0.34138 -0.47495,-0.34138c-0.25102,-0.01981 -0.41265,-0.172 -0.72597,-0.36119c-0.22154,-0.13378 -0.50442,-0.22741 -0.72597,-0.36119c-0.31331,-0.18919 -0.50681,-0.4152 -0.9499,-0.68276c-0.31331,-0.18919 -0.28952,-0.41575 -0.44786,-0.64314c-0.15835,-0.22738 -0.47495,-0.34138 -0.72597,-0.36119c0,0 -0.13455,-0.45394 -0.44786,-0.64314c-0.22154,-0.13378 -0.47495,-0.34138 -0.47495,-0.34138c-0.22393,-0.32157 -0.38557,-0.47376 -0.69888,-0.66295c-0.22154,-0.13378 -0.47495,-0.34138 -0.47495,-0.34138c-0.22393,-0.32157 -0.56763,-0.13381 -0.72597,-0.36119c-0.15835,-0.22738 -0.00238,-0.18779 -0.22393,-0.32157c-0.31331,-0.18919 -0.47495,-0.34138 -0.69888,-0.66295c-0.22393,-0.32157 -0.38557,-0.47376 -0.69888,-0.66295c-0.22155,-0.13378 -0.47495,-0.34138 -0.47495,-0.34138c-0.22393,-0.32157 -0.22393,-0.32157 -0.22393,-0.32157c-0.25102,-0.01981 -0.28952,-0.41575 -0.44786,-0.64314c-0.15835,-0.22738 -0.47495,-0.34138 -0.47495,-0.34138c-0.22393,-0.32157 -0.31661,-0.114 -0.47495,-0.34138c-0.15835,-0.22738 0.02709,-0.30176 0.02709,-0.30176c0,0 -0.09268,0.20757 -0.25102,-0.01981c-0.15835,-0.22738 -0.22393,-0.32157 -0.19685,-0.62333c0,0 0,0 0,0c-0.25102,-0.01981 -0.25102,-0.01981 -0.25102,-0.01981c0,0 0.02709,-0.30176 -0.22393,-0.32157c0,0 0,0 0,0c0.02709,-0.30176 0.02709,-0.30176 -0.22393,-0.32157c0,0 0,0 0,0c0.25102,0.01981 0.25102,0.01981 0.25102,0.01981c0.02709,-0.30176 0.02709,-0.30176 0.02709,-0.30176c0.25102,0.01981 0.25102,0.01981 0.25102,0.01981c0.02709,-0.30176 0.08145,-0.08258 0.27811,-0.28195c0.19665,-0.19937 0.10855,-0.38434 0.3052,-0.58371c0.19665,-0.19937 0.27811,-0.28195 0.27811,-0.28195c0,0 0.15702,-0.01074 0.27811,-0.28195c0.17124,-0.38355 0.35956,-0.36452 0.55622,-0.56389c0.19665,-0.19937 0.3052,-0.58371 0.3052,-0.58371c0.25102,0.01981 0.27811,-0.28195 0.27811,-0.28195c0.25102,0.01981 0.08145,-0.08258 0.27811,-0.28195c0.19665,-0.19937 0.18649,-0.12471 0.52913,-0.26214c0.24228,-0.09718 0.27811,-0.28195 0.52913,-0.26214c0,0 0,0 0.27811,-0.28195c0,0 0,0 0,0c0.27811,-0.28195 0.27811,-0.28195 0.27811,-0.28195c0.25102,0.01981 0.25102,0.01981 0.25102,0.01981c0,0 0.08145,-0.08258 0.27811,-0.28195c0.19665,-0.19937 0.27811,-0.28195 0.27811,-0.28195c0,0 0,0 0,0c0,0 -0.16956,-0.10239 0.02709,-0.30176c0.19665,-0.19937 0.25102,0.01981 0.25102,0.01981c0.02709,-0.30176 0.02709,-0.30176 0.27811,-0.28195c0,0 0.06559,0.09419 0.22393,0.32157c0.15835,0.22738 0.25341,0.2076 0.47495,0.34138c0.31331,0.18919 0.47495,0.34138 0.69888,0.66295c0.22393,0.32157 0.38557,0.47376 0.69888,0.66295c0.22154,0.13378 0.22393,0.32157 0.47495,0.34138c0,0 0.09268,-0.20757 0.25102,0.01981c0.15835,0.22738 0.22393,0.32157 0.22393,0.32157c0.22393,0.32157 0.22393,0.32157 0.22393,0.32157c0.25102,0.01981 0.47495,0.34138 0.47495,0.34138c0.25102,0.01981 0.47495,0.34138 0.47495,0.34138c0.25102,0.01981 0.20937,0.06913 0.47495,0.34138c0.41993,0.43048 0.72597,0.36119 0.9499,0.68276c0.22393,0.32157 0.35848,0.77551 0.67179,0.96471c0.22154,0.13378 0.50442,0.22741 0.72597,0.36119c0.31331,0.18919 0.44786,0.64314 0.44786,0.64314c0.22393,0.32157 0.47734,0.52917 0.69888,0.66295c0.31331,0.18919 0.39045,0.78638 0.92281,0.98452c0.23808,0.08861 0.68432,0.41051 0.9499,0.68276c0.41993,0.43048 0.9499,0.68276 1.17384,1.00434c0.22393,0.32157 0.47734,0.52917 0.69888,0.66295c0.31331,0.18919 0.69888,0.66295 0.92281,0.98452c0.22393,0.32157 0.4608,0.57434 0.69888,0.66295c0.53236,0.19815 0.6095,0.79532 0.92281,0.98452c0.22154,0.13378 0.38557,0.47376 0.69888,0.66295c0.22154,0.13378 0.50204,0.03962 0.72597,0.36119c0,0 0.16164,0.15219 0.47495,0.34138c0.22154,0.13378 0.75545,0.24722 0.97699,0.381c0.31331,0.18919 0.22393,0.32157 0.47495,0.34138c0,0 0.25102,0.01981 0.22393,0.32157c0,0 0,0 0,0c0.22393,0.32157 0.31661,0.114 0.47495,0.34138c0.15835,0.22738 -0.02709,0.30176 0.22393,0.32157c0,0 -0.02709,0.30176 0.22393,0.32157c0,0 0,0 0,0c0,0 0,0 0,0c0.25102,0.01981 0.25102,0.01981 0.25102,0.01981c0.22393,0.32157 0.22393,0.32157 0.22393,0.32157c-0.02709,0.30176 -0.02709,0.30176 -0.02709,0.30176c0,0 0,0 0,0c-0.02709,0.30176 -0.05418,0.60352 0.19685,0.62333c0,0 -0.02709,0.30176 -0.02709,0.30176c0,0 0,0 0,0c-0.02709,0.30176 0.06559,0.09419 0.22393,0.32157c0.15835,0.22738 -0.05418,0.60352 -0.05418,0.60352c0,0 0,0 0,0c-0.02709,0.30176 0.22393,0.32157 0.22393,0.32157c-0.02709,0.30176 0.09638,0.21834 0.19685,0.62333c0.07103,0.28637 -0.02709,0.30176 -0.05418,0.60352c-0.02709,0.30176 0.19685,0.62333 0.16975,0.92509c-0.02709,0.30176 0.09974,0.25821 0.16975,0.92509c0.03131,0.29824 -0.25042,0.63429 -0.10836,1.20703c0.10046,0.40499 0.19685,0.62333 0.16975,0.92509c-0.02709,0.30176 0.0693,0.5201 0.16975,0.92509c0.14207,0.57274 -0.08126,0.90527 -0.13544,1.50879c0,0 -0.02709,0.30176 0.19685,0.62333c0,0 -0.02709,0.30176 -0.02709,0.30176c0,0 -0.12521,0.31715 -0.05418,0.60352c0.10046,0.40499 0.07163,0.94048 0.14267,1.22684c0.10046,0.40499 0.22393,0.32157 0.19685,0.62333c-0.02709,0.30176 -0.05418,0.60352 -0.05418,0.60352c0.22393,0.32157 0.09872,0.63872 0.16975,0.92509c0.10046,0.40499 0.22393,0.32157 0.19685,0.62333c-0.02709,0.30176 0.19685,0.62333 0.19685,0.62333c-0.02709,0.30176 -0.05418,0.60352 -0.05418,0.60352c-0.02709,0.30176 -0.02709,0.30176 -0.02709,0.30176c0,0 0,0 -0.02709,0.30176c0,0 0,0 0,0c0,0 0,0 0,0c0,0 0,0 0,0c-0.25102,-0.01981 -0.25102,-0.01981 -0.25102,-0.01981c0,0 0,0 0,0c0,0 -0.10855,0.38434 -0.3052,0.58371c-0.19665,0.19936 -0.52913,0.26214 -0.55622,0.56389c-0.02709,0.30176 -0.02709,0.30176 -0.27811,0.28195c0,0 0,0 0,0c0,0 -0.02709,0.30176 -0.3052,0.58371c-0.27811,0.28195 -0.55622,0.56389 -0.86142,1.1476c0,0 -0.27811,0.28195 -0.27811,0.28195c0,0 0,0 0,0c0,0 -0.18411,0.3125 -0.3052,0.58371c-0.17124,0.38354 -0.27811,0.28195 -0.55622,0.56389c0,0 0,0 0,0c0,0 0,0 0,0c0,0 0,0 0,0l0.02709,-0.30176"/>
  </g>
 </g>
</svg>