<svg width="70" height="70" xmlns="http://www.w3.org/2000/svg" version="1.1">
 <title>Ro</title>

 <g>
  <title>Layer 1</title>
  <path id="svg_2" d="m15.80743,59.23196l37.02314,-0.72031l15.71146,-8.8333l0.58191,-20.55095l-4.9462,-13.70063l-12.94741,-5.94896l-15.71146,0.90136l-9.3105,-6.12923l-14.2567,0.18027l-8.29216,10.45575l-2.90953,12.43873l0.72738,17.84688l3.78239,10.81629l10.54767,3.24411z" opacity="NaN" stroke="#706f6f" fill="#b2b2b2"/>
  <path id="svg_8" d="m53.71167,58.07916l4.57672,-24.77475l9.95935,16.66253l-14.53607,8.11222z" stroke="#706f6f" fill="#969090"/>
  <path id="svg_9" d="m9.18352,28.40125l3.10726,-23.59304l13.87254,-0.39752l13.01423,17.71803l-15.7427,13.39536l-14.25132,-7.12283z" stroke="#706f6f" fill="#d1d1d1"/>
  <line id="svg_11" y2="58.87142" x2="16.09839" y1="35.25586" x1="23.66317" stroke="#706f6f" fill="none"/>
  <path id="svg_12" d="m39.52747,22.33493l18.53908,9.90048l5.38263,-16.66915l-23.92171,6.76867z" stroke="#706f6f" fill="#d1d1d1"/>
  <path id="svg_15" d="m26.07481,4.69897l13.31109,17.44853l23.63994,-6.63224l-11.94491,-5.80649l-16.11621,0.90136l-8.88991,-5.91116z" stroke="#706f6f" fill="#f7f4f4"/>
  <path id="svg_16" d="m1.66966,44.95647l-0.72847,-17.75872l2.9117,-12.25846l8.00012,-9.10173l-2.90953,22.89052l14.69421,6.94243l-7.56694,23.61556l-10.6187,-3.15673l-3.78239,-11.17287z" stroke="#706f6f" fill="#969090"/>
  <path id="svg_17" d="m58.31747,32.22279l5.52811,-16.1343l4.80073,13.24995l-0.58191,19.37918l-9.74693,-16.49484z" stroke="#706f6f" fill="#f7f4f4"/>
  <path stroke-width="1.4" id="svg_19" d="m15.80743,59.48196l37.02314,-0.72031l15.71146,-8.8333l0.58191,-20.55095l-4.9462,-13.70063l-12.94741,-5.94896l-15.71146,0.90136l-9.3105,-6.12923l-14.2567,0.18027l-8.29216,10.45575l-2.90953,12.43873l0.72738,17.84688l3.78239,10.81629l10.54767,3.24411z" opacity="NaN" stroke="#4f4f4f" fill="none"/>
 </g>
</svg>